Syne-Bold.ufo
<glyph name="exclam" format="1">
  <advance width="304.55625"/>
  <unicode hex="0021"/>
  <outline>
    <contour>
      <point x="218.151" y="662.559" type="line"/>
      <point x="86.401" y="662.559" type="line"/>
      <point x="86.401" y="201.938" type="line"/>
      <point x="218.151" y="201.938" type="line"/>
    </contour>
    <component base="period" xOffset="16.547"/>
  </outline>
</glyph>
<glyph name="numbersign" format="1">
  <advance width="909.375"/>
  <unicode hex="0023"/>
  <outline>
    <contour>
      <point x="672.625" y="633.125" type="line"/>
      <point x="550.5" y="633.125" type="line"/>
      <point x="550.5" y="13.75" type="line"/>
      <point x="672.625" y="13.75" type="line"/>
    </contour>
    <contour>
      <point x="363" y="633.125" type="line"/>
      <point x="240.875" y="633.125" type="line"/>
      <point x="240.875" y="13.75" type="line"/>
      <point x="363" y="13.75" type="line"/>
    </contour>
    <contour>
      <point x="842.5" y="158.438" type="line"/>
      <point x="842.5" y="250.688" type="line"/>
      <point x="66.875" y="250.688" type="line"/>
      <point x="66.875" y="158.438" type="line"/>
    </contour>
    <contour>
      <point x="842.5" y="396.188" type="line"/>
      <point x="842.5" y="488.438" type="line"/>
      <point x="66.875" y="488.438" type="line"/>
      <point x="66.875" y="396.188" type="line"/>
    </contour>
  </outline>
</glyph>
<glyph name="dollar" format="1">
  <advance width="559.49125"/>
  <unicode hex="0024"/>
  <outline>
    <contour>
      <point x="386.075" y="688.039" type="line"/>
      <point x="315.268" y="700.248" type="line"/>
      <point x="290.784" y="561.39" type="line"/>
      <point x="361.59" y="549.181" type="line"/>
    </contour>
    <contour>
      <point x="205.558" y="80.132" type="line"/>
      <point x="181.073" y="-58.726" type="line"/>
      <point x="251.88" y="-71.248" type="line"/>
      <point x="276.364" y="67.61" type="line"/>
    </contour>
    <component base="s" xOffset="-5.690" yOffset="65.412"/>
  </outline>
</glyph>
<glyph name="percent" format="1">
  <advance width="948.46125"/>
  <unicode hex="0025"/>
  <outline>
    <contour>
      <point x="227.742" y="332.835" type="curve"/>
      <point x="341.6" y="332.835"/>
      <point x="414.653" y="394.629"/>
      <point x="414.653" y="498.265" type="curve"/>
      <point x="414.653" y="602.525"/>
      <point x="341.6" y="664.111"/>
      <point x="227.742" y="664.111" type="curve"/>
      <point x="113.467" y="664.111"/>
      <point x="39.998" y="602.525"/>
      <point x="39.998" y="498.265" type="curve"/>
      <point x="39.998" y="394.629"/>
      <point x="113.467" y="332.835"/>
    </contour>
    <contour>
      <point x="227.742" y="414.83" type="curve"/>
      <point x="175.914" y="414.83"/>
      <point x="141.783" y="446.662"/>
      <point x="141.783" y="498.265" type="curve"/>
      <point x="141.783" y="549.867"/>
      <point x="176.33" y="582.117"/>
      <point x="227.742" y="582.117" type="curve"/>
      <point x="279.154" y="582.117"/>
      <point x="312.867" y="549.659"/>
      <point x="312.867" y="498.265" type="curve"/>
      <point x="312.867" y="446.662"/>
      <point x="278.737" y="414.83"/>
    </contour>
    <contour>
      <point x="721.553" y="-12.402" type="curve"/>
      <point x="835.411" y="-12.402"/>
      <point x="908.464" y="49.392"/>
      <point x="908.464" y="153.028" type="curve"/>
      <point x="908.464" y="257.288"/>
      <point x="835.411" y="318.874"/>
      <point x="721.553" y="318.874" type="curve"/>
      <point x="607.279" y="318.874"/>
      <point x="533.809" y="257.288"/>
      <point x="533.809" y="153.028" type="curve"/>
      <point x="533.809" y="49.392"/>
      <point x="607.279" y="-12.402"/>
    </contour>
    <contour>
      <point x="721.553" y="69.593" type="curve"/>
      <point x="669.725" y="69.593"/>
      <point x="635.595" y="101.425"/>
      <point x="635.595" y="153.028" type="curve"/>
      <point x="635.595" y="204.63"/>
      <point x="670.142" y="236.88"/>
      <point x="721.553" y="236.88" type="curve"/>
      <point x="772.965" y="236.88"/>
      <point x="806.678" y="204.422"/>
      <point x="806.678" y="153.028" type="curve"/>
      <point x="806.678" y="101.425"/>
      <point x="772.548" y="69.593"/>
    </contour>
    <component base="fraction" xOffset="412.362" yOffset="-14.049"/>
  </outline>
</glyph>
<glyph name="ampersand" format="1">
  <advance width="779.81375"/>
  <unicode hex="0026"/>
  <outline>
    <contour>
      <point x="366.85" y="333.238" type="curve"/>
      <point x="366.85" y="368.16" type="line"/>
      <point x="251.844" y="368.16"/>
      <point x="199.049" y="403.336"/>
      <point x="199.049" y="461.433" type="curve"/>
      <point x="199.049" y="516.396"/>
      <point x="249.53" y="549.366"/>
      <point x="349.211" y="549.366" type="curve"/>
      <point x="440.614" y="549.366"/>
      <point x="497.96" y="520.146"/>
      <point x="499.581" y="465.235" type="curve"/>
      <point x="622.393" y="465.235" type="line"/>
      <point x="622.393" y="594.788"/>
      <point x="509.003" y="660.304"/>
      <point x="347.075" y="660.304" type="curve"/>
      <point x="169.651" y="660.304"/>
      <point x="62.799" y="589.167"/>
      <point x="62.799" y="480.532" type="curve"/>
      <point x="62.799" y="362.057"/>
      <point x="198.14" y="333.238"/>
    </contour>
    <contour>
      <point x="366.85" y="292.723" type="curve"/>
      <point x="366.85" y="339.589" type="line"/>
      <point x="190.454" y="339.589"/>
      <point x="36.376" y="297.297"/>
      <point x="36.376" y="159.473" type="curve"/>
      <point x="36.376" y="54.928"/>
      <point x="138.912" y="-11.447"/>
      <point x="262.564" y="-11.447" type="curve"/>
      <point x="460.016" y="-11.447"/>
      <point x="510.258" y="134.497"/>
      <point x="516.359" y="234.647" type="curve"/>
      <point x="499.796" y="237.772" type="line"/>
      <point x="499.796" y="163.064"/>
      <point x="438.939" y="89.203"/>
      <point x="317.773" y="89.203" type="curve"/>
      <point x="223.928" y="89.203"/>
      <point x="174.188" y="130.468"/>
      <point x="174.188" y="186.701" type="curve"/>
      <point x="174.188" y="259.68"/>
      <point x="251.18" y="292.723"/>
    </contour>
    <contour>
      <point x="756.369" y="292.723" type="line"/>
      <point x="756.369" y="368.16" type="line"/>
      <point x="366.85" y="368.16" type="line"/>
      <point x="366.85" y="292.723" type="line"/>
    </contour>
    <contour>
      <point x="499.794" y="341.242" type="line"/>
      <point x="499.794" y="127.438" type="line"/>
      <point x="499.794" y="68.188"/>
      <point x="508.965" y="0"/>
      <point x="508.965" y="0" type="curve"/>
      <point x="629.794" y="0" type="line"/>
      <point x="629.794" y="341.242" type="line"/>
    </contour>
  </outline>
</glyph>
<glyph name="quotesingle" format="1">
  <advance width="229.655"/>
  <unicode hex="0027"/>
  <outline>
    <contour>
      <point x="80.406" y="442.968" type="line"/>
      <point x="148.844" y="442.968" type="line"/>
      <point x="190.901" y="566.735" type="line"/>
      <point x="190.901" y="653.089" type="line"/>
      <point x="38.733" y="653.089" type="line"/>
      <point x="38.733" y="566.735" type="line"/>
    </contour>
  </outline>
</glyph>
<glyph name="parenleft" format="1">
  <advance width="336.25"/>
  <unicode hex="0028"/>
  <outline>
    <contour>
      <point x="214" y="-145.5" type="curve"/>
      <point x="283.125" y="-90.125" type="line"/>
      <point x="283.125" y="-90.125"/>
      <point x="155" y="36.625"/>
      <point x="155" y="286" type="curve"/>
      <point x="155" y="529.125"/>
      <point x="283.125" y="659"/>
      <point x="283.125" y="659" type="curve"/>
      <point x="214" y="714.375" type="line"/>
      <point x="214" y="714.375"/>
      <point x="53.125" y="561.375"/>
      <point x="53.125" y="286" type="curve"/>
      <point x="53.125" y="10.625"/>
      <point x="214" y="-145.5"/>
    </contour>
  </outline>
</glyph>
<glyph name="asterisk" format="1">
  <advance width="503.35"/>
  <unicode hex="002A"/>
  <outline>
    <contour>
      <point x="205.347" y="518.224" type="line"/>
      <point x="336.573" y="326.988" type="line"/>
      <point x="417.77" y="386.457" type="line"/>
      <point x="276.431" y="570.347" type="line"/>
    </contour>
    <contour>
      <point x="82.664" y="386.461" type="line"/>
      <point x="163.533" y="327.24" type="line"/>
      <point x="292.458" y="515.427" type="line"/>
      <point x="221.702" y="567.3" type="line"/>
    </contour>
    <contour>
      <point x="40.602" y="539.959" type="line"/>
      <point x="261.323" y="474.828" type="line"/>
      <point x="288.584" y="558.737" type="line"/>
      <point x="71.726" y="635.756" type="line"/>
    </contour>
    <contour>
      <point x="199.579" y="732.46" type="line"/>
      <point x="205.779" y="508.924" type="line"/>
      <point x="293.191" y="509.422" type="line"/>
      <point x="299.744" y="732.488" type="line"/>
    </contour>
    <contour>
      <point x="217.688" y="560.316" type="line"/>
      <point x="244.621" y="476.371" type="line"/>
      <point x="462.735" y="540.637" type="line"/>
      <point x="431.938" y="636.468" type="line"/>
    </contour>
  </outline>
</glyph>
<glyph name="plus" format="1">
  <advance width="560"/>
  <unicode hex="002B"/>
  <outline>
    <contour>
      <point x="510" y="317.5" type="line"/>
      <point x="50" y="317.5" type="line"/>
      <point x="50" y="222.5" type="line"/>
      <point x="510" y="222.5" type="line"/>
    </contour>
    <contour>
      <point x="333.75" y="80.625" type="line"/>
      <point x="333.75" y="459.375" type="line"/>
      <point x="226.25" y="459.375" type="line"/>
      <point x="226.25" y="80.625" type="line"/>
    </contour>
  </outline>
</glyph>
<glyph name="comma" format="1">
  <advance width="230.6375"/>
  <unicode hex="002C"/>
  <outline>
    <contour>
      <point x="48.814" y="-115.321" type="curve"/>
      <point x="67.462" y="-149.415" type="line"/>
      <point x="144.114" y="-116.563"/>
      <point x="191.875" y="-61.917"/>
      <point x="191.875" y="32.79" type="curve"/>
      <point x="191.875" y="114.769" type="line"/>
      <point x="38.739" y="114.769" type="line"/>
      <point x="38.739" y="0.404" type="line"/>
      <point x="93.732" y="-10.556" type="line"/>
      <point x="91.649" y="-47.788"/>
      <point x="69.475" y="-86.306"/>
    </contour>
  </outline>
</glyph>
<glyph name="hyphen" format="1">
  <advance width="493.75"/>
  <unicode hex="002D"/>
  <outline>
    <contour>
      <point x="413.75" y="319.5" type="line"/>
      <point x="80" y="319.5" type="line"/>
      <point x="80" y="221.75" type="line"/>
      <point x="413.75" y="221.75" type="line"/>
    </contour>
  </outline>
</glyph>
<glyph name="period" format="1">
  <advance width="271.43125"/>
  <unicode hex="002E"/>
  <outline>
    <contour>
      <point x="211.132" y="0.103" type="line"/>
      <point x="211.132" y="114.41" type="line"/>
      <point x="60.328" y="114.41" type="line"/>
      <point x="60.328" y="0.103" type="line"/>
    </contour>
  </outline>
</glyph>
<glyph name="slash" format="1">
  <advance width="480.90688"/>
  <unicode hex="002F"/>
  <outline>
    <contour>
      <point x="444.659" y="715.24" type="line"/>
      <point x="340.411" y="753.182" type="line"/>
      <point x="36.25" y="-82.493" type="line"/>
      <point x="140.498" y="-120.435" type="line"/>
    </contour>
  </outline>
</glyph>
<glyph name="equal" format="1">
  <advance width="585.625"/>
  <unicode hex="003D"/>
  <outline>
    <contour>
      <point x="535.625" y="428.438" type="line"/>
      <point x="50" y="428.438" type="line"/>
      <point x="50" y="330" type="line"/>
      <point x="535.625" y="330" type="line"/>
    </contour>
    <contour>
      <point x="535.625" y="225" type="line"/>
      <point x="50" y="225" type="line"/>
      <point x="50" y="126.562" type="line"/>
      <point x="535.625" y="126.562" type="line"/>
    </contour>
  </outline>
</glyph>
<glyph name="greater" format="1">
  <advance width="537.95938"/>
  <unicode hex="003E"/>
  <outline>
    <contour>
      <point x="471.084" y="344.439" type="line"/>
      <point x="143.246" y="530.292" type="line"/>
      <point x="93.726" y="440.171" type="line"/>
      <point x="471.084" y="234.604" type="line"/>
    </contour>
    <contour>
      <point x="93.726" y="141.997" type="line"/>
      <point x="143.246" y="48.752" type="line"/>
      <point x="471.084" y="234.604" type="line"/>
      <point x="471.084" y="344.439" type="line"/>
    </contour>
  </outline>
</glyph>
<glyph name="question" format="1">
  <advance width="625.61125"/>
  <unicode hex="003F"/>
  <outline>
    <contour>
      <point x="286.293" y="366.614" type="line"/>
      <point x="227.028" y="366.614" type="line"/>
      <point x="227.028" y="201" type="line"/>
      <point x="353.903" y="201" type="line"/>
      <point x="353.903" y="292.313" type="line"/>
    </contour>
    <contour>
      <point x="286.293" y="366.614" type="curve"/>
      <point x="329.292" y="275.344" type="line"/>
      <point x="465.208" y="275.344"/>
      <point x="576.548" y="344.554"/>
      <point x="576.548" y="486.271" type="curve"/>
      <point x="576.548" y="612.917"/>
      <point x="493.384" y="708.741"/>
      <point x="314.082" y="708.741" type="curve"/>
      <point x="128.531" y="708.741"/>
      <point x="49.352" y="591.667"/>
      <point x="52.477" y="494.97" type="curve"/>
      <point x="180.915" y="494.97" type="line"/>
      <point x="183.302" y="551.466"/>
      <point x="225.286" y="594.679"/>
      <point x="310.869" y="594.679" type="curve"/>
      <point x="391.454" y="594.679"/>
      <point x="443.423" y="555.344"/>
      <point x="443.423" y="482.423" type="curve"/>
      <point x="443.423" y="408.708"/>
      <point x="394.993" y="366.614"/>
    </contour>
    <component base="period" xOffset="157.904"/>
  </outline>
</glyph>
<glyph name="at" format="1">
  <advance width="894.655"/>
  <unicode hex="0040"/>
  <outline>
    <contour>
      <point x="550.213" y="38.672" type="curve"/>
      <point x="493.972" y="80.347" type="line"/>
      <point x="455.526" y="32.611"/>
      <point x="438.825" y="8.28"/>
      <point x="414.221" y="-14.149" type="curve"/>
      <point x="363.364" y="-63.677"/>
      <point x="340.477" y="-90.034"/>
      <point x="288.303" y="-68.88" type="curve"/>
      <point x="239.79" y="-49.605"/>
      <point x="228.288" y="-52.571"/>
      <point x="234.281" y="-59.887" type="curve"/>
      <point x="202.187" y="-20.702"/>
      <point x="149.508" y="-4.528"/>
      <point x="149.508" y="96.281" type="curve"/>
      <point x="149.508" y="227.886"/>
      <point x="167.985" y="309.084"/>
      <point x="237.29" y="453.822" type="curve"/>
      <point x="255.169" y="491.219"/>
      <point x="352.027" y="557.355"/>
      <point x="420.385" y="578.947" type="curve"/>
      <point x="463.801" y="591.993"/>
      <point x="571.098" y="608.553"/>
      <point x="604.026" y="608.553" type="curve"/>
      <point x="630.543" y="608.553"/>
      <point x="692.353" y="596.492"/>
      <point x="709.486" y="587.519" type="curve"/>
      <point x="731.97" y="575.365"/>
      <point x="741.703" y="539.881"/>
      <point x="741.703" y="501.596" type="curve"/>
      <point x="741.703" y="453.15"/>
      <point x="724.956" y="401.977"/>
      <point x="703.659" y="329.507" type="curve"/>
      <point x="630.35" y="198.624" type="line"/>
      <point x="591.275" y="162.439" type="line"/>
      <point x="629.177" y="169.891" type="line"/>
      <point x="629.177" y="231.109"/>
      <point x="642.994" y="288.986"/>
      <point x="642.994" y="354.296" type="curve"/>
      <point x="651.875" y="370.132" type="line"/>
      <point x="682.664" y="486.195"/>
      <point x="606.137" y="529.593"/>
      <point x="536.584" y="466.837" type="curve"/>
      <point x="492.319" y="426.899"/>
      <point x="414.413" y="285.767"/>
      <point x="367.17" y="234.732" type="curve"/>
      <point x="282.882" y="153.222" type="line"/>
      <point x="320.95" y="188.234" type="line"/>
      <point x="341.365" y="238.019"/>
      <point x="362.238" y="296.356"/>
      <point x="387.54" y="367.199" type="curve"/>
      <point x="393.602" y="384.311"/>
      <point x="400.069" y="408.25"/>
      <point x="406.86" y="433.799" type="curve"/>
      <point x="376.232" y="388.174" type="line"/>
      <point x="419.439" y="372.836"/>
      <point x="526.913" y="318.656"/>
      <point x="551.513" y="318.656" type="curve"/>
      <point x="551.513" y="405.219" type="line"/>
      <point x="538.526" y="405.219"/>
      <point x="431.635" y="457.204"/>
      <point x="405.361" y="466.531" type="curve"/>
      <point x="394.913" y="470.233"/>
      <point x="350.998" y="479.24"/>
      <point x="341.42" y="479.24" type="curve"/>
      <point x="338.751" y="479.24"/>
      <point x="336.928" y="477.695"/>
      <point x="336.928" y="472.812" type="curve"/>
      <point x="336.928" y="430.343"/>
      <point x="334.403" y="434.253"/>
      <point x="319.838" y="389.219" type="curve"/>
      <point x="299.718" y="327.555"/>
      <point x="278.986" y="270.473"/>
      <point x="265.834" y="207.609" type="curve"/>
      <point x="257.515" y="168.156"/>
      <point x="250.655" y="55.65"/>
      <point x="261.066" y="65.719" type="curve"/>
      <point x="312.938" y="115.632"/>
      <point x="377.092" y="155.999"/>
      <point x="426.009" y="208.844" type="curve"/>
      <point x="484.127" y="271.63"/>
      <point x="525.297" y="353.375"/>
      <point x="589.597" y="411.39" type="curve"/>
      <point x="595.111" y="415.527"/>
      <point x="573.17" y="357.97"/>
      <point x="573.17" y="354.296" type="curve"/>
      <point x="573.17" y="291.265"/>
      <point x="569.353" y="233.389"/>
      <point x="569.353" y="169.891" type="curve"/>
      <point x="569.353" y="141.292"/>
      <point x="583.354" y="119.928"/>
      <point x="616.933" y="106.766" type="curve"/>
      <point x="622.461" y="104.599"/>
      <point x="628.553" y="99.102"/>
      <point x="634.091" y="99.102" type="curve"/>
      <point x="642.046" y="99.102"/>
      <point x="645.405" y="108.349"/>
      <point x="649.502" y="112.766" type="curve"/>
      <point x="657.14" y="121.69"/>
      <point x="669.821" y="127.306"/>
      <point x="679.625" y="134.859" type="curve"/>
      <point x="704.642" y="154.131"/>
      <point x="761.873" y="286.593"/>
      <point x="768.623" y="309.562" type="curve"/>
      <point x="786.79" y="371.386"/>
      <point x="811.527" y="438.975"/>
      <point x="811.527" y="504.721" type="curve"/>
      <point x="811.527" y="560.572"/>
      <point x="782.299" y="640.027"/>
      <point x="748.984" y="657.984" type="curve"/>
      <point x="712.696" y="676.882"/>
      <point x="648.317" y="694.803"/>
      <point x="604.026" y="694.803" type="curve"/>
      <point x="561.637" y="694.803"/>
      <point x="448.8" y="674.765"/>
      <point x="393.986" y="658.516" type="curve"/>
      <point x="319.041" y="634.844"/>
      <point x="199.027" y="545.671"/>
      <point x="171.705" y="487.828" type="curve"/>
      <point x="105.865" y="348.441"/>
      <point x="77.496" y="241.014"/>
      <point x="77.496" y="93.156" type="curve"/>
      <point x="77.496" y="28.179"/>
      <point x="125.164" y="-46.905"/>
      <point x="172.17" y="-104.297" type="curve"/>
      <point x="194.887" y="-131.895"/>
      <point x="279.095" y="-159.323"/>
      <point x="319.386" y="-159.323" type="curve"/>
      <point x="379.727" y="-159.323"/>
      <point x="409.617" y="-117.873"/>
      <point x="459.911" y="-73.391" type="curve"/>
      <point x="489.257" y="-47.207"/>
      <point x="545.93" y="29.397"/>
    </contour>
  </outline>
</glyph>
<glyph name="A" format="1">
  <advance width="788.75"/>
  <unicode hex="0041"/>
  <outline>
    <contour>
      <point x="177.625" y="251.984" type="line"/>
      <point x="177.625" y="140.984" type="line"/>
      <point x="605.875" y="140.984" type="line"/>
      <point x="605.875" y="251.984" type="line"/>
    </contour>
    <contour>
      <point x="320.75" y="646.875" type="line"/>
      <point x="16.875" y="0" type="line"/>
      <point x="160.562" y="0" type="line"/>
      <point x="425.219" y="583.13" type="line"/>
      <point x="361.219" y="583.13" type="line"/>
      <point x="626.812" y="0" type="line"/>
      <point x="771.875" y="0" type="line"/>
      <point x="465.375" y="646.875" type="line"/>
    </contour>
    <contour>
      <point x="394.375" y="0" type="move" name="bottom"/>
    </contour>
    <contour>
      <point x="706.938" y="6.875" type="move" name="ogonek"/>
    </contour>
    <contour>
      <point x="393.75" y="634.375" type="move" name="top"/>
    </contour>
  </outline>
</glyph>
<glyph name="B" format="1">
  <advance width="779.75"/>
  <unicode hex="0042"/>
  <outline>
    <contour>
      <point x="449.75" y="646.875" type="curve"/>
      <point x="452.25" y="536.562" type="line"/>
      <point x="526.858" y="536.562"/>
      <point x="576.312" y="514.516"/>
      <point x="576.312" y="455.312" type="curve"/>
      <point x="576.312" y="395.062"/>
      <point x="529.168" y="372.812"/>
      <point x="445.375" y="372.812" type="curve"/>
      <point x="417.875" y="320.125" type="line"/>
      <point x="594.75" y="320.125"/>
      <point x="715" y="344.406"/>
      <point x="715" y="473.969" type="curve"/>
      <point x="715" y="588.297"/>
      <point x="622.742" y="646.875"/>
    </contour>
    <contour>
      <point x="449.75" y="646.875" type="line"/>
      <point x="141.375" y="646.875" type="line"/>
      <point x="141.375" y="536.562" type="line"/>
      <point x="452.25" y="536.562" type="line"/>
    </contour>
    <contour>
      <point x="445.375" y="372.812" type="line"/>
      <point x="141.375" y="372.812" type="line"/>
      <point x="141.375" y="266.25" type="line"/>
      <point x="458.5" y="266.25" type="line"/>
    </contour>
    <contour>
      <point x="417.875" y="329.5" type="curve"/>
      <point x="458.5" y="266.25" type="line"/>
      <point x="535.375" y="266.25"/>
      <point x="603.188" y="262.498"/>
      <point x="603.188" y="196.31" type="curve"/>
      <point x="603.188" y="136.06"/>
      <point x="556" y="110.312"/>
      <point x="472.25" y="110.312" type="curve"/>
      <point x="472.25" y="0" type="line"/>
      <point x="630.375" y="0"/>
      <point x="739.438" y="57"/>
      <point x="739.438" y="181" type="curve"/>
      <point x="739.438" y="328.812"/>
      <point x="581.625" y="329.5"/>
    </contour>
    <contour>
      <point x="486" y="110.312" type="line"/>
      <point x="154.5" y="110.312" type="line"/>
      <point x="154.5" y="0" type="line"/>
      <point x="486" y="0" type="line"/>
    </contour>
    <component base="fut-v" xOffset="28.250"/>
    <contour>
      <point x="377.625" y="0" type="move" name="bottom"/>
    </contour>
    <contour>
      <point x="377.625" y="680" type="move" name="top"/>
    </contour>
  </outline>
</glyph>
<glyph name="C" format="1">
  <advance width="885.3625"/>
  <unicode hex="0043"/>
  <outline>
    <contour>
      <point x="831.818" y="233.105" type="curve"/>
      <point x="699.689" y="233.105" type="line"/>
      <point x="672.486" y="152.162"/>
      <point x="595.671" y="101.375"/>
      <point x="463.688" y="101.375" type="curve"/>
      <point x="299.125" y="101.375"/>
      <point x="189.688" y="177.75"/>
      <point x="189.688" y="321.875" type="curve"/>
      <point x="189.688" y="468"/>
      <point x="299.125" y="545.375"/>
      <point x="463.688" y="545.375" type="curve"/>
      <point x="595.955" y="545.375"/>
      <point x="673.034" y="493.767"/>
      <point x="700.033" y="409.542" type="curve"/>
      <point x="832.228" y="409.542" type="line"/>
      <point x="815.135" y="567.168"/>
      <point x="681.744" y="660"/>
      <point x="463.688" y="660" type="curve"/>
      <point x="220.688" y="660"/>
      <point x="53.125" y="544.625"/>
      <point x="53.125" y="321.875" type="curve"/>
      <point x="53.125" y="99.125"/>
      <point x="220.688" y="-13.125"/>
      <point x="463.688" y="-13.125" type="curve"/>
      <point x="681.254" y="-13.125"/>
      <point x="814.312" y="76.135"/>
    </contour>
    <contour>
      <point x="463.375" y="0" type="move" name="bottom"/>
    </contour>
    <contour>
      <point x="477.812" y="340" type="move" name="center"/>
    </contour>
    <contour>
      <point x="774.438" y="0" type="move" name="ogonek"/>
    </contour>
    <contour>
      <point x="454" y="637.5" type="move" name="top"/>
    </contour>
    <contour>
      <point x="18.438" y="680" type="move" name="topleft"/>
    </contour>
    <contour>
      <point x="937.188" y="680" type="move" name="topright"/>
    </contour>
  </outline>
</glyph>
<glyph name="D" format="1">
  <advance width="879.1875"/>
  <unicode hex="0044"/>
  <outline>
    <contour>
      <point x="446.938" y="646.875" type="curve"/>
      <point x="443.812" y="532.812" type="line"/>
      <point x="635.062" y="532.812"/>
      <point x="690.5" y="435.062"/>
      <point x="690.5" y="325.5" type="curve"/>
      <point x="690.5" y="215.938"/>
      <point x="635.062" y="114.062"/>
      <point x="443.812" y="114.062" type="curve"/>
      <point x="446.938" y="0" type="line"/>
      <point x="725.062" y="0"/>
      <point x="826.062" y="154.062"/>
      <point x="826.062" y="325.5" type="curve"/>
      <point x="826.062" y="496.938"/>
      <point x="738.188" y="646.875"/>
    </contour>
    <contour>
      <point x="446.938" y="646.875" type="line"/>
      <point x="163.25" y="646.875" type="line"/>
      <point x="163.25" y="532.812" type="line"/>
      <point x="443.812" y="532.812" type="line"/>
    </contour>
    <contour>
      <point x="443.812" y="114.062" type="line"/>
      <point x="176.375" y="114.062" type="line"/>
      <point x="176.375" y="0" type="line"/>
      <point x="446.938" y="0" type="line"/>
    </contour>
    <component base="fut-v" xOffset="28.250"/>
    <contour>
      <point x="442.812" y="0" type="move" name="bottom"/>
    </contour>
    <contour>
      <point x="308.782" y="336.875" type="move" name="center"/>
    </contour>
    <contour>
      <point x="410.312" y="655" type="move" name="top"/>
    </contour>
  </outline>
</glyph>
<glyph name="E" format="1">
  <advance width="769.4375"/>
  <unicode hex="0045"/>
  <outline>
    <contour>
      <point x="708.125" y="646.875" type="line"/>
      <point x="200.188" y="646.875" type="line"/>
      <point x="200.188" y="535.938" type="line"/>
      <point x="708.125" y="535.938" type="line"/>
    </contour>
    <contour>
      <point x="617.562" y="374.906" type="line"/>
      <point x="200.188" y="374.906" type="line"/>
      <point x="200.188" y="269.906" type="line"/>
      <point x="617.562" y="269.906" type="line"/>
    </contour>
    <contour>
      <point x="709.438" y="110.938" type="line"/>
      <point x="200.188" y="110.938" type="line"/>
      <point x="200.188" y="0" type="line"/>
      <point x="709.438" y="0" type="line"/>
    </contour>
    <component base="fut-v" xOffset="28.250"/>
    <contour>
      <point x="407.562" y="0" type="move" name="bottom"/>
    </contour>
    <contour>
      <point x="643.812" y="0" type="move" name="ogonek"/>
    </contour>
    <contour>
      <point x="396.625" y="634.375" type="move" name="top"/>
    </contour>
    <contour>
      <point x="25.625" y="680" type="move" name="topleft"/>
    </contour>
  </outline>
</glyph>
<glyph name="F" format="1">
  <advance width="740.9375"/>
  <unicode hex="0046"/>
  <outline>
    <contour>
      <point x="708.125" y="646.875" type="line"/>
      <point x="200.188" y="646.875" type="line"/>
      <point x="200.188" y="535.938" type="line"/>
      <point x="708.125" y="535.938" type="line"/>
    </contour>
    <contour>
      <point x="617.562" y="362.25" type="line"/>
      <point x="200.188" y="362.25" type="line"/>
      <point x="200.188" y="257.562" type="line"/>
      <point x="617.562" y="257.562" type="line"/>
    </contour>
    <component base="fut-v" xOffset="28.250"/>
    <contour>
      <point x="394.438" y="0" type="move" name="bottom"/>
    </contour>
    <contour>
      <point x="394.438" y="680" type="move" name="top"/>
    </contour>
  </outline>
</glyph>
<glyph name="G" format="1">
  <advance width="914.39062"/>
  <unicode hex="0047"/>
  <outline>
    <contour>
      <point x="769.942" y="259.98" type="curve"/>
      <point x="717.501" y="241.23" type="line"/>
      <point x="687.277" y="161.584"/>
      <point x="593.549" y="101.75"/>
      <point x="454.437" y="101.75" type="curve"/>
      <point x="271.444" y="101.75"/>
      <point x="189.687" y="184.286"/>
      <point x="189.687" y="318.438" type="curve"/>
      <point x="189.687" y="455.135"/>
      <point x="289.012" y="545"/>
      <point x="463.687" y="545" type="curve"/>
      <point x="599.569" y="545"/>
      <point x="673.916" y="491.622"/>
      <point x="700.032" y="412.667" type="curve"/>
      <point x="828.103" y="412.667" type="line"/>
      <point x="815.412" y="564.392"/>
      <point x="681.619" y="660"/>
      <point x="463.687" y="660" type="curve"/>
      <point x="218.78" y="660"/>
      <point x="53.125" y="536.865"/>
      <point x="53.125" y="318.438" type="curve"/>
      <point x="53.125" y="100.918"/>
      <point x="210.481" y="-13.125"/>
      <point x="448.812" y="-13.125" type="curve"/>
      <point x="634.017" y="-13.125"/>
      <point x="752.036" y="87.649"/>
    </contour>
    <contour>
      <point x="851.266" y="314.566" type="line"/>
      <point x="776.141" y="314.566" type="line"/>
      <point x="776.141" y="314.566"/>
      <point x="736.391" y="105.66"/>
      <point x="736.391" y="0" type="curve"/>
      <point x="851.266" y="0" type="line"/>
    </contour>
    <contour>
      <point x="851.266" y="230.191" type="line"/>
      <point x="851.266" y="314.566" type="line"/>
      <point x="465.249" y="314.566" type="line"/>
      <point x="465.249" y="230.191" type="line"/>
    </contour>
    <contour>
      <point x="454.444" y="0" type="move" name="bottom"/>
    </contour>
    <contour>
      <point x="472.881" y="340" type="move" name="center"/>
    </contour>
    <contour>
      <point x="861.381" y="10" type="move" name="ogonek"/>
    </contour>
    <contour>
      <point x="454.444" y="637.5" type="move" name="top"/>
    </contour>
    <contour>
      <point x="13.506" y="680" type="move" name="topleft"/>
    </contour>
    <contour>
      <point x="932.256" y="680" type="move" name="topright"/>
    </contour>
  </outline>
</glyph>
<glyph name="H" format="1">
  <advance width="895"/>
  <unicode hex="0048"/>
  <outline>
    <contour>
      <point x="787.188" y="379.812" type="line"/>
      <point x="193.938" y="379.812" type="line"/>
      <point x="193.938" y="268.875" type="line"/>
      <point x="787.188" y="268.875" type="line"/>
    </contour>
    <component base="fut-v" xOffset="636.375"/>
    <component base="fut-v" xOffset="28.250"/>
    <contour>
      <point x="465.625" y="0" type="move" name="bottom"/>
    </contour>
    <contour>
      <point x="465.625" y="340" type="move" name="center"/>
    </contour>
    <contour>
      <point x="465.625" y="680" type="move" name="top"/>
    </contour>
    <contour>
      <point x="19.375" y="680" type="move" name="topleft"/>
    </contour>
  </outline>
</glyph>
<glyph name="I" format="1">
  <advance width="323.75"/>
  <unicode hex="0049"/>
  <outline>
    <component base="fut-v" xOffset="46.688"/>
    <contour>
      <point x="175.312" y="0" type="move" name="bottom"/>
    </contour>
    <contour>
      <point x="161.362" y="0" type="move" name="ogonek"/>
    </contour>
    <contour>
      <point x="161.875" y="634.375" type="move" name="top"/>
    </contour>
    <contour>
      <point x="-8.438" y="680" type="move" name="topleft"/>
    </contour>
  </outline>
</glyph>
<glyph name="J" format="1">
  <advance width="683.06875"/>
  <unicode hex="004A"/>
  <outline>
    <contour>
      <point x="606.194" y="646.875" type="line"/>
      <point x="473.069" y="646.875" type="line"/>
      <point x="473.069" y="253.375" type="line"/>
      <point x="606.194" y="244" type="line"/>
    </contour>
    <contour>
      <point x="151.742" y="221.354" type="curve"/>
      <point x="26.261" y="221.354" type="line"/>
      <point x="30.936" y="63.682"/>
      <point x="172.084" y="-10"/>
      <point x="317.756" y="-10" type="curve"/>
      <point x="505.819" y="-10"/>
      <point x="606.194" y="106.75"/>
      <point x="606.194" y="244" type="curve"/>
      <point x="473.069" y="253.375" type="line"/>
      <point x="473.069" y="169.375"/>
      <point x="426.694" y="105.375"/>
      <point x="317.756" y="105.375" type="curve"/>
      <point x="231.605" y="105.375"/>
      <point x="166.225" y="144.515"/>
    </contour>
    <contour>
      <point x="345.319" y="0" type="move" name="bottom"/>
    </contour>
    <contour>
      <point x="345.319" y="680" type="move" name="top"/>
    </contour>
  </outline>
</glyph>
<glyph name="K" format="1">
  <advance width="813.5"/>
  <unicode hex="004B"/>
  <outline>
    <contour>
      <point x="353.18" y="371.279" type="line"/>
      <point x="353.735" y="314.67" type="line"/>
      <point x="743.062" y="646.875" type="line"/>
      <point x="554.438" y="646.875" type="line"/>
      <point x="209.179" y="339.855" type="line"/>
      <point x="596.562" y="0" type="line"/>
      <point x="788.812" y="0" type="line"/>
    </contour>
    <component base="fut-v" xOffset="28.250"/>
    <contour>
      <point x="384.875" y="0" type="move" name="bottom"/>
    </contour>
    <contour>
      <point x="384.875" y="680" type="move" name="top"/>
    </contour>
  </outline>
</glyph>
<glyph name="L" format="1">
  <advance width="686.5"/>
  <unicode hex="004C"/>
  <outline>
    <contour>
      <point x="639.625" y="110.529" type="line"/>
      <point x="157.938" y="110.529" type="line"/>
      <point x="157.938" y="-0.408" type="line"/>
      <point x="639.625" y="-0.408" type="line"/>
    </contour>
    <component base="fut-v" xOffset="28.250"/>
    <contour>
      <point x="390.25" y="0" type="move" name="bottom"/>
    </contour>
    <contour>
      <point x="324.625" y="340" type="move" name="center"/>
    </contour>
    <contour>
      <point x="143.376" y="634.375" type="move" name="top"/>
    </contour>
    <contour>
      <point x="665.875" y="680" type="move" name="topright"/>
    </contour>
  </outline>
</glyph>
<glyph name="M" format="1">
  <advance width="1098.75"/>
  <unicode hex="004D"/>
  <outline>
    <contour>
      <point x="210" y="646.875" type="line"/>
      <point x="95.25" y="588.375" type="line"/>
      <point x="475" y="0" type="line"/>
      <point x="622.438" y="0" type="line"/>
    </contour>
    <contour>
      <point x="623.75" y="0" type="line"/>
      <point x="1002.188" y="588.375" type="line"/>
      <point x="888.75" y="646.875" type="line"/>
      <point x="475" y="0" type="line"/>
    </contour>
    <contour>
      <point x="1021.875" y="646.875" type="line"/>
      <point x="888.75" y="646.875" type="line"/>
      <point x="888.75" y="0" type="line"/>
      <point x="1021.875" y="0" type="line"/>
    </contour>
    <contour>
      <point x="210" y="646.875" type="line"/>
      <point x="76.875" y="646.875" type="line"/>
      <point x="76.875" y="0" type="line"/>
      <point x="210" y="0" type="line"/>
    </contour>
    <contour>
      <point x="549.375" y="0" type="move" name="bottom"/>
    </contour>
    <contour>
      <point x="549.375" y="667.5" type="move" name="top"/>
    </contour>
  </outline>
</glyph>
<glyph name="N" format="1">
  <advance width="901.25"/>
  <unicode hex="004E"/>
  <outline>
    <contour>
      <point x="210" y="646.875" type="line"/>
      <point x="108.125" y="569.625" type="line"/>
      <point x="691.25" y="0" type="line"/>
      <point x="792.438" y="74.438" type="line"/>
    </contour>
    <contour>
      <point x="824.375" y="646.875" type="line"/>
      <point x="691.25" y="646.875" type="line"/>
      <point x="691.25" y="0" type="line"/>
      <point x="824.375" y="0" type="line"/>
    </contour>
    <contour>
      <point x="210" y="646.875" type="line"/>
      <point x="76.875" y="646.875" type="line"/>
      <point x="76.875" y="0" type="line"/>
      <point x="210" y="0" type="line"/>
    </contour>
    <contour>
      <point x="459.812" y="0" type="move" name="bottom"/>
    </contour>
    <contour>
      <point x="456.688" y="634.375" type="move" name="top"/>
    </contour>
  </outline>
</glyph>
<glyph name="O" format="1">
  <advance width="924.375"/>
  <unicode hex="004F"/>
  <outline>
    <contour>
      <point x="462.188" y="-13.125" type="curve"/>
      <point x="720.812" y="-13.125"/>
      <point x="871.25" y="113.188"/>
      <point x="871.25" y="323.438" type="curve"/>
      <point x="871.25" y="533.688"/>
      <point x="720.812" y="660"/>
      <point x="462.188" y="660" type="curve"/>
      <point x="203.562" y="660"/>
      <point x="53.125" y="533.688"/>
      <point x="53.125" y="323.438" type="curve"/>
      <point x="53.125" y="113.188"/>
      <point x="203.562" y="-13.125"/>
    </contour>
    <contour>
      <point x="462.188" y="102.312" type="curve"/>
      <point x="303.375" y="102.312"/>
      <point x="189.375" y="173.562"/>
      <point x="189.375" y="323.438" type="curve"/>
      <point x="189.375" y="473.062"/>
      <point x="303.375" y="545"/>
      <point x="462.188" y="545" type="curve"/>
      <point x="621" y="545"/>
      <point x="731.875" y="473.062"/>
      <point x="731.875" y="323.438" type="curve"/>
      <point x="731.875" y="173.562"/>
      <point x="621" y="102.312"/>
    </contour>
    <contour>
      <point x="462.188" y="0" type="move" name="bottom"/>
    </contour>
    <contour>
      <point x="462.188" y="333.75" type="move" name="center"/>
    </contour>
    <contour>
      <point x="849.125" y="10" type="move" name="ogonek"/>
    </contour>
    <contour>
      <point x="462.188" y="637.5" type="move" name="top"/>
    </contour>
    <contour>
      <point x="1.25" y="680" type="move" name="topleft"/>
    </contour>
    <contour>
      <point x="920" y="680" type="move" name="topright"/>
    </contour>
  </outline>
</glyph>
<glyph name="P" format="1">
  <advance width="784.4375"/>
  <unicode hex="0050"/>
  <outline>
    <contour>
      <point x="476" y="646.875" type="curve"/>
      <point x="488.188" y="532.812" type="line"/>
      <point x="557.688" y="532.812"/>
      <point x="603.188" y="494.562"/>
      <point x="603.188" y="424.375" type="curve"/>
      <point x="603.188" y="356.25"/>
      <point x="557.688" y="315.938"/>
      <point x="488.188" y="315.938" type="curve"/>
      <point x="476" y="209.688" type="line"/>
      <point x="621" y="209.688"/>
      <point x="736.312" y="268.875"/>
      <point x="736.312" y="424.375" type="curve"/>
      <point x="736.312" y="579.875"/>
      <point x="621" y="646.875"/>
    </contour>
    <contour>
      <point x="476" y="646.875" type="line"/>
      <point x="204.75" y="646.875" type="line"/>
      <point x="204.75" y="532.812" type="line"/>
      <point x="488.188" y="532.812" type="line"/>
    </contour>
    <contour>
      <point x="488.188" y="315.938" type="line"/>
      <point x="204.75" y="315.938" type="line"/>
      <point x="204.75" y="209.688" type="line"/>
      <point x="476" y="209.688" type="line"/>
    </contour>
    <component base="fut-v" xOffset="26.250"/>
    <contour>
      <point x="388.5" y="0" type="move" name="bottom"/>
    </contour>
    <contour>
      <point x="388.5" y="680" type="move" name="top"/>
    </contour>
  </outline>
</glyph>
<glyph name="Q" format="1">
  <advance width="924.375"/>
  <unicode hex="0051"/>
  <outline>
    <contour>
      <point x="527.188" y="43.407" type="line"/>
      <point x="397.188" y="43.407" type="line"/>
      <point x="397.188" y="-199.946" type="line"/>
      <point x="527.188" y="-199.946" type="line"/>
    </contour>
    <component base="O"/>
    <contour>
      <point x="462.188" y="0" type="move" name="bottom"/>
    </contour>
    <contour>
      <point x="462.188" y="680" type="move" name="top"/>
    </contour>
  </outline>
</glyph>
<glyph name="R" format="1">
  <advance width="826.375"/>
  <unicode hex="0052"/>
  <outline>
    <contour>
      <point x="515.75" y="646.875" type="curve"/>
      <point x="515.75" y="532.812" type="line"/>
      <point x="590.607" y="532.812"/>
      <point x="630.764" y="502.188"/>
      <point x="630.764" y="443.125" type="curve"/>
      <point x="630.764" y="381.062"/>
      <point x="590.812" y="342.875"/>
      <point x="515.75" y="342.875" type="curve"/>
      <point x="503.562" y="274.688" type="line"/>
      <point x="639.188" y="274.688"/>
      <point x="763.875" y="307.312"/>
      <point x="763.875" y="450.938" type="curve"/>
      <point x="763.875" y="587.062"/>
      <point x="665.125" y="646.875"/>
    </contour>
    <contour>
      <point x="515.75" y="646.875" type="line"/>
      <point x="206.75" y="646.875" type="line"/>
      <point x="206.75" y="532.812" type="line"/>
      <point x="515.75" y="532.812" type="line"/>
    </contour>
    <contour>
      <point x="515.75" y="342.875" type="line"/>
      <point x="206.75" y="342.875" type="line"/>
      <point x="206.75" y="239.125" type="line"/>
      <point x="503.562" y="239.125" type="line"/>
    </contour>
    <contour>
      <point x="488.875" y="284.812" type="curve"/>
      <point x="460.75" y="239.125" type="line"/>
      <point x="586.375" y="239.125"/>
      <point x="616.999" y="218.563"/>
      <point x="616.999" y="144.812" type="curve"/>
      <point x="616.999" y="0" type="line"/>
      <point x="749.909" y="0" type="line"/>
      <point x="749.909" y="154.188" type="line" smooth="yes"/>
      <point x="749.909" y="274.688"/>
      <point x="666.062" y="284.812"/>
    </contour>
    <component base="fut-v" xOffset="28.250"/>
    <contour>
      <point x="404.938" y="-4.688" type="move" name="bottom"/>
    </contour>
    <contour>
      <point x="408.062" y="634.375" type="move" name="top"/>
    </contour>
  </outline>
</glyph>
<glyph name="S" format="1">
  <advance width="693.8375"/>
  <unicode hex="0053"/>
  <outline>
    <contour>
      <point x="169.33" y="218.253" type="curve"/>
      <point x="34.46" y="218.253" type="line"/>
      <point x="26.084" y="133.38"/>
      <point x="125.856" y="-13.578"/>
      <point x="365.473" y="-13.578" type="curve"/>
      <point x="565.813" y="-13.578"/>
      <point x="653.865" y="62.032"/>
      <point x="653.865" y="180.457" type="curve"/>
      <point x="653.865" y="306.79"/>
      <point x="552.298" y="349.708"/>
      <point x="401.485" y="372.168" type="curve"/>
      <point x="237.142" y="396.643"/>
      <point x="190.155" y="414.678"/>
      <point x="190.155" y="464.042" type="curve"/>
      <point x="190.155" y="524.936"/>
      <point x="251.675" y="547.976"/>
      <point x="336.607" y="547.976" type="curve"/>
      <point x="429.327" y="547.976"/>
      <point x="496.406" y="514.891"/>
      <point x="500.762" y="436.837" type="curve"/>
      <point x="631.037" y="436.837" type="line"/>
      <point x="632.699" y="574.949"/>
      <point x="528.773" y="660.099"/>
      <point x="342.387" y="660.099" type="curve"/>
      <point x="156.195" y="660.099"/>
      <point x="55.68" y="582.792"/>
      <point x="55.68" y="468.963" type="curve"/>
      <point x="55.68" y="347.181"/>
      <point x="180.39" y="293.627"/>
      <point x="326.634" y="272.886" type="curve"/>
      <point x="466.166" y="253.097"/>
      <point x="522.514" y="241.028"/>
      <point x="522.514" y="187.645" type="curve"/>
      <point x="522.514" y="132.09"/>
      <point x="474.983" y="98.422"/>
      <point x="373.909" y="98.422" type="curve"/>
      <point x="261.059" y="98.422"/>
      <point x="176.806" y="148.661"/>
    </contour>
    <contour>
      <point x="344.244" y="-4.688" type="move" name="bottom"/>
    </contour>
    <contour>
      <point x="338.744" y="637.5" type="move" name="top"/>
    </contour>
  </outline>
</glyph>
<glyph name="T" format="1">
  <advance width="721.875"/>
  <unicode hex="0054"/>
  <outline>
    <contour>
      <point x="702.188" y="646.875" type="line"/>
      <point x="19.688" y="646.875" type="line"/>
      <point x="19.688" y="535.938" type="line"/>
      <point x="702.188" y="535.938" type="line"/>
    </contour>
    <component base="fut-v" xOffset="245.750"/>
    <contour>
      <point x="360.938" y="0" type="move" name="bottom"/>
    </contour>
    <contour>
      <point x="360.938" y="340" type="move" name="center"/>
    </contour>
    <contour>
      <point x="360.938" y="634.375" type="move" name="top"/>
    </contour>
  </outline>
</glyph>
<glyph name="U" format="1">
  <advance width="880.625"/>
  <unicode hex="0055"/>
  <outline>
    <contour>
      <point x="803.75" y="271.875" type="curve"/>
      <point x="670.625" y="285.938" type="line"/>
      <point x="670.625" y="133.812"/>
      <point x="571.438" y="101.938"/>
      <point x="441.5" y="101.938" type="curve"/>
      <point x="307.625" y="101.938"/>
      <point x="210" y="133.812"/>
      <point x="210" y="285.938" type="curve"/>
      <point x="76.875" y="271.875" type="line"/>
      <point x="76.875" y="56.625"/>
      <point x="238.562" y="-13.125"/>
      <point x="441.5" y="-13.125" type="curve"/>
      <point x="637.062" y="-13.125"/>
      <point x="803.75" y="56.625"/>
    </contour>
    <contour>
      <point x="803.75" y="646.875" type="line"/>
      <point x="670.625" y="646.875" type="line"/>
      <point x="670.625" y="285.938" type="line"/>
      <point x="803.75" y="271.875" type="line"/>
    </contour>
    <contour>
      <point x="210" y="646.875" type="line"/>
      <point x="76.875" y="646.875" type="line"/>
      <point x="76.875" y="271.875" type="line"/>
      <point x="210" y="285.938" type="line"/>
    </contour>
    <contour>
      <point x="439.984" y="-4.688" type="move" name="bottom"/>
    </contour>
    <contour>
      <point x="735.625" y="-4.688" type="move" name="ogonek"/>
    </contour>
    <contour>
      <point x="441.5" y="634.375" type="move" name="top"/>
    </contour>
    <contour>
      <point x="828.625" y="680" type="move" name="topright"/>
    </contour>
  </outline>
</glyph>
<glyph name="V" format="1">
  <advance width="775"/>
  <unicode hex="0056"/>
  <outline>
    <contour>
      <point x="305.562" y="0" type="line"/>
      <point x="472.062" y="0" type="line"/>
      <point x="472.062" y="0"/>
      <point x="755" y="646.875"/>
      <point x="755" y="646.875" type="curve"/>
      <point x="610.375" y="646.875" type="line"/>
      <point x="610.375" y="646.875"/>
      <point x="364.375" y="57.562"/>
      <point x="364.375" y="57.562" type="curve"/>
      <point x="356" y="46.562" type="line"/>
    </contour>
    <contour>
      <point x="20" y="646.875" type="line"/>
      <point x="305.562" y="0" type="line"/>
      <point x="472.062" y="0" type="line"/>
      <point x="422.938" y="43.562" type="line"/>
      <point x="413.25" y="57.562" type="line"/>
      <point x="167.25" y="646.875" type="line"/>
    </contour>
    <contour>
      <point x="387.5" y="0" type="move" name="bottom"/>
    </contour>
    <contour>
      <point x="387.5" y="680" type="move" name="top"/>
    </contour>
  </outline>
</glyph>
<glyph name="W" format="1">
  <advance width="1300.375"/>
  <unicode hex="0057"/>
  <outline>
    <contour>
      <point x="875" y="0" type="line"/>
      <point x="1010.25" y="0" type="line"/>
      <point x="1280.375" y="646.875" type="line"/>
      <point x="1135.75" y="646.875" type="line"/>
    </contour>
    <contour>
      <point x="597.25" y="646.875" type="line"/>
      <point x="846.875" y="0" type="line"/>
      <point x="975.875" y="0" type="line"/>
      <point x="728.25" y="646.875" type="line"/>
    </contour>
    <contour>
      <point x="327.125" y="0" type="line"/>
      <point x="456.125" y="0" type="line"/>
      <point x="705.75" y="646.875" type="line"/>
      <point x="574.75" y="646.875" type="line"/>
    </contour>
    <contour>
      <point x="20" y="646.875" type="line"/>
      <point x="292.75" y="0" type="line"/>
      <point x="428" y="0" type="line"/>
      <point x="167.25" y="646.875" type="line"/>
    </contour>
    <contour>
      <point x="606.267" y="0" type="move" name="bottom"/>
    </contour>
    <contour>
      <point x="654.392" y="650" type="move" name="top"/>
    </contour>
  </outline>
</glyph>
<glyph name="X" format="1">
  <advance width="779.75"/>
  <unicode hex="0058"/>
  <outline>
    <contour>
      <point x="737.688" y="646.875" type="line"/>
      <point x="575.812" y="646.875" type="line"/>
      <point x="357.21" y="378" type="line"/>
      <point x="353.538" y="374.604" type="line"/>
      <point x="38.938" y="0" type="line"/>
      <point x="200.812" y="0" type="line"/>
      <point x="427.502" y="285.585" type="line"/>
      <point x="431.915" y="290.286" type="line"/>
    </contour>
    <contour>
      <point x="426.518" y="376.397" type="line"/>
      <point x="210.812" y="646.875" type="line"/>
      <point x="48.938" y="646.875" type="line"/>
      <point x="345.095" y="292.345" type="line"/>
      <point x="347.627" y="289.966" type="line"/>
      <point x="572.062" y="0" type="line"/>
      <point x="740.812" y="0" type="line"/>
      <point x="429.046" y="373.403" type="line"/>
    </contour>
    <contour>
      <point x="386.75" y="0" type="move" name="bottom"/>
    </contour>
    <contour>
      <point x="386.75" y="680" type="move" name="top"/>
    </contour>
  </outline>
</glyph>
<glyph name="Y" format="1">
  <advance width="740"/>
  <unicode hex="0059"/>
  <outline>
    <contour>
      <point x="436.562" y="203.961" type="line"/>
      <point x="721.25" y="646.875" type="line"/>
      <point x="567.188" y="646.875" type="line"/>
      <point x="331.679" y="259.704" type="line"/>
      <point x="412.092" y="259.859" type="line"/>
      <point x="172.812" y="646.875" type="line"/>
      <point x="18.75" y="646.875" type="line"/>
      <point x="303.438" y="203.961" type="line"/>
      <point x="303.438" y="0" type="line"/>
      <point x="436.562" y="0" type="line"/>
    </contour>
    <contour>
      <point x="370" y="0" type="move" name="bottom"/>
    </contour>
    <contour>
      <point x="370" y="634.375" type="move" name="top"/>
    </contour>
    <contour>
      <point x="-1.438" y="680" type="move" name="topleft"/>
    </contour>
  </outline>
</glyph>
<glyph name="Z" format="1">
  <advance width="821.25"/>
  <unicode hex="005A"/>
  <outline>
    <contour>
      <point x="758.438" y="535.938" type="line"/>
      <point x="678.562" y="603.625" type="line"/>
      <point x="62.812" y="110.938" type="line"/>
      <point x="129.375" y="33.125" type="line"/>
    </contour>
    <contour>
      <point x="758.438" y="0" type="line"/>
      <point x="758.438" y="110.938" type="line"/>
      <point x="62.812" y="110.938" type="line"/>
      <point x="62.812" y="0" type="line"/>
    </contour>
    <contour>
      <point x="758.438" y="535.938" type="line"/>
      <point x="758.438" y="646.875" type="line"/>
      <point x="62.812" y="646.875" type="line"/>
      <point x="62.812" y="535.938" type="line"/>
    </contour>
    <contour>
      <point x="410.625" y="0" type="move" name="bottom"/>
    </contour>
    <contour>
      <point x="410.625" y="650" type="move" name="top"/>
    </contour>
  </outline>
</glyph>
<glyph name="bracketleft" format="1">
  <advance width="407.6875"/>
  <unicode hex="005B"/>
  <outline>
    <contour>
      <point x="349.062" y="-183.938" type="line"/>
      <point x="349.062" y="-82.062" type="line"/>
      <point x="190.5" y="-82.062" type="line"/>
      <point x="190.5" y="698.125" type="line"/>
      <point x="349.062" y="698.125" type="line"/>
      <point x="349.062" y="800" type="line"/>
      <point x="88.625" y="800" type="line"/>
      <point x="88.625" y="-183.938" type="line"/>
    </contour>
  </outline>
</glyph>
<glyph name="bracketright" format="1">
  <advance width="410.4375"/>
  <unicode hex="005D"/>
  <outline>
    <contour>
      <point x="218.562" y="-81.375" type="line"/>
      <point x="60" y="-81.375" type="line"/>
      <point x="60" y="-183.25" type="line"/>
      <point x="320.438" y="-183.25" type="line"/>
      <point x="320.438" y="800" type="line"/>
      <point x="60" y="800" type="line"/>
      <point x="60" y="698.125" type="line"/>
      <point x="218.562" y="698.125" type="line"/>
    </contour>
  </outline>
</glyph>
<glyph name="underscore" format="1">
  <advance width="849.375"/>
  <unicode hex="005F"/>
  <outline>
    <contour>
      <point x="778.75" y="-100.031" type="line"/>
      <point x="70.625" y="-100.031" type="line"/>
      <point x="70.625" y="-199.844" type="line"/>
      <point x="778.75" y="-199.844" type="line"/>
    </contour>
  </outline>
</glyph>
<glyph name="a" format="1">
  <advance width="722"/>
  <unicode hex="0061"/>
  <outline>
    <contour>
      <point x="302.125" y="-11.25" type="curve"/>
      <point x="477.5" y="-11.25"/>
      <point x="547.75" y="129.851"/>
      <point x="547.75" y="247.75" type="curve"/>
      <point x="547.75" y="394.244"/>
      <point x="480.014" y="508.438"/>
      <point x="309" y="508.438" type="curve"/>
      <point x="153.648" y="508.438"/>
      <point x="36.375" y="404.677"/>
      <point x="36.375" y="247.75" type="curve"/>
      <point x="36.375" y="92.688"/>
      <point x="153.5" y="-11.25"/>
    </contour>
    <contour>
      <point x="344" y="89.188" type="curve"/>
      <point x="238.938" y="89.188"/>
      <point x="169.188" y="152"/>
      <point x="169.188" y="247.75" type="curve"/>
      <point x="169.188" y="343.812"/>
      <point x="232.75" y="407"/>
      <point x="344" y="407" type="curve"/>
      <point x="460.616" y="407"/>
      <point x="534.625" y="349.938"/>
      <point x="534.625" y="247.75" type="curve"/>
      <point x="534.625" y="152.75"/>
      <point x="461.739" y="89.188"/>
    </contour>
    <contour>
      <point x="664.625" y="496.875" type="line"/>
      <point x="534.625" y="496.875" type="line"/>
      <point x="534.625" y="128.125" type="line"/>
      <point x="534.625" y="68.875"/>
      <point x="543.812" y="0"/>
      <point x="543.812" y="0" type="curve"/>
      <point x="664.625" y="0" type="line"/>
    </contour>
    <contour>
      <point x="227.188" y="-10" type="move" name="bottom"/>
    </contour>
    <contour>
      <point x="337.494" y="250" type="move" name="center"/>
    </contour>
    <contour>
      <point x="598.57" y="0" type="move" name="ogonek"/>
    </contour>
    <contour>
      <point x="344" y="510" type="move" name="top"/>
    </contour>
    <contour>
      <point x="724.625" y="500" type="move" name="topright"/>
    </contour>
  </outline>
</glyph>
<glyph name="b" format="1">
  <advance width="744.625"/>
  <unicode hex="0062"/>
  <outline>
    <component base="d" xScale="-1" xOffset="744.625"/>
    <contour>
      <point x="351.75" y="-10" type="move" name="bottom"/>
    </contour>
    <contour>
      <point x="402.938" y="510" type="move" name="top"/>
    </contour>
  </outline>
</glyph>
<glyph name="c" format="1">
  <advance width="686.19687"/>
  <unicode hex="0063"/>
  <outline>
    <contour>
      <point x="649.817" y="196.042" type="curve"/>
      <point x="531.319" y="196.042" type="line"/>
      <point x="508.502" y="127.483"/>
      <point x="448.877" y="88.438"/>
      <point x="356.375" y="88.438" type="curve"/>
      <point x="250.688" y="88.438"/>
      <point x="167.938" y="140.938"/>
      <point x="167.938" y="247.438" type="curve"/>
      <point x="167.938" y="353.938"/>
      <point x="252" y="408.438"/>
      <point x="356.375" y="408.438" type="curve"/>
      <point x="441.967" y="408.438"/>
      <point x="507.495" y="369.046"/>
      <point x="530.254" y="301.678" type="curve"/>
      <point x="648.992" y="301.678" type="line"/>
      <point x="637.404" y="430.613"/>
      <point x="530.993" y="508.438"/>
      <point x="356.375" y="508.438" type="curve"/>
      <point x="170.812" y="508.438"/>
      <point x="36.375" y="416.812"/>
      <point x="36.375" y="247.438" type="curve"/>
      <point x="36.375" y="77.375"/>
      <point x="170.812" y="-11.562"/>
      <point x="356.375" y="-11.562" type="curve"/>
      <point x="531.617" y="-11.562"/>
      <point x="639.579" y="65.245"/>
    </contour>
    <contour>
      <point x="355.062" y="-10" type="move" name="bottom"/>
    </contour>
    <contour>
      <point x="355.062" y="250" type="move" name="center"/>
    </contour>
    <contour>
      <point x="469.25" y="10" type="move" name="ogonek"/>
    </contour>
    <contour>
      <point x="348.5" y="510" type="move" name="top"/>
    </contour>
    <contour>
      <point x="701.562" y="500" type="move" name="topright"/>
    </contour>
  </outline>
</glyph>
<glyph name="d" format="1">
  <advance width="744.625"/>
  <unicode hex="0064"/>
  <outline>
    <contour>
      <point x="302.125" y="-11.25" type="curve"/>
      <point x="477.5" y="-11.25"/>
      <point x="547.75" y="129.851"/>
      <point x="547.75" y="247.75" type="curve"/>
      <point x="547.75" y="394.244"/>
      <point x="480.014" y="508.438"/>
      <point x="302.125" y="508.438" type="curve"/>
      <point x="148.148" y="508.438"/>
      <point x="36.375" y="404.677"/>
      <point x="36.375" y="247.75" type="curve"/>
      <point x="36.375" y="92.688"/>
      <point x="151.438" y="-11.25"/>
    </contour>
    <contour>
      <point x="344" y="89.188" type="curve"/>
      <point x="238.938" y="89.188"/>
      <point x="169.188" y="152"/>
      <point x="169.188" y="247.75" type="curve"/>
      <point x="169.188" y="343.812"/>
      <point x="232.75" y="407.688"/>
      <point x="344" y="407.688" type="curve"/>
      <point x="460.616" y="407.688"/>
      <point x="534.625" y="349.938"/>
      <point x="534.625" y="247.75" type="curve"/>
      <point x="534.625" y="152.75"/>
      <point x="461.739" y="89.188"/>
    </contour>
    <contour>
      <point x="664.625" y="697.088" type="line"/>
      <point x="534.625" y="697.088" type="line"/>
      <point x="534.625" y="128.125" type="line"/>
      <point x="534.625" y="68.875"/>
      <point x="543.812" y="0"/>
      <point x="543.812" y="0" type="curve"/>
      <point x="664.625" y="0" type="line"/>
    </contour>
    <contour>
      <point x="349.125" y="-10" type="move" name="bottom"/>
    </contour>
    <contour>
      <point x="353.119" y="250" type="move" name="center"/>
    </contour>
    <contour>
      <point x="593.25" y="0" type="move" name="ogonek"/>
    </contour>
    <contour>
      <point x="343.875" y="510" type="move" name="top"/>
    </contour>
    <contour>
      <point x="740.25" y="500" type="move" name="topright"/>
    </contour>
  </outline>
</glyph>
<glyph name="e" format="1">
  <advance width="678.24313"/>
  <unicode hex="0065"/>
  <outline>
    <contour>
      <point x="638.863" y="165.365" type="curve"/>
      <point x="513.302" y="165.365" type="line"/>
      <point x="497.101" y="119.926"/>
      <point x="438.099" y="88"/>
      <point x="355.562" y="88" type="curve"/>
      <point x="243.152" y="88"/>
      <point x="176.948" y="147.248"/>
      <point x="167.457" y="224.375" type="curve"/>
      <point x="641.375" y="224.375" type="line"/>
      <point x="649.727" y="417.359"/>
      <point x="549.642" y="508.438"/>
      <point x="355.25" y="508.438" type="curve"/>
      <point x="162.812" y="508.438"/>
      <point x="36.375" y="410.562"/>
      <point x="36.375" y="247.438" type="curve"/>
      <point x="36.375" y="82.688"/>
      <point x="168.062" y="-11.562"/>
      <point x="358.688" y="-11.562" type="curve"/>
      <point x="527.598" y="-11.562"/>
      <point x="621.708" y="62.686"/>
    </contour>
    <contour>
      <point x="348.688" y="408.562" type="curve"/>
      <point x="446.302" y="408.562"/>
      <point x="504.744" y="366.414"/>
      <point x="512.421" y="299.781" type="curve"/>
      <point x="173.505" y="299.781" type="line"/>
      <point x="190.825" y="361.309"/>
      <point x="252.972" y="408.562"/>
    </contour>
    <contour>
      <point x="361.812" y="0" type="move" name="bottom"/>
    </contour>
    <contour>
      <point x="571.14" y="-0.227" type="move" name="ogonek"/>
    </contour>
    <contour>
      <point x="352.125" y="510" type="move" name="top"/>
    </contour>
  </outline>
</glyph>
<glyph name="f" format="1">
  <advance width="445.59125"/>
  <unicode hex="0066"/>
  <outline>
    <contour>
      <point x="137.122" y="523.75" type="line"/>
      <point x="137.122" y="0" type="line"/>
      <point x="267.122" y="0" type="line"/>
      <point x="267.122" y="508.125" type="line"/>
    </contour>
    <contour>
      <point x="432.472" y="696.875" type="line"/>
      <point x="328.998" y="696.875" type="line"/>
      <point x="203.998" y="696.875"/>
      <point x="137.122" y="643.75"/>
      <point x="137.122" y="523.75" type="curve"/>
      <point x="267.122" y="508.125" type="line"/>
      <point x="267.122" y="576.403"/>
      <point x="300.872" y="593.247"/>
      <point x="360.248" y="591.875" type="curve"/>
      <point x="432.472" y="591.875" type="line"/>
    </contour>
    <contour>
      <point x="425.248" y="487.5" type="line"/>
      <point x="24.998" y="487.5" type="line"/>
      <point x="24.998" y="389.062" type="line"/>
      <point x="425.248" y="389.062" type="line"/>
    </contour>
    <contour>
      <point x="251.998" y="0" type="move" name="bottom"/>
    </contour>
    <contour>
      <point x="251.998" y="500" type="move" name="top"/>
    </contour>
  </outline>
</glyph>
<glyph name="g" format="1">
  <advance width="671.26813"/>
  <unicode hex="0067"/>
  <outline>
    <contour>
      <point x="308.206" y="76.208" type="curve"/>
      <point x="474.019" y="76.208"/>
      <point x="577.89" y="152.118"/>
      <point x="577.89" y="283.16" type="curve"/>
      <point x="577.89" y="380.37"/>
      <point x="481.502" y="437.345"/>
      <point x="398.869" y="468.943" type="curve"/>
      <point x="397.829" y="496.457" type="line"/>
      <point x="369.457" y="504.317"/>
      <point x="339.18" y="508.438"/>
      <point x="308.206" y="508.438" type="curve"/>
      <point x="141.3" y="508.438"/>
      <point x="36.38" y="422.743"/>
      <point x="36.38" y="289.41" type="curve"/>
      <point x="36.38" y="152.118"/>
      <point x="145.238" y="76.208"/>
    </contour>
    <contour>
      <point x="308.169" y="169.696" type="curve"/>
      <point x="220.303" y="169.696"/>
      <point x="162.543" y="213.045"/>
      <point x="162.543" y="288.338" type="curve"/>
      <point x="162.543" y="363.631"/>
      <point x="221.353" y="408.909"/>
      <point x="308.169" y="408.909" type="curve"/>
      <point x="394.986" y="408.909"/>
      <point x="451.571" y="362.843"/>
      <point x="451.571" y="288.338" type="curve"/>
      <point x="451.571" y="213.045"/>
      <point x="393.935" y="169.696"/>
    </contour>
    <contour>
      <point x="646.438" y="397.964" type="curve"/>
      <point x="646.438" y="496.464" type="line"/>
      <point x="340.714" y="496.562" type="line"/>
      <point x="365.755" y="479.408" type="line"/>
      <point x="365.755" y="479.408"/>
      <point x="515.958" y="394.839"/>
    </contour>
    <contour>
      <point x="393.438" y="-0.016" type="curve"/>
      <point x="230.113" y="0" type="line"/>
      <point x="199.552" y="0"/>
      <point x="183.757" y="11.782"/>
      <point x="183.757" y="32.145" type="curve"/>
      <point x="183.757" y="65.374"/>
      <point x="223.712" y="73.345"/>
      <point x="308.206" y="76.208" type="curve"/>
      <point x="245.206" y="87.208" type="line"/>
      <point x="138.416" y="93.725"/>
      <point x="52.351" y="74.958"/>
      <point x="52.351" y="-4.167" type="curve"/>
      <point x="52.351" y="-58.167"/>
      <point x="89.175" y="-98.891"/>
      <point x="209.738" y="-98.891" type="curve"/>
      <point x="365.313" y="-98.891" type="line"/>
      <point x="433.001" y="-98.891"/>
      <point x="475.313" y="-119.754"/>
      <point x="475.313" y="-181.141" type="curve"/>
      <point x="475.313" y="-204.703" type="line"/>
      <point x="605.313" y="-204.703" type="line"/>
      <point x="605.313" y="-158.016" type="line"/>
      <point x="605.313" y="-38.016"/>
      <point x="526.813" y="-0.016"/>
    </contour>
    <contour>
      <point x="311.566" y="-210" type="move" name="bottom"/>
    </contour>
    <contour>
      <point x="307.103" y="250" type="move" name="center"/>
    </contour>
    <contour>
      <point x="421.291" y="10" type="move" name="ogonek"/>
    </contour>
    <contour>
      <point x="308.196" y="510" type="move" name="top"/>
    </contour>
    <contour>
      <point x="653.603" y="500" type="move" name="topright"/>
    </contour>
  </outline>
</glyph>
<glyph name="h" format="1">
  <advance width="701.375"/>
  <unicode hex="0068"/>
  <outline>
    <contour>
      <point x="198.75" y="696.766" type="line"/>
      <point x="68.75" y="696.766" type="line"/>
      <point x="68.75" y="0" type="line"/>
      <point x="198.75" y="0" type="line"/>
    </contour>
    <contour>
      <point x="644" y="317.75" type="line"/>
      <point x="514" y="272.75" type="line"/>
      <point x="514" y="0" type="line"/>
      <point x="644" y="0" type="line"/>
    </contour>
    <contour>
      <point x="514" y="272.75" type="curve"/>
      <point x="644" y="317.75" type="line"/>
      <point x="644" y="446.085"/>
      <point x="551.771" y="508.438"/>
      <point x="429.5" y="508.438" type="curve"/>
      <point x="288.441" y="508.438"/>
      <point x="203.802" y="410.517"/>
      <point x="190.875" y="321.875" type="curve"/>
      <point x="192.188" y="267" type="line"/>
      <point x="198.361" y="331.996"/>
      <point x="276.272" y="395.625"/>
      <point x="374.125" y="395.625" type="curve"/>
      <point x="475.287" y="395.625"/>
      <point x="514" y="353.746"/>
    </contour>
    <contour>
      <point x="356.375" y="0" type="move" name="bottom"/>
    </contour>
    <contour>
      <point x="253.361" y="348.339" type="move" name="center"/>
    </contour>
    <contour>
      <point x="396.062" y="510" type="move" name="top"/>
    </contour>
  </outline>
</glyph>
<glyph name="i" format="1">
  <advance width="267.67437"/>
  <unicode hex="0069"/>
  <outline>
    <contour>
      <point x="209.238" y="600.784" type="line"/>
      <point x="209.238" y="715.091" type="line"/>
      <point x="58.434" y="715.091" type="line"/>
      <point x="58.434" y="600.784" type="line"/>
    </contour>
    <component base="idotless" xOffset="10.399"/>
    <contour>
      <point x="133.836" y="0" type="move" name="bottom"/>
    </contour>
  </outline>
</glyph>
<glyph name="j" format="1">
  <advance width="267.68125"/>
  <unicode hex="006A"/>
  <outline>
    <contour>
      <point x="199.525" y="496.875" type="line"/>
      <point x="69.525" y="496.875" type="line"/>
      <point x="69.525" y="-200" type="line"/>
      <point x="199.525" y="-200" type="line"/>
    </contour>
    <contour>
      <point x="209.24" y="600.784" type="line"/>
      <point x="209.24" y="715.091" type="line"/>
      <point x="58.436" y="715.091" type="line"/>
      <point x="58.436" y="600.784" type="line"/>
    </contour>
  </outline>
</glyph>
<glyph name="k" format="1">
  <advance width="649.125"/>
  <unicode hex="006B"/>
  <outline>
    <contour>
      <point x="198.75" y="696.875" type="line"/>
      <point x="68.75" y="696.875" type="line"/>
      <point x="68.75" y="0" type="line"/>
      <point x="198.75" y="0" type="line"/>
    </contour>
    <contour>
      <point x="640.688" y="0.375" type="line"/>
      <point x="341.312" y="300" type="line"/>
      <point x="201.518" y="278.534" type="line"/>
      <point x="475.562" y="0.375" type="line"/>
    </contour>
    <contour>
      <point x="618.375" y="496.875" type="line"/>
      <point x="440.625" y="496.875" type="line"/>
      <point x="201.518" y="278.534" type="line"/>
      <point x="321.885" y="236.912" type="line"/>
    </contour>
    <contour>
      <point x="323.875" y="0" type="move" name="bottom"/>
    </contour>
    <contour>
      <point x="327" y="500" type="move" name="top"/>
    </contour>
  </outline>
</glyph>
<glyph name="l" format="1">
  <advance width="270.625"/>
  <unicode hex="006C"/>
  <outline>
    <contour>
      <point x="200.312" y="696.875" type="line"/>
      <point x="70.312" y="696.875" type="line"/>
      <point x="70.312" y="0" type="line"/>
      <point x="200.312" y="0" type="line"/>
    </contour>
    <contour>
      <point x="136.041" y="0" type="move" name="bottom"/>
    </contour>
    <contour>
      <point x="143.188" y="371.114" type="move" name="center"/>
    </contour>
    <contour>
      <point x="139.709" y="700" type="move" name="top"/>
    </contour>
    <contour>
      <point x="327.812" y="481.562" type="move" name="topright"/>
    </contour>
  </outline>
</glyph>
<glyph name="m" format="1">
  <advance width="1125.9475"/>
  <unicode hex="006D"/>
  <outline>
    <contour>
      <point x="1068.569" y="303.688" type="line"/>
      <point x="938.569" y="280.562" type="line"/>
      <point x="938.569" y="0" type="line"/>
      <point x="1068.569" y="0" type="line"/>
    </contour>
    <contour>
      <point x="938.569" y="280.562" type="curve"/>
      <point x="1068.569" y="303.688" type="line"/>
      <point x="1068.569" y="444.523"/>
      <point x="976.339" y="508.438"/>
      <point x="854.069" y="508.438" type="curve"/>
      <point x="719.26" y="508.438"/>
      <point x="628.37" y="412.08"/>
      <point x="615.444" y="323.438" type="curve"/>
      <point x="616.756" y="268.562" type="line"/>
      <point x="622.93" y="333.559"/>
      <point x="703.966" y="403.438"/>
      <point x="808.069" y="403.438" type="curve"/>
      <point x="899.856" y="403.438"/>
      <point x="938.569" y="364.684"/>
    </contour>
    <component base="n"/>
    <contour>
      <point x="584.062" y="0" type="move" name="bottom"/>
    </contour>
    <contour>
      <point x="622.125" y="500" type="move" name="top"/>
    </contour>
  </outline>
</glyph>
<glyph name="n" format="1">
  <advance width="692.62"/>
  <unicode hex="006E"/>
  <outline>
    <contour>
      <point x="189.995" y="496.875" type="line"/>
      <point x="59.995" y="496.875" type="line"/>
      <point x="59.995" y="0" type="line"/>
      <point x="189.995" y="0" type="line"/>
    </contour>
    <contour>
      <point x="635.245" y="303.688" type="line"/>
      <point x="505.245" y="280.562" type="line"/>
      <point x="505.245" y="0" type="line"/>
      <point x="635.245" y="0" type="line"/>
    </contour>
    <contour>
      <point x="505.245" y="280.562" type="curve"/>
      <point x="635.245" y="303.688" type="line"/>
      <point x="635.245" y="444.523"/>
      <point x="543.016" y="508.438"/>
      <point x="420.745" y="508.438" type="curve"/>
      <point x="279.686" y="508.438"/>
      <point x="195.047" y="412.08"/>
      <point x="182.12" y="320.312" type="curve"/>
      <point x="183.432" y="268.562" type="line"/>
      <point x="189.606" y="333.559"/>
      <point x="270.642" y="403.438"/>
      <point x="374.745" y="403.438" type="curve"/>
      <point x="466.532" y="403.438"/>
      <point x="505.245" y="364.684"/>
    </contour>
    <contour>
      <point x="347.62" y="0" type="move" name="bottom"/>
    </contour>
    <contour>
      <point x="380.432" y="510" type="move" name="top"/>
    </contour>
  </outline>
</glyph>
<glyph name="o" format="1">
  <advance width="703.875"/>
  <unicode hex="006F"/>
  <outline>
    <contour>
      <point x="353.25" y="-11.562" type="curve"/>
      <point x="540" y="-11.562"/>
      <point x="667.5" y="78.625"/>
      <point x="667.5" y="247.438" type="curve"/>
      <point x="667.5" y="415.25"/>
      <point x="540" y="508.438"/>
      <point x="353.25" y="508.438" type="curve"/>
      <point x="165.188" y="508.438"/>
      <point x="36.375" y="415.25"/>
      <point x="36.375" y="247.438" type="curve"/>
      <point x="36.375" y="78.625"/>
      <point x="165.188" y="-11.562"/>
    </contour>
    <contour>
      <point x="353.25" y="88.25" type="curve"/>
      <point x="247" y="88.25"/>
      <point x="167.938" y="144.5"/>
      <point x="167.938" y="247.438" type="curve"/>
      <point x="167.938" y="350.375"/>
      <point x="248.312" y="408.625"/>
      <point x="353.25" y="408.625" type="curve"/>
      <point x="458.188" y="408.625"/>
      <point x="535.938" y="349.375"/>
      <point x="535.938" y="247.438" type="curve"/>
      <point x="535.938" y="144.5"/>
      <point x="456.875" y="88.25"/>
    </contour>
    <contour>
      <point x="353.25" y="-10" type="move" name="bottom"/>
    </contour>
    <contour>
      <point x="351.938" y="250" type="move" name="center"/>
    </contour>
    <contour>
      <point x="466.125" y="10" type="move" name="ogonek"/>
    </contour>
    <contour>
      <point x="353.25" y="510" type="move" name="top"/>
    </contour>
    <contour>
      <point x="698.438" y="500" type="move" name="topright"/>
    </contour>
  </outline>
</glyph>
<glyph name="p" format="1">
  <advance width="724.27625"/>
  <unicode hex="0070"/>
  <outline>
    <contour>
      <point x="422.151" y="-11.562" type="curve"/>
      <point x="569.254" y="-11.562"/>
      <point x="687.901" y="90.135"/>
      <point x="687.901" y="247.75" type="curve"/>
      <point x="687.901" y="402.125"/>
      <point x="571.464" y="508.125"/>
      <point x="422.151" y="508.125" type="curve"/>
      <point x="244.263" y="508.125"/>
      <point x="176.526" y="393.932"/>
      <point x="176.526" y="247.75" type="curve"/>
      <point x="176.526" y="129.538"/>
      <point x="246.776" y="-11.562"/>
    </contour>
    <contour>
      <point x="380.276" y="89.188" type="curve"/>
      <point x="262.537" y="89.188"/>
      <point x="189.651" y="152.438"/>
      <point x="189.651" y="247.75" type="curve"/>
      <point x="189.651" y="349.625"/>
      <point x="272.598" y="407.688"/>
      <point x="380.276" y="407.688" type="curve"/>
      <point x="491.526" y="407.688"/>
      <point x="555.089" y="343.5"/>
      <point x="555.089" y="247.75" type="curve"/>
      <point x="555.089" y="151.688"/>
      <point x="486.026" y="89.188"/>
    </contour>
    <contour>
      <point x="183.558" y="496.875" type="line"/>
      <point x="59.995" y="496.875" type="line"/>
      <point x="59.995" y="-199.998" type="line"/>
      <point x="189.995" y="-199.998" type="line"/>
      <point x="189.995" y="365.49" type="line"/>
    </contour>
    <contour>
      <point x="392.528" y="-10" type="move" name="bottom"/>
    </contour>
    <contour>
      <point x="387.278" y="510" type="move" name="top"/>
    </contour>
  </outline>
</glyph>
<glyph name="q" format="1">
  <advance width="744.625"/>
  <unicode hex="0071"/>
  <outline>
    <contour>
      <point x="302.125" y="-11.562" type="curve"/>
      <point x="477.5" y="-11.562"/>
      <point x="547.75" y="129.538"/>
      <point x="547.75" y="247.75" type="curve"/>
      <point x="547.75" y="393.932"/>
      <point x="480.014" y="508.125"/>
      <point x="302.125" y="508.125" type="curve"/>
      <point x="153.5" y="508.125"/>
      <point x="36.375" y="402.125"/>
      <point x="36.375" y="247.75" type="curve"/>
      <point x="36.375" y="90.135"/>
      <point x="153.648" y="-11.562"/>
    </contour>
    <contour>
      <point x="344" y="89.188" type="curve"/>
      <point x="238.938" y="89.188"/>
      <point x="169.188" y="151.688"/>
      <point x="169.188" y="247.75" type="curve"/>
      <point x="169.188" y="343.5"/>
      <point x="232.75" y="407.688"/>
      <point x="344" y="407.688" type="curve"/>
      <point x="460.616" y="407.688"/>
      <point x="534.625" y="349.625"/>
      <point x="534.625" y="247.75" type="curve"/>
      <point x="534.625" y="152.438"/>
      <point x="461.739" y="89.188"/>
    </contour>
    <contour>
      <point x="664.625" y="-199.998" type="line"/>
      <point x="664.625" y="496.875" type="line"/>
      <point x="539" y="496.875" type="line"/>
      <point x="534.625" y="373.562" type="line"/>
      <point x="534.625" y="-199.998" type="line"/>
    </contour>
    <contour>
      <point x="338.812" y="-10" type="move" name="bottom"/>
    </contour>
    <contour>
      <point x="333.562" y="510" type="move" name="top"/>
    </contour>
  </outline>
</glyph>
<glyph name="r" format="1">
  <advance width="400.6225"/>
  <unicode hex="0072"/>
  <outline>
    <contour>
      <point x="189.995" y="496.875" type="line"/>
      <point x="59.995" y="496.875" type="line"/>
      <point x="59.995" y="0" type="line"/>
      <point x="189.995" y="0" type="line"/>
    </contour>
    <contour>
      <point x="380.62" y="389.562" type="curve"/>
      <point x="380.62" y="508.438" type="line"/>
      <point x="233.932" y="508.438"/>
      <point x="185.245" y="352.438"/>
      <point x="182.12" y="310.938" type="curve"/>
      <point x="183.432" y="256.062" type="line"/>
      <point x="183.432" y="256.062"/>
      <point x="228.12" y="389.562"/>
    </contour>
    <contour>
      <point x="125.507" y="0" type="move" name="bottom"/>
    </contour>
    <contour>
      <point x="235.848" y="510" type="move" name="top"/>
    </contour>
  </outline>
</glyph>
<glyph name="s" format="1">
  <advance width="563.645"/>
  <unicode hex="0073"/>
  <outline>
    <contour>
      <point x="160.213" y="165.489" type="curve"/>
      <point x="40.275" y="165.489" type="line"/>
      <point x="33.178" y="118.452"/>
      <point x="86.41" y="-11.874"/>
      <point x="296.808" y="-11.874" type="curve"/>
      <point x="438.132" y="-11.874"/>
      <point x="525.207" y="41.087"/>
      <point x="525.207" y="137.326" type="curve"/>
      <point x="525.207" y="241.608"/>
      <point x="429.238" y="263.901"/>
      <point x="325.72" y="285.738" type="curve"/>
      <point x="234.161" y="301.179"/>
      <point x="187.833" y="310.219"/>
      <point x="187.833" y="351.908" type="curve"/>
      <point x="187.833" y="386.562"/>
      <point x="222.439" y="408.25"/>
      <point x="286.674" y="408.25" type="curve"/>
      <point x="352.762" y="408.25"/>
      <point x="382.121" y="386.954"/>
      <point x="393.077" y="338.26" type="curve"/>
      <point x="508.098" y="338.26" type="line"/>
      <point x="507.063" y="437.732"/>
      <point x="434.6" y="508.438"/>
      <point x="287.263" y="508.438" type="curve"/>
      <point x="155.138" y="508.438"/>
      <point x="54.707" y="453.587"/>
      <point x="54.707" y="358.024" type="curve"/>
      <point x="54.707" y="258.179"/>
      <point x="157.026" y="228.801"/>
      <point x="269.894" y="210.051" type="curve"/>
      <point x="353.029" y="197.407"/>
      <point x="392.082" y="187.828"/>
      <point x="392.082" y="145.661" type="curve"/>
      <point x="392.082" y="111.125"/>
      <point x="371.87094" y="88.129"/>
      <point x="296.082" y="88.129" type="curve"/>
      <point x="220.55844" y="88.129"/>
      <point x="174.263" y="120.051"/>
    </contour>
    <contour>
      <point x="304.02" y="-10" type="move" name="bottom"/>
    </contour>
    <contour>
      <point x="280.395" y="510" type="move" name="top"/>
    </contour>
  </outline>
</glyph>
<glyph name="t" format="1">
  <advance width="434.31"/>
  <unicode hex="0074"/>
  <outline>
    <contour>
      <point x="410.872" y="496.875" type="line"/>
      <point x="24.998" y="496.875" type="line"/>
      <point x="24.998" y="396.438" type="line"/>
      <point x="410.872" y="396.438" type="line"/>
    </contour>
    <contour>
      <point x="282.935" y="633.125" type="line"/>
      <point x="152.935" y="633.125" type="line"/>
      <point x="152.935" y="0" type="line"/>
      <point x="282.935" y="0" type="line"/>
    </contour>
    <contour>
      <point x="217.935" y="0" type="move" name="bottom"/>
    </contour>
    <contour>
      <point x="213.81" y="250" type="move" name="center"/>
    </contour>
    <contour>
      <point x="217.482" y="639.109" type="move" name="top"/>
    </contour>
    <contour>
      <point x="431.498" y="501.562" type="move" name="topright"/>
    </contour>
  </outline>
</glyph>
<glyph name="u" format="1">
  <advance width="692.62"/>
  <unicode hex="0075"/>
  <outline>
    <contour>
      <point x="505.245" y="0" type="line"/>
      <point x="635.245" y="0" type="line"/>
      <point x="635.245" y="496.875" type="line"/>
      <point x="505.245" y="496.875" type="line"/>
    </contour>
    <contour>
      <point x="59.995" y="196.125" type="line"/>
      <point x="189.995" y="217.688" type="line"/>
      <point x="189.995" y="496.875" type="line"/>
      <point x="59.995" y="496.875" type="line"/>
    </contour>
    <contour>
      <point x="189.995" y="217.688" type="curve"/>
      <point x="59.995" y="196.125" type="line"/>
      <point x="59.995" y="34.25"/>
      <point x="173.495" y="-11.562"/>
      <point x="282.12" y="-11.562" type="curve"/>
      <point x="453.995" y="-11.562"/>
      <point x="506.558" y="156.625"/>
      <point x="513.12" y="205" type="curve"/>
      <point x="511.808" y="239.25" type="line"/>
      <point x="511.808" y="239.25"/>
      <point x="468.12" y="93.438"/>
      <point x="321.87" y="93.438" type="curve"/>
      <point x="239.182" y="93.438"/>
      <point x="189.995" y="121.438"/>
    </contour>
    <contour>
      <point x="334.495" y="0" type="move" name="bottom"/>
    </contour>
    <contour>
      <point x="573.37" y="0" type="move" name="ogonek"/>
    </contour>
    <contour>
      <point x="356.808" y="510" type="move" name="top"/>
    </contour>
    <contour>
      <point x="682.308" y="500" type="move" name="topright"/>
    </contour>
  </outline>
</glyph>
<glyph name="v" format="1">
  <advance width="626.5"/>
  <unicode hex="0076"/>
  <outline>
    <contour>
      <point x="157.625" y="496.875" type="line"/>
      <point x="15.312" y="496.875" type="line"/>
      <point x="249.312" y="0" type="line"/>
      <point x="370.125" y="0" type="line"/>
    </contour>
    <contour>
      <point x="371.5" y="0" type="line"/>
      <point x="611.188" y="496.875" type="line"/>
      <point x="468.562" y="496.875" type="line"/>
      <point x="249.312" y="0" type="line"/>
    </contour>
    <contour>
      <point x="313.25" y="0" type="move" name="bottom"/>
    </contour>
    <contour>
      <point x="313.25" y="500" type="move" name="top"/>
    </contour>
  </outline>
</glyph>
<glyph name="w" format="1">
  <advance width="987.04375"/>
  <unicode hex="0077"/>
  <outline>
    <contour>
      <point x="157.626" y="496.775" type="line"/>
      <point x="15.314" y="496.775" type="line"/>
      <point x="228.251" y="-0.1" type="line"/>
      <point x="349.064" y="-0.1" type="line"/>
    </contour>
    <contour>
      <point x="350.439" y="-0.1" type="line"/>
      <point x="554.314" y="496.775" type="line"/>
      <point x="418.564" y="496.775" type="line"/>
      <point x="241.376" y="-0.1" type="line"/>
    </contour>
    <contour>
      <point x="568.169" y="496.775" type="line"/>
      <point x="432.731" y="496.775" type="line"/>
      <point x="630.919" y="-0.1" type="line"/>
      <point x="738.606" y="-0.1" type="line"/>
    </contour>
    <contour>
      <point x="753.106" y="-0.1" type="line"/>
      <point x="971.731" y="496.775" type="line"/>
      <point x="829.106" y="496.775" type="line"/>
      <point x="630.919" y="-0.1" type="line"/>
    </contour>
    <contour>
      <point x="498.779" y="0" type="move" name="bottom"/>
    </contour>
    <contour>
      <point x="490.904" y="510" type="move" name="top"/>
    </contour>
  </outline>
</glyph>
<glyph name="x" format="1">
  <advance width="656.875"/>
  <unicode hex="0078"/>
  <outline>
    <contour>
      <point x="365.113" y="219.948" type="line"/>
      <point x="623.438" y="496.875" type="line"/>
      <point x="464.875" y="496.875" type="line"/>
      <point x="289.417" y="291.162" type="line"/>
      <point x="20.312" y="0" type="line"/>
      <point x="178.875" y="0" type="line"/>
    </contour>
    <contour>
      <point x="178.875" y="496.875" type="line"/>
      <point x="20.312" y="496.875" type="line"/>
      <point x="284.51" y="216.506" type="line"/>
      <point x="478" y="0" type="line"/>
      <point x="636.562" y="0" type="line"/>
      <point x="366.828" y="292.655" type="line"/>
    </contour>
    <contour>
      <point x="328.125" y="0" type="move" name="bottom"/>
    </contour>
    <contour>
      <point x="328.125" y="500" type="move" name="top"/>
    </contour>
  </outline>
</glyph>
<glyph name="y" format="1">
  <advance width="637.8125"/>
  <unicode hex="0079"/>
  <outline>
    <contour>
      <point x="153.438" y="496.875" type="line"/>
      <point x="15.312" y="496.875" type="line"/>
      <point x="255.625" y="0" type="line"/>
      <point x="368.438" y="20" type="line"/>
    </contour>
    <contour>
      <point x="278.546" y="-200" type="line"/>
      <point x="622.5" y="496.875" type="line"/>
      <point x="484.375" y="496.875" type="line"/>
      <point x="290.6" y="74.032" type="line"/>
      <point x="144.004" y="-200" type="line"/>
    </contour>
    <contour>
      <point x="320.312" y="0" type="move" name="bottom"/>
    </contour>
    <contour>
      <point x="320.312" y="510" type="move" name="top"/>
    </contour>
  </outline>
</glyph>
<glyph name="z" format="1">
  <advance width="622.375"/>
  <unicode hex="007A"/>
  <outline>
    <contour>
      <point x="558.875" y="398.438" type="line"/>
      <point x="473" y="453.625" type="line"/>
      <point x="56.562" y="98.438" type="line"/>
      <point x="134.875" y="36.25" type="line"/>
    </contour>
    <contour>
      <point x="565.812" y="0" type="line"/>
      <point x="565.812" y="98.438" type="line"/>
      <point x="56.562" y="98.438" type="line"/>
      <point x="56.562" y="0" type="line"/>
    </contour>
    <contour>
      <point x="558.875" y="398.438" type="line"/>
      <point x="558.875" y="496.875" type="line"/>
      <point x="56.562" y="496.875" type="line"/>
      <point x="56.562" y="398.438" type="line"/>
    </contour>
    <contour>
      <point x="308.562" y="0" type="move" name="bottom"/>
    </contour>
    <contour>
      <point x="308.562" y="510" type="move" name="top"/>
    </contour>
  </outline>
</glyph>
<glyph name="braceleft" format="1">
  <advance width="482.75"/>
  <unicode hex="007B"/>
  <outline>
    <contour>
      <point x="196.75" y="171" type="curve"/>
      <point x="196.75" y="100.904"/>
      <point x="99.784" y="-53.6"/>
      <point x="121.784" y="-178" type="curve"/>
      <point x="394.125" y="-178" type="line"/>
      <point x="394.125" y="-76.178" type="line"/>
      <point x="238.228" y="-76.411" type="line"/>
      <point x="238.228" y="-7.386"/>
      <point x="300.812" y="89.368"/>
      <point x="300.812" y="171" type="curve"/>
      <point x="300.812" y="274"/>
      <point x="195.75" y="321"/>
      <point x="49.25" y="321" type="curve"/>
      <point x="49.25" y="301" type="line"/>
      <point x="195.75" y="301"/>
      <point x="300.812" y="348"/>
      <point x="300.812" y="451" type="curve"/>
      <point x="300.812" y="532.632"/>
      <point x="238.228" y="629.386"/>
      <point x="238.228" y="698.411" type="curve"/>
      <point x="394.125" y="698.178" type="line"/>
      <point x="394.125" y="800" type="line"/>
      <point x="121.784" y="800" type="line"/>
      <point x="99.784" y="675.6"/>
      <point x="196.75" y="521.096"/>
      <point x="196.75" y="451" type="curve"/>
      <point x="196.75" y="392"/>
      <point x="151.75" y="354.125"/>
      <point x="49.25" y="354.125" type="curve"/>
      <point x="49.25" y="267.875" type="line"/>
      <point x="151.75" y="267.875"/>
      <point x="196.75" y="230"/>
    </contour>
  </outline>
</glyph>
<glyph name="bar" format="1">
  <advance width="323.125"/>
  <unicode hex="007C"/>
  <outline>
    <contour>
      <point x="223.125" y="800" type="line"/>
      <point x="100" y="800" type="line"/>
      <point x="100" y="-160" type="line"/>
      <point x="223.125" y="-160" type="line"/>
    </contour>
  </outline>
</glyph>
<glyph name="cent" format="1">
  <advance width="686.19687"/>
  <unicode hex="00A2"/>
  <outline>
    <contour>
      <point x="442.31" y="595.673" type="line"/>
      <point x="373.067" y="607.882" type="line"/>
      <point x="250.819" y="-85.423" type="line"/>
      <point x="320.062" y="-97.632" type="line"/>
    </contour>
    <component base="c"/>
  </outline>
</glyph>
<glyph name="sterling" format="1">
  <advance width="658.35312"/>
  <unicode hex="00A3"/>
  <outline>
    <contour>
      <point x="33.979" y="329.678" type="line"/>
      <point x="33.979" y="268.115" type="line"/>
      <point x="452.987" y="268.115" type="line"/>
      <point x="452.987" y="329.678" type="line"/>
    </contour>
    <contour>
      <point x="288.691" y="226.951" type="curve"/>
      <point x="288.691" y="310.361"/>
      <point x="184.37" y="364.87"/>
      <point x="184.37" y="457.884" type="curve"/>
      <point x="184.37" y="524.044"/>
      <point x="249.535" y="548.268"/>
      <point x="331.125" y="548.268" type="curve"/>
      <point x="410.456" y="548.268"/>
      <point x="478.957" y="511.656"/>
      <point x="480.883" y="458.837" type="curve"/>
      <point x="618.383" y="458.837" type="line"/>
      <point x="618.383" y="581.042"/>
      <point x="495.717" y="660.304"/>
      <point x="326.437" y="660.304" type="curve"/>
      <point x="166.523" y="660.304"/>
      <point x="53.865" y="596.042"/>
      <point x="53.865" y="480.595" type="curve"/>
      <point x="53.865" y="402.031"/>
      <point x="120.686" y="349.617"/>
      <point x="162.457" y="314.01" type="curve"/>
      <point x="172.768" y="309.085"/>
      <point x="159.007" y="294.547"/>
      <point x="165.622" y="285.967" type="curve"/>
      <point x="178.855" y="263.55"/>
      <point x="188.191" y="241.552"/>
      <point x="188.191" y="218.513" type="curve"/>
      <point x="188.191" y="138.678"/>
      <point x="73.424" y="110.505"/>
      <point x="73.424" y="110.505" type="curve"/>
      <point x="73.424" y="0.055" type="line"/>
      <point x="596.94" y="0.055" type="line"/>
      <point x="596.94" y="110.505" type="line"/>
      <point x="179.654" y="110.505" type="line"/>
      <point x="203.903" y="117.935"/>
      <point x="288.691" y="146.724"/>
    </contour>
    <contour>
      <point x="259.342" y="291.709" type="move" name="_center"/>
    </contour>
  </outline>
</glyph>
<glyph name="currency" format="1">
  <advance width="674.1"/>
  <unicode hex="00A4"/>
  <outline>
    <contour>
      <point x="337.675" y="103.49" type="curve"/>
      <point x="493.84" y="103.49"/>
      <point x="598.869" y="186.018"/>
      <point x="598.869" y="307.808" type="curve"/>
      <point x="598.869" y="429.287"/>
      <point x="493.84" y="512.753"/>
      <point x="337.675" y="512.752" type="curve"/>
      <point x="181.212" y="512.753"/>
      <point x="75.231" y="429.563"/>
      <point x="75.231" y="307.808" type="curve"/>
      <point x="75.231" y="186.018"/>
      <point x="180.885" y="103.49"/>
    </contour>
    <contour>
      <point x="337.675" y="196.739" type="curve"/>
      <point x="254.307" y="196.74"/>
      <point x="201.294" y="246.003"/>
      <point x="201.293" y="307.808" type="curve"/>
      <point x="201.294" y="369.614"/>
      <point x="254.932" y="419.503"/>
      <point x="337.675" y="419.503" type="curve"/>
      <point x="420.418" y="419.503"/>
      <point x="472.806" y="369.301"/>
      <point x="472.807" y="307.808" type="curve"/>
      <point x="472.806" y="246.003"/>
      <point x="419.793" y="196.74"/>
    </contour>
    <contour>
      <point x="98.491" y="87.819" type="line"/>
      <point x="150.44" y="41.242" type="line"/>
      <point x="245.419" y="147.194" type="line"/>
      <point x="190.093" y="189.78" type="line"/>
    </contour>
    <contour>
      <point x="430.429" y="147.356" type="line"/>
      <point x="525.57" y="41.242" type="line"/>
      <point x="577.519" y="87.819" type="line"/>
      <point x="487.701" y="187.995" type="line"/>
    </contour>
    <contour>
      <point x="98.491" y="529.023" type="line"/>
      <point x="194.95" y="421.44" type="line"/>
      <point x="246.211" y="468.782" type="line"/>
      <point x="150.44" y="575.6" type="line"/>
    </contour>
    <contour>
      <point x="428.615" y="467.598" type="line"/>
      <point x="479.853" y="420.232" type="line"/>
      <point x="577.519" y="529.023" type="line"/>
      <point x="525.57" y="575.6" type="line"/>
    </contour>
  </outline>
</glyph>
<glyph name="yen" format="1">
  <advance width="740"/>
  <unicode hex="00A5"/>
  <outline>
    <contour>
      <point x="18.75" y="646.875" type="line"/>
      <point x="303.438" y="203.961" type="line"/>
      <point x="436.562" y="203.961" type="line"/>
      <point x="721.25" y="646.875" type="line"/>
      <point x="567.188" y="646.875" type="line"/>
      <point x="331.679" y="259.704" type="line"/>
      <point x="412.092" y="259.859" type="line"/>
      <point x="172.812" y="646.875" type="line"/>
    </contour>
    <contour>
      <point x="303.438" y="82.57" type="line"/>
      <point x="303.438" y="0" type="line"/>
      <point x="436.562" y="0" type="line"/>
      <point x="436.562" y="82.57" type="line"/>
    </contour>
    <contour>
      <point x="549.688" y="122.059" type="line"/>
      <point x="190.312" y="122.059" type="line"/>
      <point x="190.312" y="53.621" type="line"/>
      <point x="549.688" y="53.621" type="line"/>
    </contour>
    <contour>
      <point x="549.688" y="232.059" type="line"/>
      <point x="190.312" y="232.059" type="line"/>
      <point x="190.312" y="163.621" type="line"/>
      <point x="549.688" y="163.621" type="line"/>
    </contour>
    <contour>
      <point x="370" y="87.84" type="move" name="_center"/>
    </contour>
  </outline>
</glyph>
<glyph name="brokenbar" format="1">
  <advance width="323.125"/>
  <unicode hex="00A6"/>
  <outline>
    <contour>
      <point x="223.125" y="-160" type="line"/>
      <point x="223.125" y="203.75" type="line"/>
      <point x="100" y="203.75" type="line"/>
      <point x="100" y="-160" type="line"/>
    </contour>
    <contour>
      <point x="223.125" y="436.25" type="line"/>
      <point x="223.125" y="800" type="line"/>
      <point x="100" y="800" type="line"/>
      <point x="100" y="436.25" type="line"/>
    </contour>
  </outline>
</glyph>
<glyph name="section" format="1">
  <advance width="564.91438"/>
  <unicode hex="00A7"/>
  <outline>
    <contour>
      <point x="366.797" y="240.565" type="curve"/>
      <point x="324.475" y="235.238" type="line"/>
      <point x="465.994" y="224.861"/>
      <point x="524.947" y="267.072"/>
      <point x="524.947" y="330.004" type="curve"/>
      <point x="524.947" y="424.223"/>
      <point x="428.391" y="454.225"/>
      <point x="295.675" y="479.055" type="curve"/>
      <point x="214.451" y="496.272"/>
      <point x="165.544" y="507.742"/>
      <point x="165.544" y="552.067" type="curve"/>
      <point x="165.544" y="588.063"/>
      <point x="202.603" y="608.817"/>
      <point x="259.148" y="608.817" type="curve"/>
      <point x="329.948" y="608.817"/>
      <point x="369.775" y="588.589"/>
      <point x="378.639" y="540.764" type="curve"/>
      <point x="495.198" y="540.764" type="line"/>
      <point x="492.622" y="644.243"/>
      <point x="405.052" y="710.004"/>
      <point x="263.08" y="710.004" type="curve"/>
      <point x="126.803" y="710.004"/>
      <point x="41.794" y="650.054"/>
      <point x="41.794" y="565.004" type="curve"/>
      <point x="41.794" y="502.705"/>
      <point x="88.907" y="468.318"/>
      <point x="212.16" y="432.533" type="curve"/>
      <point x="265.914" y="439.311" type="line"/>
      <point x="101.938" y="454.53"/>
      <point x="33.981" y="408.254"/>
      <point x="33.981" y="340.88" type="curve"/>
      <point x="33.981" y="253.3"/>
      <point x="132.526" y="215.799"/>
      <point x="273.684" y="192.056" type="curve"/>
      <point x="355.353" y="175.889"/>
      <point x="396.51" y="167.085"/>
      <point x="396.51" y="121.505" type="curve"/>
      <point x="396.51" y="85.468"/>
      <point x="367.53" y="63.437"/>
      <point x="299.782" y="63.901" type="curve"/>
      <point x="218.807" y="64.506"/>
      <point x="172.898" y="98.355"/>
      <point x="160.536" y="141.682" type="curve"/>
      <point x="45.986" y="141.682" type="line"/>
      <point x="38.332" y="80.41"/>
      <point x="120.222" y="-35.823"/>
      <point x="307.646" y="-35.823" type="curve"/>
      <point x="439.038" y="-35.823"/>
      <point x="520.26" y="18.393"/>
      <point x="520.26" y="104.63" type="curve"/>
      <point x="520.26" y="173.773"/>
      <point x="469.397" y="212.523"/>
    </contour>
    <contour>
      <point x="167.106" y="345.442" type="curve"/>
      <point x="167.106" y="381.48"/>
      <point x="200.242" y="404.597"/>
      <point x="257.471" y="411.379" type="curve"/>
      <point x="345.753" y="393.285"/>
      <point x="391.822" y="381.891"/>
      <point x="391.822" y="331.879" type="curve"/>
      <point x="391.822" y="294.478"/>
      <point x="363.987" y="268.265"/>
      <point x="311.404" y="262.306" type="curve"/>
      <point x="222.33" y="282.136"/>
      <point x="167.106" y="299.109"/>
    </contour>
  </outline>
</glyph>
<glyph name="copyright" format="1">
  <advance width="1013.96875"/>
  <unicode hex="00A9"/>
  <outline>
    <contour>
      <point x="507.82" y="6.668" type="curve"/>
      <point x="785.328" y="6.668"/>
      <point x="960.84" y="132.799"/>
      <point x="960.84" y="332.017" type="curve"/>
      <point x="960.84" y="530.978"/>
      <point x="787.02" y="651.02"/>
      <point x="507.82" y="651.02" type="curve"/>
      <point x="226.93" y="651.02"/>
      <point x="53.129" y="531.236"/>
      <point x="53.129" y="332.017" type="curve"/>
      <point x="53.129" y="132.799"/>
      <point x="228.622" y="6.668"/>
    </contour>
    <contour>
      <point x="507.806" y="87.295" type="curve"/>
      <point x="293.556" y="87.295"/>
      <point x="143.131" y="175.878"/>
      <point x="143.131" y="332.003" type="curve"/>
      <point x="143.131" y="488.128"/>
      <point x="291.931" y="570.393"/>
      <point x="507.806" y="570.393" type="curve"/>
      <point x="722.056" y="570.393"/>
      <point x="870.838" y="488.128"/>
      <point x="870.838" y="332.003" type="curve"/>
      <point x="870.838" y="175.878"/>
      <point x="720.431" y="87.295"/>
    </contour>
    <contour>
      <point x="727.672" y="309.742" type="curve"/>
      <point x="631.529" y="309.742" type="line"/>
      <point x="622.541" y="278.866"/>
      <point x="585.126" y="260.871"/>
      <point x="514.819" y="260.871" type="curve"/>
      <point x="430.657" y="260.871"/>
      <point x="388.353" y="285.49"/>
      <point x="388.353" y="328.329" type="curve"/>
      <point x="388.353" y="371.157"/>
      <point x="431.525" y="396.817"/>
      <point x="514.819" y="396.817" type="curve"/>
      <point x="584.657" y="396.817"/>
      <point x="621.979" y="379.082"/>
      <point x="630.979" y="348.379" type="curve"/>
      <point x="727.247" y="348.379" type="line"/>
      <point x="726.311" y="424.973"/>
      <point x="657.762" y="473.421"/>
      <point x="514.819" y="473.421" type="curve"/>
      <point x="368.882" y="473.421"/>
      <point x="285.046" y="418.734"/>
      <point x="285.046" y="328.329" type="curve"/>
      <point x="285.046" y="237.927"/>
      <point x="368.547" y="184.267"/>
      <point x="514.819" y="184.267" type="curve"/>
      <point x="658.4" y="184.267"/>
      <point x="727.668" y="232.463"/>
    </contour>
  </outline>
</glyph>
<glyph name="ordfeminine" format="1">
  <advance width="673"/>
  <unicode hex="00AA"/>
  <outline>
    <contour>
      <point x="269" y="292.53" type="curve"/>
      <point x="421.625" y="292.53"/>
      <point x="498.75" y="419.881"/>
      <point x="498.75" y="497.467" type="curve"/>
      <point x="498.75" y="608.024"/>
      <point x="424.139" y="708.467"/>
      <point x="275.875" y="708.467" type="curve"/>
      <point x="130.21" y="708.467"/>
      <point x="36.375" y="621.582"/>
      <point x="36.375" y="496.217" type="curve"/>
      <point x="36.375" y="379.592"/>
      <point x="130.062" y="292.53"/>
    </contour>
    <contour>
      <point x="304.625" y="392.03" type="curve"/>
      <point x="216.938" y="392.03"/>
      <point x="169.188" y="435.78"/>
      <point x="169.188" y="496.217" type="curve"/>
      <point x="169.188" y="563.842"/>
      <point x="210.75" y="607.967"/>
      <point x="304.625" y="607.967" type="curve"/>
      <point x="408.491" y="607.967"/>
      <point x="485.625" y="566.842"/>
      <point x="485.625" y="496.217" type="curve"/>
      <point x="485.625" y="439.655"/>
      <point x="409.614" y="392.03"/>
    </contour>
    <contour>
      <point x="615.625" y="696.905" type="line"/>
      <point x="485.625" y="696.905" type="line"/>
      <point x="485.625" y="421.592" type="line"/>
      <point x="485.625" y="372.655"/>
      <point x="494.812" y="303.78"/>
      <point x="494.812" y="303.78" type="curve"/>
      <point x="615.625" y="303.78" type="line"/>
    </contour>
    <contour>
      <point x="184.438" y="-10" type="move" name="bottom"/>
    </contour>
    <contour>
      <point x="294.744" y="250" type="move" name="center"/>
    </contour>
    <contour>
      <point x="555.82" y="0" type="move" name="ogonek"/>
    </contour>
    <contour>
      <point x="301.25" y="510" type="move" name="top"/>
    </contour>
    <contour>
      <point x="681.875" y="500" type="move" name="topright"/>
    </contour>
  </outline>
</glyph>
<glyph name="guillemetleft" format="1">
  <advance width="584.27188"/>
  <unicode hex="00AB"/>
  <outline>
    <contour>
      <point x="287.837" y="280.544" type="line"/>
      <point x="426.245" y="128.825" type="line"/>
      <point x="497.228" y="196.014" type="line"/>
      <point x="358.305" y="338.949" type="line"/>
    </contour>
    <contour>
      <point x="287.837" y="280.544" type="line"/>
      <point x="358.305" y="222.138" type="line"/>
      <point x="496.964" y="364.826" type="line"/>
      <point x="426.575" y="432.626" type="line"/>
    </contour>
    <component base="guilsinglleft" xOffset="-12.375"/>
  </outline>
</glyph>
<glyph name="logicalnot" format="1">
  <advance width="723.125"/>
  <unicode hex="00AC"/>
  <outline>
    <contour>
      <point x="623.125" y="415.938" type="line"/>
      <point x="85" y="415.938" type="line"/>
      <point x="85" y="317.5" type="line"/>
      <point x="623.125" y="317.5" type="line"/>
    </contour>
    <contour>
      <point x="508.75" y="415.938" type="line"/>
      <point x="508.75" y="160" type="line"/>
      <point x="623.125" y="160" type="line"/>
      <point x="623.125" y="415.938" type="line"/>
    </contour>
  </outline>
</glyph>
<glyph name="registered" format="1">
  <advance width="972.71875"/>
  <unicode hex="00AE"/>
  <outline>
    <contour>
      <point x="487.195" y="77.459" type="curve"/>
      <point x="744.078" y="77.459"/>
      <point x="919.59" y="203.59"/>
      <point x="919.59" y="382.183" type="curve"/>
      <point x="919.59" y="560.696"/>
      <point x="745.77" y="680.561"/>
      <point x="487.195" y="680.561" type="curve"/>
      <point x="226.219" y="680.561"/>
      <point x="53.129" y="561.002"/>
      <point x="53.129" y="382.183" type="curve"/>
      <point x="53.129" y="203.59"/>
      <point x="228.622" y="77.459"/>
    </contour>
    <contour>
      <point x="487.181" y="158.086" type="curve"/>
      <point x="286.681" y="158.086"/>
      <point x="143.131" y="243.544"/>
      <point x="143.131" y="382.169" type="curve"/>
      <point x="143.131" y="520.794"/>
      <point x="285.056" y="599.934"/>
      <point x="487.181" y="599.934" type="curve"/>
      <point x="687.681" y="599.934"/>
      <point x="829.588" y="520.794"/>
      <point x="829.588" y="382.169" type="curve"/>
      <point x="829.588" y="243.544"/>
      <point x="686.056" y="158.086"/>
    </contour>
    <contour>
      <point x="329.512" y="526.81" type="line"/>
      <point x="329.512" y="242.522" type="line"/>
      <point x="416.837" y="242.522" type="line"/>
      <point x="416.837" y="324.902" type="line"/>
      <point x="517.938" y="324.902" type="line" smooth="yes"/>
      <point x="577.244" y="324.902"/>
      <point x="586.174" y="316.547"/>
      <point x="586.174" y="292.861" type="curve"/>
      <point x="586.174" y="242.522" type="line"/>
      <point x="673.378" y="242.522" type="line"/>
      <point x="673.378" y="297.959" type="line" smooth="yes"/>
      <point x="673.378" y="328.747"/>
      <point x="661.793" y="348.449"/>
      <point x="601.584" y="355.669" type="curve"/>
      <point x="662.053" y="359.796"/>
      <point x="680.106" y="388.536"/>
      <point x="680.106" y="434.987" type="curve"/>
      <point x="680.106" y="495.405"/>
      <point x="639.419" y="526.81"/>
      <point x="550.055" y="526.81" type="curve"/>
    </contour>
    <contour>
      <point x="554.47" y="392.53" type="curve"/>
      <point x="416.628" y="392.53" type="line"/>
      <point x="416.628" y="451.506" type="line"/>
      <point x="554.47" y="451.506" type="line" smooth="yes"/>
      <point x="580.363" y="451.506"/>
      <point x="592.703" y="443.434"/>
      <point x="592.703" y="424.561" type="curve"/>
      <point x="592.703" y="402.27"/>
      <point x="578.928" y="392.53"/>
    </contour>
  </outline>
</glyph>
<glyph name="degree" format="1">
  <advance width="448.4375"/>
  <unicode hex="00B0"/>
  <outline>
    <contour>
      <point x="224.219" y="375.375" type="curve"/>
      <point x="328.688" y="375.375"/>
      <point x="401.562" y="431.375"/>
      <point x="401.562" y="517" type="curve"/>
      <point x="401.562" y="601.625"/>
      <point x="328.688" y="658.25"/>
      <point x="224.219" y="658.25" type="curve"/>
      <point x="119.75" y="658.25"/>
      <point x="46.875" y="601.625"/>
      <point x="46.875" y="517" type="curve"/>
      <point x="46.875" y="431.375"/>
      <point x="119.75" y="375.375"/>
    </contour>
    <contour>
      <point x="224.219" y="444.589" type="curve"/>
      <point x="162.417" y="444.589"/>
      <point x="128.601" y="474.476"/>
      <point x="128.601" y="517.035" type="curve"/>
      <point x="128.601" y="557.587"/>
      <point x="162.417" y="587.474"/>
      <point x="224.219" y="587.474" type="curve"/>
      <point x="286.02" y="587.474"/>
      <point x="319.837" y="557.587"/>
      <point x="319.837" y="517.035" type="curve"/>
      <point x="319.837" y="474.476"/>
      <point x="286.02" y="444.589"/>
    </contour>
  </outline>
</glyph>
<glyph name="plusminus" format="1">
  <advance width="560"/>
  <unicode hex="00B1"/>
  <outline>
    <contour>
      <point x="50" y="340.625" type="line"/>
      <point x="50" y="245.625" type="line"/>
      <point x="510" y="245.625" type="line"/>
      <point x="510" y="340.625" type="line"/>
    </contour>
    <contour>
      <point x="56.875" y="61.875" type="line"/>
      <point x="56.875" y="-10" type="line"/>
      <point x="503.125" y="-10" type="line"/>
      <point x="503.125" y="61.875" type="line"/>
    </contour>
    <contour>
      <point x="226.25" y="462.5" type="line"/>
      <point x="226.25" y="123.75" type="line"/>
      <point x="333.75" y="123.75" type="line"/>
      <point x="333.75" y="462.5" type="line"/>
    </contour>
  </outline>
</glyph>
<glyph name="twosuperior" format="1">
  <advance width="333.24"/>
  <unicode hex="00B2"/>
  <outline>
    <contour>
      <point x="280.04" y="467.02" type="line"/>
      <point x="143.273" y="461.02" type="line"/>
      <point x="234.646" y="504.183"/>
      <point x="283.239" y="539.476"/>
      <point x="283.239" y="606.617" type="curve"/>
      <point x="283.239" y="663.089"/>
      <point x="241.79" y="710.358"/>
      <point x="167.522" y="710.358" type="curve"/>
      <point x="91.257" y="710.358"/>
      <point x="36.929" y="650.929"/>
      <point x="52.746" y="581.617" type="curve"/>
      <point x="119.112" y="581.617" type="line"/>
      <point x="109.933" y="613.566"/>
      <point x="130.531" y="639.996"/>
      <point x="162.522" y="639.996" type="curve"/>
      <point x="194.043" y="639.996"/>
      <point x="210.131" y="621.715"/>
      <point x="210.131" y="596.617" type="curve"/>
      <point x="210.131" y="553.229"/>
      <point x="155.209" y="535.271"/>
      <point x="59.133" y="463.411" type="curve"/>
      <point x="59.199" y="399.684" type="line"/>
      <point x="280.04" y="399.684" type="line"/>
    </contour>
  </outline>
</glyph>
<glyph name="threesuperior" format="1">
  <advance width="328.3"/>
  <unicode hex="00B3"/>
  <outline>
    <contour>
      <point x="157.406" y="552.695" type="curve"/>
      <point x="156.222" y="544.134" type="line"/>
      <point x="240.61" y="543.131"/>
      <point x="274.282" y="576.819"/>
      <point x="274.282" y="620.415" type="curve"/>
      <point x="274.282" y="672.387"/>
      <point x="235.644" y="710.304"/>
      <point x="165.52" y="710.304" type="curve"/>
      <point x="86.025" y="710.304"/>
      <point x="45.895" y="661.134"/>
      <point x="54.527" y="605.415" type="curve"/>
      <point x="115.859" y="605.415" type="line"/>
      <point x="115.082" y="622.161"/>
      <point x="127" y="642.497"/>
      <point x="163.52" y="642.497" type="curve"/>
      <point x="193.474" y="642.497"/>
      <point x="205.355" y="629.201"/>
      <point x="205.355" y="609.415" type="curve"/>
      <point x="205.355" y="587.535"/>
      <point x="193.046" y="572.941"/>
      <point x="161.279" y="572.941" type="curve"/>
      <point x="106.088" y="572.941" type="line"/>
      <point x="106.088" y="523.896" type="line"/>
      <point x="161.279" y="523.896" type="line" smooth="yes"/>
      <point x="195.131" y="523.896"/>
      <point x="209.377" y="511.477"/>
      <point x="209.377" y="490.36" type="curve"/>
      <point x="209.377" y="469.237"/>
      <point x="197.327" y="451.672"/>
      <point x="166.368" y="451.672" type="curve"/>
      <point x="122.548" y="451.672"/>
      <point x="114.715" y="476.353"/>
      <point x="115.737" y="493.663" type="curve"/>
      <point x="50.445" y="493.663" type="line"/>
      <point x="45.629" y="436.07"/>
      <point x="79.664" y="382.118"/>
      <point x="166.368" y="382.118" type="curve"/>
      <point x="243.682" y="382.118"/>
      <point x="278.305" y="426.615"/>
      <point x="278.305" y="472.663" type="curve"/>
      <point x="278.305" y="526.187"/>
      <point x="240.446" y="553.784"/>
    </contour>
  </outline>
</glyph>
<glyph name="micro" format="1">
  <advance width="744.59187"/>
  <unicode hex="00B5"/>
  <outline>
    <contour>
      <point x="59.995" y="496.875" type="line"/>
      <point x="59.995" y="-200.171" type="line"/>
      <point x="189.995" y="-200.171" type="line"/>
      <point x="189.995" y="496.875" type="line"/>
    </contour>
    <contour>
      <point x="310.245" y="-11.562" type="curve"/>
      <point x="472.745" y="-11.562"/>
      <point x="506.558" y="156.625"/>
      <point x="513.12" y="205" type="curve"/>
      <point x="511.808" y="239.25" type="line"/>
      <point x="511.808" y="239.25"/>
      <point x="471.245" y="93.438"/>
      <point x="324.995" y="93.438" type="curve"/>
      <point x="248.558" y="93.438"/>
      <point x="189.995" y="121.438"/>
      <point x="189.995" y="223.938" type="curve"/>
      <point x="156.87" y="196.125" type="line"/>
      <point x="156.87" y="54.25"/>
      <point x="207.87" y="-11.562"/>
    </contour>
    <contour>
      <point x="731.466" y="-6.875" type="curve"/>
      <point x="731.466" y="107.414" type="line"/>
      <point x="666.358" y="107.414"/>
      <point x="635.245" y="118.319"/>
      <point x="635.245" y="194.212" type="curve"/>
      <point x="635.245" y="496.875" type="line"/>
      <point x="505.105" y="496.875" type="line"/>
      <point x="505.105" y="169.227" type="line" smooth="yes"/>
      <point x="505.105" y="58.564"/>
      <point x="568.332" y="-6.875"/>
    </contour>
  </outline>
</glyph>
<glyph name="paragraph" format="1">
  <advance width="735.15312"/>
  <unicode hex="00B6"/>
  <outline>
    <contour>
      <point x="455.188" y="0" type="line"/>
      <point x="455.188" y="310" type="line"/>
      <point x="326.563" y="310" type="line"/>
      <point x="326.563" y="0" type="line"/>
    </contour>
    <contour>
      <point x="277.876" y="236.125" type="curve"/>
      <point x="355.208" y="236.125" type="line"/>
      <point x="355.208" y="646.875" type="line"/>
      <point x="274.751" y="646.875" type="line" smooth="yes"/>
      <point x="131.092" y="646.875"/>
      <point x="29.987" y="574.812"/>
      <point x="29.987" y="440.562" type="curve"/>
      <point x="29.987" y="306.312"/>
      <point x="134.217" y="236.125"/>
    </contour>
    <contour>
      <point x="658.279" y="0" type="line"/>
      <point x="658.279" y="646.875" type="line"/>
      <point x="529.654" y="646.875" type="line"/>
      <point x="529.654" y="0" type="line"/>
    </contour>
    <contour>
      <point x="355.208" y="531.568" type="line"/>
      <point x="355.208" y="343.558" type="line"/>
      <point x="278.14" y="343.558" type="line" smooth="yes"/>
      <point x="214.337" y="343.558"/>
      <point x="163.112" y="367.279"/>
      <point x="163.112" y="437.438" type="curve"/>
      <point x="163.112" y="507.596"/>
      <point x="214.553" y="531.748"/>
      <point x="278.178" y="531.629" type="curve"/>
    </contour>
    <contour>
      <point x="539.677" y="646.875" type="line"/>
      <point x="337.637" y="646.875" type="line"/>
      <point x="355.208" y="531.568" type="line"/>
      <point x="539.677" y="531.568" type="line"/>
    </contour>
    <contour>
      <point x="539.677" y="343.619" type="line"/>
      <point x="355.208" y="343.558" type="line"/>
      <point x="355.208" y="236.125" type="line"/>
      <point x="539.677" y="236.125" type="line"/>
    </contour>
  </outline>
</glyph>
<glyph name="onesuperior" format="1">
  <advance width="247"/>
  <unicode hex="00B9"/>
  <outline>
    <contour>
      <point x="187" y="700" type="line"/>
      <point x="119" y="644" type="line"/>
      <point x="119" y="400" type="line"/>
      <point x="187" y="400" type="line"/>
    </contour>
    <contour>
      <point x="187" y="700" type="line"/>
      <point x="40" y="700" type="line"/>
      <point x="40" y="636" type="line"/>
      <point x="187" y="636" type="line"/>
    </contour>
  </outline>
</glyph>
<glyph name="ordmasculine" format="1">
  <advance width="703.875"/>
  <unicode hex="00BA"/>
  <outline>
    <contour>
      <point x="353.25" y="285.081" type="curve"/>
      <point x="527.5" y="285.081"/>
      <point x="634.375" y="363.706"/>
      <point x="634.375" y="495.644" type="curve"/>
      <point x="634.375" y="626.581"/>
      <point x="527.5" y="708.206"/>
      <point x="353.25" y="708.206" type="curve"/>
      <point x="177.688" y="708.206"/>
      <point x="69.5" y="626.581"/>
      <point x="69.5" y="495.644" type="curve"/>
      <point x="69.5" y="363.706"/>
      <point x="177.688" y="285.081"/>
    </contour>
    <contour>
      <point x="353.25" y="380.331" type="curve"/>
      <point x="247.438" y="380.331"/>
      <point x="198.812" y="428.206"/>
      <point x="198.812" y="495.644" type="curve"/>
      <point x="198.812" y="563.081"/>
      <point x="248.75" y="612.956"/>
      <point x="353.25" y="612.956" type="curve"/>
      <point x="457.75" y="612.956"/>
      <point x="505.062" y="562.081"/>
      <point x="505.062" y="495.644" type="curve"/>
      <point x="505.062" y="428.206"/>
      <point x="456.438" y="380.331"/>
    </contour>
    <contour>
      <point x="353.25" y="-10" type="move" name="bottom"/>
    </contour>
    <contour>
      <point x="351.938" y="250" type="move" name="center"/>
    </contour>
    <contour>
      <point x="466.125" y="10" type="move" name="ogonek"/>
    </contour>
    <contour>
      <point x="353.25" y="510" type="move" name="top"/>
    </contour>
    <contour>
      <point x="698.438" y="500" type="move" name="topright"/>
    </contour>
  </outline>
</glyph>
<glyph name="AE" format="1">
  <advance width="1158.58125"/>
  <unicode hex="00C6"/>
  <outline>
    <contour>
      <point x="184.499" y="262.25" type="line"/>
      <point x="184.499" y="163.514" type="line"/>
      <point x="557.124" y="163.514" type="line"/>
      <point x="557.124" y="262.25" type="line"/>
    </contour>
    <contour>
      <point x="534.624" y="646.875" type="line"/>
      <point x="400.374" y="646.875" type="line"/>
      <point x="16.874" y="0" type="line"/>
      <point x="159.624" y="0" type="line"/>
    </contour>
    <component base="E" xOffset="389.144"/>
    <contour>
      <point x="619.456" y="0" type="move" name="bottom"/>
    </contour>
    <contour>
      <point x="619.456" y="680" type="move" name="top"/>
    </contour>
  </outline>
</glyph>
<glyph name="multiply" format="1">
  <advance width="499.84375"/>
  <unicode hex="00D7"/>
  <outline>
    <contour>
      <point x="440.51" y="387.273" type="line"/>
      <point x="126.29" y="73.052" type="line"/>
      <point x="59.114" y="140.227" type="line"/>
      <point x="373.335" y="454.448" type="line"/>
    </contour>
    <contour>
      <point x="440.51" y="140.227" type="line"/>
      <point x="373.335" y="73.052" type="line"/>
      <point x="59.114" y="387.273" type="line"/>
      <point x="126.29" y="454.448" type="line"/>
    </contour>
  </outline>
</glyph>
<glyph name="Thorn" format="1">
  <advance width="759.4375"/>
  <unicode hex="00DE"/>
  <outline>
    <contour>
      <point x="451" y="539.688" type="curve"/>
      <point x="179.75" y="539.688" type="line"/>
      <point x="179.75" y="431.875" type="line"/>
      <point x="463.188" y="431.875" type="line" smooth="yes"/>
      <point x="530.688" y="431.875"/>
      <point x="578.188" y="393.625"/>
      <point x="578.188" y="323.438" type="curve"/>
      <point x="578.188" y="255.312"/>
      <point x="530.688" y="215"/>
      <point x="463.188" y="215" type="curve"/>
      <point x="179.75" y="215" type="line"/>
      <point x="179.75" y="107.188" type="line"/>
      <point x="451" y="107.188" type="line" smooth="yes"/>
      <point x="596" y="107.188"/>
      <point x="711.312" y="167.938"/>
      <point x="711.312" y="323.438" type="curve"/>
      <point x="711.312" y="478.938"/>
      <point x="596" y="539.688"/>
    </contour>
    <component base="fut-v" xOffset="26.250"/>
    <contour>
      <point x="302.25" y="0" type="move" name="bottom"/>
    </contour>
    <contour>
      <point x="302.25" y="680" type="move" name="top"/>
    </contour>
  </outline>
</glyph>
<glyph name="germandbls" format="1">
  <advance width="712.775"/>
  <unicode hex="00DF"/>
  <outline>
    <contour>
      <point x="68.749" y="523.75" type="line"/>
      <point x="68.749" y="0" type="line"/>
      <point x="198.749" y="0" type="line"/>
      <point x="198.749" y="508.125" type="line"/>
    </contour>
    <contour>
      <point x="374.266" y="696.875" type="line"/>
      <point x="260.625" y="696.875" type="line"/>
      <point x="135.625" y="696.875"/>
      <point x="68.75" y="643.75"/>
      <point x="68.749" y="523.75" type="curve"/>
      <point x="198.749" y="508.125" type="line"/>
      <point x="198.749" y="572.211"/>
      <point x="232.022" y="593.174"/>
      <point x="282.499" y="591.875" type="curve"/>
      <point x="374.266" y="591.875" type="line"/>
    </contour>
    <contour>
      <point x="636.292" y="487.475" type="line"/>
      <point x="106.026" y="487.5" type="line"/>
      <point x="106.026" y="389.062" type="line"/>
      <point x="510.624" y="389.062" type="line"/>
    </contour>
    <contour>
      <point x="404.282" y="204.824" type="curve"/>
      <point x="451.665" y="182.091" type="line"/>
      <point x="636.292" y="399.777" type="line"/>
      <point x="636.292" y="487.475" type="line"/>
      <point x="555.157" y="465.6" type="line"/>
      <point x="328.843" y="223.625" type="line"/>
      <point x="328.843" y="128.548" type="line"/>
      <point x="364.389" y="128.548" type="line"/>
      <point x="520.856" y="128.548"/>
      <point x="564.343" y="94.035"/>
      <point x="564.343" y="27.574" type="curve"/>
      <point x="564.343" y="-43.163"/>
      <point x="516.712" y="-73.401"/>
      <point x="348.808" y="-73.401" type="curve"/>
      <point x="348.808" y="-172.802" type="line"/>
      <point x="556.791" y="-172.802"/>
      <point x="695.905" y="-105.426"/>
      <point x="695.905" y="30.386" type="curve"/>
      <point x="695.905" y="168.01"/>
      <point x="553.695" y="204.692"/>
    </contour>
    <contour>
      <point x="335.375" y="0" type="move" name="bottom"/>
    </contour>
    <contour>
      <point x="335.375" y="500" type="move" name="top"/>
    </contour>
  </outline>
</glyph>
<glyph name="ae" format="1">
  <advance width="1266.51687"/>
  <unicode hex="00E6"/>
  <outline>
    <component base="a"/>
    <component base="e" xOffset="588.277" yOffset="-2.135"/>
    <contour>
      <point x="430" y="0" type="move" name="bottom"/>
    </contour>
    <contour>
      <point x="430" y="500" type="move" name="top"/>
    </contour>
  </outline>
</glyph>
<glyph name="divide" format="1">
  <advance width="530"/>
  <unicode hex="00F7"/>
  <outline>
    <contour>
      <point x="480" y="315.75" type="line"/>
      <point x="50" y="315.75" type="line"/>
      <point x="50" y="218" type="line"/>
      <point x="480" y="218" type="line"/>
    </contour>
    <component base="periodcentered" yScale="0.8958" xOffset="115.521" yOffset="-132.236"/>
    <component base="periodcentered" yScale="0.8958" xOffset="115.520" yOffset="176.015"/>
  </outline>
</glyph>
<glyph name="oslash" format="1">
  <advance width="703.875"/>
  <unicode hex="00F8"/>
  <outline>
    <contour>
      <point x="542.99" y="512.946" type="line"/>
      <point x="488.99" y="542.946" type="line"/>
      <point x="160.885" y="-12.375" type="line"/>
      <point x="212.885" y="-44.375" type="line"/>
    </contour>
    <component base="o"/>
  </outline>
</glyph>
<glyph name="thorn" format="1">
  <advance width="724.27625"/>
  <unicode hex="00FE"/>
  <outline>
    <contour>
      <point x="422.151" y="-11.562" type="curve"/>
      <point x="569.254" y="-11.562"/>
      <point x="687.901" y="90.135"/>
      <point x="687.901" y="247.75" type="curve"/>
      <point x="687.901" y="402.125"/>
      <point x="571.464" y="508.125"/>
      <point x="422.151" y="508.125" type="curve"/>
      <point x="244.263" y="508.125"/>
      <point x="176.526" y="393.932"/>
      <point x="176.526" y="247.75" type="curve"/>
      <point x="176.526" y="129.538"/>
      <point x="246.776" y="-11.562"/>
    </contour>
    <contour>
      <point x="380.276" y="89.188" type="curve"/>
      <point x="262.537" y="89.188"/>
      <point x="189.651" y="152.438"/>
      <point x="189.651" y="247.75" type="curve"/>
      <point x="189.651" y="349.625"/>
      <point x="272.598" y="407.688"/>
      <point x="380.276" y="407.688" type="curve"/>
      <point x="491.526" y="407.688"/>
      <point x="555.089" y="343.5"/>
      <point x="555.089" y="247.75" type="curve"/>
      <point x="555.089" y="151.688"/>
      <point x="486.026" y="89.188"/>
    </contour>
    <contour>
      <point x="189.995" y="696.195" type="line"/>
      <point x="59.995" y="696.195" type="line"/>
      <point x="59.995" y="-199.998" type="line"/>
      <point x="189.995" y="-199.998" type="line"/>
      <point x="189.995" y="365.49" type="line"/>
    </contour>
    <contour>
      <point x="366.811" y="-3.125" type="move" name="bottom"/>
    </contour>
    <contour>
      <point x="364.311" y="503.125" type="move" name="top"/>
    </contour>
  </outline>
</glyph>
<glyph name="Eogonek" format="1">
  <advance width="769.4375"/>
  <unicode hex="0118"/>
  <outline>
    <component base="E"/>
    <component base="ogonekcomb" xOffset="493.413"/>
    <contour>
      <point x="300" y="680" type="move" name="top"/>
    </contour>
  </outline>
</glyph>
<glyph name="Hbar" format="1">
  <advance width="895.1"/>
  <unicode hex="0126"/>
  <outline>
    <contour>
      <point x="858.224" y="535.75" type="line"/>
      <point x="36.875" y="535.75" type="line"/>
      <point x="36.875" y="460.75" type="line"/>
      <point x="858.224" y="460.75" type="line"/>
    </contour>
    <component base="H" xOffset="0.312"/>
  </outline>
</glyph>
<glyph name="idotless" format="1">
  <advance width="246.875"/>
  <unicode hex="0131"/>
  <outline>
    <contour>
      <point x="188.438" y="496.875" type="line"/>
      <point x="58.438" y="496.875" type="line"/>
      <point x="58.438" y="0" type="line"/>
      <point x="188.438" y="0" type="line"/>
    </contour>
    <contour>
      <point x="123.438" y="0" type="move" name="bottom"/>
    </contour>
    <contour>
      <point x="182.375" y="0" type="move" name="ogonek"/>
    </contour>
    <contour>
      <point x="123.438" y="508.438" type="move" name="top"/>
    </contour>
  </outline>
</glyph>
<glyph name="IJ" format="1">
  <advance width="752.9425"/>
  <unicode hex="0132"/>
  <outline>
    <contour>
      <point x="225.309" y="646.875" type="line"/>
      <point x="95.309" y="646.875" type="line"/>
      <point x="95.309" y="288.507" type="line"/>
      <point x="225.309" y="288.507" type="line"/>
    </contour>
    <component base="J" xOffset="69.870"/>
    <contour>
      <point x="130.184" y="0" type="move" name="bottom"/>
    </contour>
    <contour>
      <point x="258.184" y="10" type="move" name="ogonek"/>
    </contour>
    <contour>
      <point x="130.184" y="680" type="move" name="top"/>
    </contour>
    <contour>
      <point x="-9.816" y="680" type="move" name="topleft"/>
    </contour>
  </outline>
</glyph>
<glyph name="lslash" format="1">
  <advance width="290.8675"/>
  <unicode hex="0142"/>
  <outline>
    <contour>
      <point x="310.558" y="422.755" type="line"/>
      <point x="273.558" y="475.755" type="line"/>
      <point x="-19.691" y="274.12" type="line"/>
      <point x="15.308" y="221.12" type="line"/>
    </contour>
    <component base="l" xOffset="10.121"/>
    <contour>
      <point x="145.433" y="348.438" type="move" name="_center"/>
    </contour>
  </outline>
</glyph>
<glyph name="Eng" format="1">
  <advance width="901.25"/>
  <unicode hex="014A"/>
  <outline>
    <contour>
      <point x="824.375" y="84" type="line"/>
      <point x="691.25" y="84" type="line"/>
      <point x="691.25" y="0" type="line"/>
      <point x="824.375" y="-32.5" type="line"/>
    </contour>
    <contour>
      <point x="565" y="-101.875" type="curve"/>
      <point x="565" y="-210" type="line"/>
      <point x="677.218" y="-210"/>
      <point x="824.375" y="-178.355"/>
      <point x="824.375" y="-32.5" type="curve"/>
      <point x="691.25" y="0" type="line"/>
      <point x="691.25" y="-85"/>
      <point x="631.25" y="-101.875"/>
    </contour>
    <component base="N"/>
  </outline>
</glyph>
<glyph name="eng" format="1">
  <advance width="692.62"/>
  <unicode hex="014B"/>
  <outline>
    <contour>
      <point x="632.624" y="84" type="line"/>
      <point x="502.624" y="84" type="line"/>
      <point x="502.624" y="0" type="line"/>
      <point x="632.624" y="-35.625" type="line"/>
    </contour>
    <contour>
      <point x="370.124" y="-105" type="curve"/>
      <point x="370.124" y="-211.562" type="line"/>
      <point x="553.444" y="-211.562"/>
      <point x="632.624" y="-149.91"/>
      <point x="632.624" y="-35.625" type="curve"/>
      <point x="502.624" y="0" type="line"/>
      <point x="502.624" y="-72.587"/>
      <point x="465.43" y="-105"/>
    </contour>
    <component base="n"/>
  </outline>
</glyph>
<glyph name="OE" format="1">
  <advance width="1277.21875"/>
  <unicode hex="0152"/>
  <outline>
    <contour>
      <point x="1217.218" y="0" type="line"/>
      <point x="1217.218" y="111.625" type="line"/>
      <point x="583.468" y="111.625" type="line"/>
      <point x="583.468" y="0" type="line"/>
    </contour>
    <contour>
      <point x="1125.343" y="269.906" type="line"/>
      <point x="1125.343" y="374.906" type="line"/>
      <point x="797.343" y="374.906" type="line"/>
      <point x="797.343" y="269.906" type="line"/>
    </contour>
    <contour>
      <point x="1215.906" y="535.25" type="line"/>
      <point x="1215.906" y="646.875" type="line"/>
      <point x="592.843" y="646.875" type="line"/>
      <point x="592.843" y="535.25" type="line"/>
    </contour>
    <component base="O"/>
  </outline>
</glyph>
<glyph name="oe" format="1">
  <advance width="1230.20625"/>
  <unicode hex="0153"/>
  <outline>
    <component base="o"/>
    <component base="e" xOffset="551.972"/>
    <contour>
      <point x="479" y="0" type="move" name="bottom"/>
    </contour>
    <contour>
      <point x="479" y="500" type="move" name="top"/>
    </contour>
  </outline>
</glyph>
<glyph name="Tbar" format="1">
  <advance width="721.875"/>
  <unicode hex="0166"/>
  <outline>
    <contour>
      <point x="702.131" y="360.75" type="line"/>
      <point x="19.688" y="360.75" type="line"/>
      <point x="19.688" y="285.75" type="line"/>
      <point x="702.131" y="285.75" type="line"/>
    </contour>
    <component base="T"/>
  </outline>
</glyph>
<glyph name="tbar" format="1">
  <advance width="432.75"/>
  <unicode hex="0167"/>
  <outline>
    <contour>
      <point x="409.137" y="322.75" type="line"/>
      <point x="23.688" y="322.75" type="line"/>
      <point x="23.688" y="247.75" type="line"/>
      <point x="409.137" y="247.75" type="line"/>
    </contour>
    <component base="t"/>
  </outline>
</glyph>
<glyph name="florin" format="1">
  <advance width="904.55562"/>
  <unicode hex="0192"/>
  <outline>
    <contour>
      <point x="641.265" y="660.304" type="curve"/>
      <point x="496.079" y="660.304"/>
      <point x="387.347" y="582.114"/>
      <point x="387.311" y="371.22" type="curve"/>
      <point x="387.291" y="268.459" type="line" smooth="yes"/>
      <point x="387.262" y="134.57"/>
      <point x="338.639" y="100.938"/>
      <point x="272.767" y="100.938" type="curve"/>
      <point x="208.732" y="100.938"/>
      <point x="162.226" y="134.835"/>
      <point x="160.663" y="188.459" type="curve"/>
      <point x="36.913" y="188.459" type="line"/>
      <point x="36.913" y="76.762"/>
      <point x="131.951" y="-10"/>
      <point x="272.767" y="-10" type="curve"/>
      <point x="415.243" y="-10"/>
      <point x="517.254" y="70.806"/>
      <point x="517.299" y="268.459" type="curve"/>
      <point x="517.324" y="371.22" type="line" smooth="yes"/>
      <point x="517.36" y="514.482"/>
      <point x="572.118" y="549.366"/>
      <point x="641.265" y="549.366" type="curve"/>
      <point x="706.557" y="549.366"/>
      <point x="742.399" y="511.799"/>
      <point x="743.961" y="458.72" type="curve"/>
      <point x="867.711" y="458.72" type="line"/>
      <point x="867.711" y="576.248"/>
      <point x="787.779" y="660.304"/>
    </contour>
    <component base="strokeshortcomb" xScale="1.1" xOffset="168.137" yOffset="-61.996"/>
  </outline>
</glyph>
<glyph name="circumflex" format="1">
  <advance width="303.9"/>
  <unicode hex="02C6"/>
  <outline>
    <component base="acute"/>
    <contour>
      <point x="151.95" y="510" type="move" name="_top"/>
    </contour>
  </outline>
</glyph>
<glyph name="ring" format="1">
  <advance width="596"/>
  <unicode hex="02DA"/>
  <outline>
    <contour>
      <point x="298" y="541" type="curve"/>
      <point x="367" y="541"/>
      <point x="423" y="597"/>
      <point x="423" y="667" type="curve"/>
      <point x="423" y="736"/>
      <point x="367" y="792"/>
      <point x="298" y="792" type="curve"/>
      <point x="229" y="792"/>
      <point x="173" y="736"/>
      <point x="173" y="667" type="curve"/>
      <point x="173" y="597"/>
      <point x="229" y="541"/>
    </contour>
    <contour>
      <point x="298" y="611" type="curve"/>
      <point x="268" y="611"/>
      <point x="244" y="636"/>
      <point x="244" y="667" type="curve"/>
      <point x="244" y="697"/>
      <point x="268" y="722"/>
      <point x="298" y="722" type="curve"/>
      <point x="328" y="722"/>
      <point x="352" y="697"/>
      <point x="352" y="667" type="curve"/>
      <point x="352" y="636"/>
      <point x="328" y="611"/>
    </contour>
  </outline>
</glyph>
<glyph name="gravecomb" format="1">
  <advance width="300.80625"/>
  <unicode hex="0300"/>
  <outline>
    <component base="grave" xOffset="-215.893"/>
    <contour>
      <point x="150.404" y="510" type="move" name="_top"/>
    </contour>
  </outline>
</glyph>
<glyph name="acutecomb" format="1">
  <advance width="300.80625"/>
  <unicode hex="0301"/>
  <outline>
    <component base="acute" xOffset="-10.299"/>
    <contour>
      <point x="150.403" y="510" type="move" name="_top"/>
    </contour>
  </outline>
</glyph>
<glyph name="dieresiscomb" format="1">
  <advance width="517.62188"/>
  <unicode hex="0308"/>
  <outline>
    <component base="dieresis"/>
    <contour>
      <point x="264.12" y="510" type="move" name="_top"/>
    </contour>
  </outline>
</glyph>
<glyph name="hungarumlautcomb" format="1">
  <advance width="517.63125"/>
  <unicode hex="030B"/>
  <outline>
    <component base="hungarumlaut" xOffset="-12.051"/>
    <contour>
      <point x="258.813" y="510" type="move" name="_top"/>
    </contour>
  </outline>
</glyph>
<glyph name="cedillacomb" format="1">
  <advance width="300.80625"/>
  <unicode hex="0327"/>
  <outline>
    <component base="period" xOffset="14.676" yOffset="-199.713"/>
    <contour>
      <point x="150.405" y="0" type="move" name="_bottom"/>
    </contour>
  </outline>
</glyph>
<glyph name="ogonekcomb" format="1">
  <advance width="300.79937"/>
  <unicode hex="0328"/>
  <outline>
    <component base="macroncomb" yOffset="-802.711"/>
    <contour>
      <point x="150.399" y="0" type="move" name="_ogonek"/>
    </contour>
  </outline>
</glyph>
<glyph name="strokeshortcomb" format="1">
  <advance width="509.375"/>
  <unicode hex="0335"/>
  <outline>
    <contour>
      <point x="434.375" y="425.875" type="line"/>
      <point x="75" y="425.875" type="line"/>
      <point x="75" y="357.438" type="line"/>
      <point x="434.375" y="357.438" type="line"/>
    </contour>
    <contour>
      <point x="254.688" y="391.656" type="move" name="_center"/>
    </contour>
  </outline>
</glyph>
<glyph name="strokelongcomb" format="1">
  <advance width="550"/>
  <unicode hex="0336"/>
  <outline>
    <contour>
      <point x="475" y="424" type="line"/>
      <point x="75" y="424" type="line"/>
      <point x="75" y="364" type="line"/>
      <point x="475" y="364" type="line"/>
    </contour>
    <contour>
      <point x="275" y="394" type="move" name="_center"/>
    </contour>
  </outline>
</glyph>
<glyph name="slashshortcomb" format="1">
  <advance width="595"/>
  <unicode hex="0337"/>
  <outline>
    <contour>
      <point x="520" y="511" type="line"/>
      <point x="483" y="564" type="line"/>
      <point x="75" y="284" type="line"/>
      <point x="110" y="231" type="line"/>
    </contour>
    <contour>
      <point x="297.5" y="397.5" type="move" name="_center"/>
    </contour>
  </outline>
</glyph>
<glyph name="slashlongcomb" format="1">
  <advance width="600.48438"/>
  <unicode hex="0338"/>
  <outline>
    <contour>
      <point x="525.483" y="690.398" type="line"/>
      <point x="471.483" y="720.398" type="line"/>
      <point x="75" y="2.625" type="line"/>
      <point x="127" y="-29.375" type="line"/>
    </contour>
    <contour>
      <point x="300.242" y="345.512" type="move" name="_center"/>
    </contour>
  </outline>
</glyph>
<glyph name="Delta" format="1">
  <advance width="747.25"/>
  <unicode hex="0394"/>
  <outline>
    <contour>
      <point x="707.25" y="0" type="line"/>
      <point x="373.625" y="700" type="line"/>
      <point x="40" y="0" type="line"/>
    </contour>
    <contour>
      <point x="211.877" y="101.875" type="line"/>
      <point x="373.625" y="468.375" type="line"/>
      <point x="535.373" y="101.875" type="line"/>
    </contour>
  </outline>
</glyph>
<glyph name="Omega" format="1">
  <advance width="814.375"/>
  <unicode hex="03A9"/>
  <outline>
    <contour>
      <point x="348.125" y="91.875" type="line"/>
      <point x="46.25" y="101.875" type="line"/>
      <point x="46.25" y="0" type="line"/>
      <point x="348.125" y="0" type="line"/>
    </contour>
    <contour>
      <point x="768.125" y="101.875" type="line"/>
      <point x="471.5" y="91.875" type="line"/>
      <point x="471.5" y="0" type="line"/>
      <point x="768.125" y="0" type="line"/>
    </contour>
    <contour>
      <point x="256.25" y="124.875" type="curve"/>
      <point x="348.125" y="151.875" type="line"/>
      <point x="251" y="180.75"/>
      <point x="153.125" y="237.125"/>
      <point x="153.125" y="353" type="curve"/>
      <point x="153.125" y="465.25"/>
      <point x="237.062" y="545.625"/>
      <point x="407.188" y="545.625" type="curve"/>
      <point x="577.312" y="545.625"/>
      <point x="661.25" y="465.25"/>
      <point x="661.25" y="353" type="curve"/>
      <point x="661.25" y="240.125"/>
      <point x="566" y="183.75"/>
      <point x="471.5" y="151.875" type="curve"/>
      <point x="559.438" y="123.875" type="line"/>
      <point x="667.062" y="144.75"/>
      <point x="794.375" y="218.75"/>
      <point x="794.375" y="366.125" type="curve"/>
      <point x="794.375" y="528.375"/>
      <point x="643.438" y="660"/>
      <point x="407.188" y="660" type="curve"/>
      <point x="170.938" y="660"/>
      <point x="20" y="528.375"/>
      <point x="20" y="366.125" type="curve"/>
      <point x="20" y="218.75"/>
      <point x="140.75" y="150.25"/>
    </contour>
    <contour>
      <point x="348.125" y="151.875" type="line"/>
      <point x="240.312" y="128" type="line"/>
      <point x="239.625" y="60.875" type="line"/>
      <point x="348.125" y="91.875" type="line"/>
    </contour>
    <contour>
      <point x="576.875" y="60.875" type="line"/>
      <point x="576.188" y="128" type="line"/>
      <point x="471.5" y="151.875" type="line"/>
      <point x="471.5" y="91.875" type="line"/>
    </contour>
    <contour>
      <point x="504.375" y="0" type="move" name="bottom"/>
    </contour>
    <contour>
      <point x="226.375" y="680" type="move" name="topleft"/>
    </contour>
  </outline>
</glyph>
<glyph name="pi" format="1">
  <advance width="782.5"/>
  <unicode hex="03C0"/>
  <outline>
    <contour>
      <point x="301.875" y="496.875" type="line"/>
      <point x="171.875" y="496.875" type="line"/>
      <point x="171.875" y="0" type="line"/>
      <point x="301.875" y="0" type="line"/>
    </contour>
    <contour>
      <point x="732.5" y="398.438" type="line"/>
      <point x="732.5" y="496.875" type="line"/>
      <point x="50" y="496.875" type="line"/>
      <point x="50" y="398.438" type="line"/>
    </contour>
    <contour>
      <point x="610.625" y="190.875" type="curve"/>
      <point x="610.625" y="496.875" type="line"/>
      <point x="480.625" y="496.875" type="line"/>
      <point x="480.625" y="184.625" type="line" smooth="yes"/>
      <point x="480.625" y="57.934"/>
      <point x="555.25" y="-10"/>
      <point x="731.812" y="-10" type="curve"/>
      <point x="731.812" y="91.875" type="line"/>
      <point x="641.25" y="91.875"/>
      <point x="610.625" y="103.829"/>
    </contour>
  </outline>
</glyph>
<glyph name="endash" format="1">
  <advance width="603.75"/>
  <unicode hex="2013"/>
  <outline>
    <contour>
      <point x="523.751" y="320.875" type="line"/>
      <point x="80" y="320.875" type="line"/>
      <point x="80" y="221.062" type="line"/>
      <point x="523.751" y="221.062" type="line"/>
    </contour>
  </outline>
</glyph>
<glyph name="emdash" format="1">
  <advance width="843.75"/>
  <unicode hex="2014"/>
  <outline>
    <contour>
      <point x="783.75" y="321.562" type="line"/>
      <point x="60" y="321.562" type="line"/>
      <point x="60" y="221.75" type="line"/>
      <point x="783.75" y="221.75" type="line"/>
    </contour>
  </outline>
</glyph>
<glyph name="dagger" format="1">
  <advance width="762.875"/>
  <unicode hex="2020"/>
  <outline>
    <contour>
      <point x="667.062" y="500" type="line"/>
      <point x="95.812" y="500" type="line"/>
      <point x="95.812" y="389.062" type="line"/>
      <point x="667.062" y="389.062" type="line"/>
    </contour>
    <contour>
      <point x="446.438" y="700" type="line"/>
      <point x="316.438" y="700" type="line"/>
      <point x="316.438" y="-200" type="line"/>
      <point x="446.438" y="-200" type="line"/>
    </contour>
  </outline>
</glyph>
<glyph name="daggerdbl" format="1">
  <advance width="731.625"/>
  <unicode hex="2021"/>
  <outline>
    <contour>
      <point x="300.812" y="700" type="line"/>
      <point x="300.812" y="-200" type="line"/>
      <point x="430.812" y="-200" type="line"/>
      <point x="430.812" y="700" type="line"/>
    </contour>
    <contour>
      <point x="80.188" y="115.75" type="line"/>
      <point x="80.188" y="4.812" type="line"/>
      <point x="651.438" y="4.812" type="line"/>
      <point x="651.438" y="115.75" type="line"/>
    </contour>
    <contour>
      <point x="80.188" y="500" type="line"/>
      <point x="80.188" y="389.062" type="line"/>
      <point x="651.438" y="389.062" type="line"/>
      <point x="651.438" y="500" type="line"/>
    </contour>
  </outline>
</glyph>
<glyph name="bullet" format="1">
  <advance width="455.84062"/>
  <unicode hex="2022"/>
  <outline>
    <contour>
      <point x="358.974" y="392.881" type="line"/>
      <point x="96.885" y="392.881" type="line"/>
      <point x="96.885" y="130.791" type="line"/>
      <point x="358.974" y="130.791" type="line"/>
    </contour>
  </outline>
</glyph>
<glyph name="perthousand" format="1">
  <advance width="1052.56625"/>
  <unicode hex="2030"/>
  <outline>
    <contour>
      <point x="227.742" y="332.885" type="curve"/>
      <point x="341.6" y="332.885"/>
      <point x="414.654" y="394.679"/>
      <point x="414.654" y="498.315" type="curve"/>
      <point x="414.654" y="602.575"/>
      <point x="341.6" y="664.161"/>
      <point x="227.742" y="664.161" type="curve"/>
      <point x="113.468" y="664.161"/>
      <point x="39.998" y="602.575"/>
      <point x="39.998" y="498.315" type="curve"/>
      <point x="39.998" y="394.679"/>
      <point x="113.468" y="332.885"/>
    </contour>
    <contour>
      <point x="227.742" y="414.88" type="curve"/>
      <point x="175.914" y="414.88"/>
      <point x="141.784" y="446.712"/>
      <point x="141.784" y="498.315" type="curve"/>
      <point x="141.784" y="549.918"/>
      <point x="176.331" y="582.167"/>
      <point x="227.742" y="582.167" type="curve"/>
      <point x="279.154" y="582.167"/>
      <point x="312.868" y="549.709"/>
      <point x="312.868" y="498.315" type="curve"/>
      <point x="312.868" y="446.712"/>
      <point x="278.738" y="414.88"/>
    </contour>
    <contour>
      <point x="825.656" y="247.728" type="curve"/>
      <point x="939.514" y="247.728"/>
      <point x="1012.567" y="309.522"/>
      <point x="1012.567" y="413.158" type="curve"/>
      <point x="1012.567" y="517.418"/>
      <point x="939.514" y="579.004"/>
      <point x="825.656" y="579.004" type="curve"/>
      <point x="711.382" y="579.004"/>
      <point x="637.912" y="517.418"/>
      <point x="637.912" y="413.158" type="curve"/>
      <point x="637.912" y="309.522"/>
      <point x="711.382" y="247.728"/>
    </contour>
    <contour>
      <point x="825.656" y="329.723" type="curve"/>
      <point x="773.828" y="329.723"/>
      <point x="739.697" y="361.556"/>
      <point x="739.697" y="413.158" type="curve"/>
      <point x="739.697" y="464.761"/>
      <point x="774.244" y="497.01"/>
      <point x="825.656" y="497.01" type="curve"/>
      <point x="877.403" y="497.01"/>
      <point x="910.781" y="464.552"/>
      <point x="910.781" y="413.158" type="curve"/>
      <point x="910.781" y="361.556"/>
      <point x="876.651" y="329.723"/>
    </contour>
    <contour>
      <point x="631.988" y="-99.867" type="curve"/>
      <point x="745.846" y="-99.867"/>
      <point x="818.899" y="-38.073"/>
      <point x="818.899" y="65.563" type="curve"/>
      <point x="818.899" y="169.02"/>
      <point x="746.472" y="231.409"/>
      <point x="631.988" y="231.409" type="curve"/>
      <point x="517.714" y="231.409"/>
      <point x="444.244" y="169.823"/>
      <point x="444.244" y="65.563" type="curve"/>
      <point x="444.244" y="-38.073"/>
      <point x="517.714" y="-99.867"/>
    </contour>
    <contour>
      <point x="631.988" y="-17.872" type="curve"/>
      <point x="580.16" y="-17.872"/>
      <point x="546.03" y="13.96"/>
      <point x="546.03" y="65.563" type="curve"/>
      <point x="546.03" y="117.166"/>
      <point x="580.577" y="149.415"/>
      <point x="631.988" y="149.415" type="curve"/>
      <point x="683.4" y="149.415"/>
      <point x="717.113" y="116.957"/>
      <point x="717.113" y="65.563" type="curve"/>
      <point x="717.113" y="13.96"/>
      <point x="682.983" y="-17.872"/>
    </contour>
    <component base="fraction" xOffset="408.266" yOffset="-14.049"/>
  </outline>
</glyph>
<glyph name="guilsinglleft" format="1">
  <advance width="423.49375"/>
  <unicode hex="2039"/>
  <outline>
    <contour>
      <point x="301.259" y="540.313" type="line"/>
      <point x="60" y="279.055" type="line"/>
      <point x="130.469" y="215.462" type="line"/>
      <point x="373.053" y="471.171" type="line"/>
    </contour>
    <contour>
      <point x="130.469" y="342.648" type="line"/>
      <point x="60" y="279.055" type="line"/>
      <point x="301.259" y="17.797" type="line"/>
      <point x="373.495" y="86.497" type="line"/>
    </contour>
  </outline>
</glyph>
<glyph name="fraction" format="1">
  <advance width="84"/>
  <unicode hex="2044"/>
  <outline>
    <contour>
      <point x="264" y="670" type="line"/>
      <point x="210" y="700" type="line"/>
      <point x="-170" y="12" type="line"/>
      <point x="-118" y="-20" type="line"/>
    </contour>
  </outline>
</glyph>
<glyph name="euro" format="1">
  <advance width="964.265"/>
  <unicode hex="20AC"/>
  <outline>
    <contour>
      <point x="20" y="232.625" type="line"/>
      <point x="510.875" y="232.625" type="line"/>
      <point x="565.375" y="288.875" type="line"/>
      <point x="80.312" y="288.875" type="line"/>
    </contour>
    <contour>
      <point x="20" y="342" type="line"/>
      <point x="615.625" y="342" type="line"/>
      <point x="670.125" y="401.375" type="line"/>
      <point x="80.312" y="401.375" type="line"/>
    </contour>
    <contour>
      <point x="289.686" y="244.134" type="curve"/>
      <point x="145.728" y="243.89" type="line"/>
      <point x="178.05" y="76.645"/>
      <point x="340.631" y="-13.125"/>
      <point x="549.25" y="-13.125" type="curve"/>
      <point x="760.566" y="-13.125"/>
      <point x="893.625" y="76.135"/>
      <point x="911.13" y="233.105" type="curve"/>
      <point x="779.001" y="233.105" type="line"/>
      <point x="751.798" y="150.162"/>
      <point x="674.984" y="100.75"/>
      <point x="549.25" y="100.75" type="curve"/>
      <point x="421.535" y="100.75"/>
      <point x="323.794" y="148.526"/>
    </contour>
    <contour>
      <point x="728.378" y="473.151" type="curve"/>
      <point x="819.587" y="569.375" type="line"/>
      <point x="757.574" y="627.116"/>
      <point x="657.295" y="660"/>
      <point x="527.375" y="660" type="curve"/>
      <point x="322.62" y="660"/>
      <point x="166.747" y="563.098"/>
      <point x="142.219" y="375.076" type="curve"/>
      <point x="281.762" y="375.076" type="line"/>
      <point x="307.356" y="484.322"/>
      <point x="409.167" y="543"/>
      <point x="549.25" y="543" type="curve"/>
      <point x="624.61" y="543"/>
      <point x="688.125" y="518.776"/>
    </contour>
    <contour>
      <point x="404.562" y="0" type="move" name="bottom"/>
    </contour>
    <contour>
      <point x="425.562" y="340" type="move" name="center"/>
    </contour>
    <contour>
      <point x="721.562" y="10" type="move" name="ogonek"/>
    </contour>
    <contour>
      <point x="404.562" y="680" type="move" name="top"/>
    </contour>
    <contour>
      <point x="75.562" y="680" type="move" name="topleft"/>
    </contour>
    <contour>
      <point x="775.562" y="680" type="move" name="topright"/>
    </contour>
  </outline>
</glyph>
<glyph name="trademark" format="1">
  <advance width="1114.72"/>
  <unicode hex="2122"/>
  <outline>
    <contour>
      <point x="455.627" y="646.875" type="line"/>
      <point x="76.877" y="646.875" type="line"/>
      <point x="76.877" y="551.562" type="line"/>
      <point x="455.627" y="551.562" type="line"/>
    </contour>
    <contour>
      <point x="323.439" y="646.875" type="line"/>
      <point x="205.939" y="646.875" type="line"/>
      <point x="205.939" y="396.875" type="line"/>
      <point x="323.439" y="396.875" type="line"/>
    </contour>
    <contour>
      <point x="645.348" y="646.875" type="line"/>
      <point x="586.223" y="599.312" type="line"/>
      <point x="724.097" y="395.312" type="line"/>
      <point x="840.129" y="395.312" type="line"/>
    </contour>
    <contour>
      <point x="841.597" y="395.312" type="line"/>
      <point x="978.004" y="599.312" type="line"/>
      <point x="920.348" y="646.875" type="line"/>
      <point x="724.097" y="395.312" type="line"/>
    </contour>
    <contour>
      <point x="1037.848" y="646.875" type="line"/>
      <point x="920.348" y="646.875" type="line"/>
      <point x="921.723" y="396.875" type="line"/>
      <point x="1037.848" y="396.875" type="line"/>
    </contour>
    <contour>
      <point x="645.348" y="646.875" type="line"/>
      <point x="527.848" y="646.875" type="line"/>
      <point x="527.848" y="396.875" type="line"/>
      <point x="643.973" y="396.875" type="line"/>
    </contour>
    <contour>
      <point x="1037.848" y="326.562" type="line"/>
      <point x="88.439" y="326.562" type="line"/>
      <point x="88.439" y="232.625" type="line"/>
      <point x="1037.848" y="232.625" type="line"/>
    </contour>
    <contour>
      <point x="365.675" y="0" type="move" name="bottom"/>
    </contour>
    <contour>
      <point x="365.675" y="340" type="move" name="center"/>
    </contour>
    <contour>
      <point x="365.675" y="680" type="move" name="top"/>
    </contour>
  </outline>
</glyph>
<glyph name="leftArrow" format="1">
  <advance width="873.47375"/>
  <unicode hex="2190"/>
  <outline>
    <contour>
      <point x="833.473" y="229.781" type="line"/>
      <point x="833.473" y="328.219" type="line"/>
      <point x="312.207" y="328.219" type="line"/>
      <point x="170.348" y="325.094" type="line"/>
      <point x="170.348" y="232.906" type="line"/>
      <point x="312.207" y="229.781" type="line"/>
    </contour>
    <component base="guilsinglright" xScale="-1" xOffset="423.490"/>
  </outline>
</glyph>
<glyph name="rightArrow" format="1">
  <advance width="873.47375"/>
  <unicode hex="2192"/>
  <outline>
    <contour>
      <point x="561.263" y="328.219" type="line"/>
      <point x="39.997" y="328.219" type="line"/>
      <point x="39.997" y="229.781" type="line"/>
      <point x="561.263" y="229.781" type="line"/>
      <point x="693.122" y="232.906" type="line"/>
      <point x="693.122" y="325.094" type="line"/>
    </contour>
    <component base="guilsinglright" xOffset="449.980"/>
  </outline>
</glyph>
<glyph name="leftRightArrow" format="1">
  <advance width="1073.9675"/>
  <unicode hex="2194"/>
  <outline>
    <contour>
      <point x="297.028" y="328.219" type="line"/>
      <point x="190.491" y="325.094" type="line"/>
      <point x="190.491" y="232.906" type="line"/>
      <point x="297.028" y="229.781" type="line"/>
      <point x="776.714" y="229.781" type="line"/>
      <point x="880.491" y="232.906" type="line"/>
      <point x="880.491" y="325.094" type="line"/>
      <point x="776.714" y="328.219" type="line"/>
    </contour>
    <component base="guilsinglright" xScale="-1" xOffset="423.491"/>
    <component base="guilsinglright" xOffset="650.474"/>
  </outline>
</glyph>
<glyph name="upDownArrow" format="1">
  <advance width="702.51562"/>
  <unicode hex="2195"/>
  <outline>
    <contour>
      <point x="400.42" y="543.329" type="line"/>
      <point x="397.295" y="649.866" type="line"/>
      <point x="305.107" y="649.866" type="line"/>
      <point x="301.982" y="543.329" type="line"/>
      <point x="301.982" y="94.893" type="line"/>
      <point x="305.107" y="-8.884" type="line"/>
      <point x="397.295" y="-8.884" type="line"/>
      <point x="400.42" y="94.893" type="line"/>
    </contour>
    <component base="guilsinglright" xScale="0" xyScale="1" yScale="0" yxScale="1" xOffset="72.201" yOffset="416.866"/>
    <component base="guilsinglright" xScale="0" xyScale="-1" yScale="0" yxScale="1" xOffset="72.201" yOffset="221.134"/>
  </outline>
</glyph>
<glyph name="partialdiff" format="1">
  <advance width="702.4375"/>
  <unicode hex="2202"/>
  <outline>
    <contour>
      <point x="344" y="-11.562" type="curve"/>
      <point x="522.657" y="-11.562"/>
      <point x="649.312" y="101.946"/>
      <point x="649.312" y="261.878" type="curve"/>
      <point x="548.062" y="249" type="line"/>
      <point x="548.062" y="391.628"/>
      <point x="464.173" y="499.062"/>
      <point x="295.875" y="499.062" type="curve"/>
      <point x="148.312" y="499.062"/>
      <point x="36.375" y="404.769"/>
      <point x="36.375" y="247.75" type="curve"/>
      <point x="36.375" y="92.688"/>
      <point x="152.5" y="-11.562"/>
    </contour>
    <contour>
      <point x="350.25" y="89.188" type="curve"/>
      <point x="239.868" y="89.188"/>
      <point x="169.188" y="147.312"/>
      <point x="169.188" y="244.312" type="curve"/>
      <point x="169.188" y="339.123"/>
      <point x="235.85" y="399.875"/>
      <point x="347.125" y="399.875" type="curve"/>
      <point x="447.605" y="399.875"/>
      <point x="534.938" y="344"/>
      <point x="534.938" y="245.875" type="curve"/>
      <point x="534.938" y="149"/>
      <point x="453.188" y="89.188"/>
    </contour>
    <contour>
      <point x="181.203" y="708.822" type="curve"/>
      <point x="161.243" y="613.611" type="line"/>
      <point x="468.177" y="549.589"/>
      <point x="544.752" y="416.483"/>
      <point x="534.938" y="243.875" type="curve"/>
      <point x="649.312" y="261.878" type="line"/>
      <point x="649.312" y="416.089"/>
      <point x="565.375" y="632.758"/>
    </contour>
  </outline>
</glyph>
<glyph name="emptyset" format="1">
  <advance width="795.60625"/>
  <unicode hex="2205"/>
  <outline>
    <contour>
      <point x="398.418" y="31.899" type="curve"/>
      <point x="602.104" y="31.899"/>
      <point x="735.608" y="139.779"/>
      <point x="735.608" y="302.84" type="curve"/>
      <point x="735.608" y="465.589"/>
      <point x="602.104" y="574.406"/>
      <point x="398.418" y="574.406" type="curve"/>
      <point x="194.106" y="574.406"/>
      <point x="59.977" y="465.589"/>
      <point x="59.977" y="302.84" type="curve"/>
      <point x="59.977" y="139.779"/>
      <point x="194.106" y="31.899"/>
    </contour>
    <contour>
      <point x="398.418" y="128.274" type="curve"/>
      <point x="273.693" y="128.274"/>
      <point x="186.04" y="202.803"/>
      <point x="186.04" y="302.84" type="curve"/>
      <point x="186.04" y="402.877"/>
      <point x="274.318" y="478.031"/>
      <point x="398.418" y="478.031" type="curve"/>
      <point x="522.517" y="478.031"/>
      <point x="609.546" y="402.565"/>
      <point x="609.546" y="302.84" type="curve"/>
      <point x="609.546" y="202.803"/>
      <point x="521.892" y="128.274"/>
    </contour>
    <contour>
      <point x="163.212" y="-33.093" type="line"/>
      <point x="223.833" y="-68.093" type="line"/>
      <point x="631.333" y="637.718" type="line"/>
      <point x="570.712" y="672.718" type="line"/>
    </contour>
  </outline>
</glyph>
<glyph name="product" format="1">
  <advance width="856.875"/>
  <unicode hex="220F"/>
  <outline>
    <contour>
      <point x="322.188" y="646.875" type="line"/>
      <point x="192.188" y="646.875" type="line"/>
      <point x="192.188" y="0" type="line"/>
      <point x="322.188" y="0" type="line"/>
    </contour>
    <contour>
      <point x="816.562" y="534.562" type="line"/>
      <point x="816.562" y="646.875" type="line"/>
      <point x="40.312" y="646.875" type="line"/>
      <point x="40.312" y="534.562" type="line"/>
    </contour>
    <contour>
      <point x="534.688" y="0" type="line"/>
      <point x="664.688" y="0" type="line"/>
      <point x="664.688" y="646.875" type="line"/>
      <point x="534.688" y="646.875" type="line"/>
    </contour>
  </outline>
</glyph>
<glyph name="summation" format="1">
  <advance width="726.625"/>
  <unicode hex="2211"/>
  <outline>
    <contour>
      <point x="635.25" y="646.875" type="line"/>
      <point x="84" y="646.875" type="line"/>
      <point x="84" y="533.188" type="line"/>
      <point x="329.188" y="295.875" type="line"/>
      <point x="355.438" y="356.875" type="line"/>
      <point x="84" y="109.562" type="line"/>
      <point x="84" y="0" type="line"/>
      <point x="635.25" y="0" type="line"/>
      <point x="635.25" y="110.938" type="line"/>
      <point x="173.25" y="110.938" type="line"/>
      <point x="173.875" y="52" type="line"/>
      <point x="486.312" y="313.875" type="line"/>
      <point x="169.938" y="597.875" type="line"/>
      <point x="173.25" y="535.938" type="line"/>
      <point x="635.25" y="535.938" type="line"/>
    </contour>
  </outline>
</glyph>
<glyph name="minus" format="1">
  <advance width="490"/>
  <unicode hex="2212"/>
  <outline>
    <contour>
      <point x="440" y="318.875" type="line"/>
      <point x="50" y="318.875" type="line"/>
      <point x="50" y="221.125" type="line"/>
      <point x="440" y="221.125" type="line"/>
    </contour>
  </outline>
</glyph>
<glyph name="radical" format="1">
  <advance width="807.2325"/>
  <unicode hex="221A"/>
  <outline>
    <contour>
      <point x="518.482" y="646.803" type="line"/>
      <point x="249.311" y="-0.072" type="line"/>
      <point x="371.499" y="-0.072" type="line"/>
      <point x="652.786" y="646.803" type="line"/>
    </contour>
    <contour>
      <point x="15.311" y="496.803" type="line"/>
      <point x="249.311" y="-0.072" type="line"/>
      <point x="370.124" y="-0.072" type="line"/>
      <point x="157.624" y="496.803" type="line"/>
    </contour>
    <contour>
      <point x="518.499" y="646.875" type="line"/>
      <point x="518.499" y="535.938" type="line"/>
      <point x="794.107" y="535.938" type="line"/>
      <point x="794.107" y="646.875" type="line"/>
    </contour>
  </outline>
</glyph>
<glyph name="infinity" format="1">
  <advance width="1103.86625"/>
  <unicode hex="221E"/>
  <outline>
    <contour>
      <point x="180.75" y="295.601" type="curve"/>
      <point x="180.75" y="365.509"/>
      <point x="241.824" y="411.521"/>
      <point x="307.075" y="411.521" type="curve"/>
      <point x="534.147" y="411.521"/>
      <point x="539.708" y="80.475"/>
      <point x="809.288" y="80.475" type="curve"/>
      <point x="950.698" y="80.475"/>
      <point x="1050.738" y="173.113"/>
      <point x="1050.738" y="294.748" type="curve"/>
      <point x="1050.738" y="415.853"/>
      <point x="950.195" y="508.373"/>
      <point x="815.538" y="508.373" type="curve"/>
      <point x="539.608" y="508.373"/>
      <point x="540.297" y="176.896"/>
      <point x="313.325" y="176.896" type="curve"/>
      <point x="247.935" y="176.896"/>
      <point x="180.75" y="223.268"/>
    </contour>
    <contour>
      <point x="53.125" y="295.601" type="curve"/>
      <point x="53.125" y="174.073"/>
      <point x="153.2" y="81.163"/>
      <point x="294.575" y="81.163" type="curve"/>
      <point x="564.155" y="81.163"/>
      <point x="588.466" y="412.209"/>
      <point x="796.788" y="412.209" type="curve"/>
      <point x="861.939" y="412.209"/>
      <point x="923.113" y="365.532"/>
      <point x="923.113" y="294.748" type="curve"/>
      <point x="923.113" y="222.605"/>
      <point x="855.942" y="176.208"/>
      <point x="790.538" y="176.208" type="curve"/>
      <point x="582.316" y="176.208"/>
      <point x="567.379" y="508.373"/>
      <point x="288.325" y="508.373" type="curve"/>
      <point x="153.568" y="508.373"/>
      <point x="53.125" y="415.837"/>
    </contour>
  </outline>
</glyph>
<glyph name="integral" format="1">
  <advance width="503.5"/>
  <unicode hex="222B"/>
  <outline>
    <contour>
      <point x="186.75" y="590" type="line"/>
      <point x="186.75" y="94.375" type="line"/>
      <point x="316.75" y="60" type="line"/>
      <point x="316.75" y="555.625" type="line"/>
    </contour>
    <contour>
      <point x="480.379" y="760" type="line"/>
      <point x="356.75" y="760" type="line"/>
      <point x="256.75" y="760"/>
      <point x="186.75" y="710"/>
      <point x="186.75" y="590" type="curve"/>
      <point x="316.75" y="555.625" type="line"/>
      <point x="316.75" y="627.028"/>
      <point x="356.75" y="646.568"/>
      <point x="406.75" y="645.625" type="curve"/>
      <point x="480.379" y="645.625" type="line"/>
    </contour>
    <contour>
      <point x="23.121" y="-110" type="line"/>
      <point x="143.625" y="-110" type="line"/>
      <point x="243.625" y="-110"/>
      <point x="316.75" y="-60"/>
      <point x="316.75" y="60" type="curve"/>
      <point x="186.75" y="94.375" type="line"/>
      <point x="186.75" y="22.972"/>
      <point x="146.75" y="3.432"/>
      <point x="96.75" y="4.375" type="curve"/>
      <point x="23.121" y="4.375" type="line"/>
    </contour>
    <contour>
      <point x="299.125" y="0" type="move" name="bottom"/>
    </contour>
    <contour>
      <point x="299.125" y="500" type="move" name="top"/>
    </contour>
  </outline>
</glyph>
<glyph name="approxequal" format="1">
  <advance width="622.23562"/>
  <unicode hex="2248"/>
  <outline>
    <contour>
      <point x="571.602" y="443.292" type="curve"/>
      <point x="476.227" y="443.292" type="line"/>
      <point x="476.227" y="418.292"/>
      <point x="467.008" y="391.292"/>
      <point x="427.163" y="391.292" type="curve"/>
      <point x="357.854" y="391.292"/>
      <point x="297.27" y="465.369"/>
      <point x="201.285" y="465.369" type="curve"/>
      <point x="96.39" y="465.369"/>
      <point x="43.721" y="395.913"/>
      <point x="50.596" y="314.244" type="curve"/>
      <point x="145.971" y="314.244" type="line"/>
      <point x="145.971" y="339.244"/>
      <point x="168.36" y="366.244"/>
      <point x="208.205" y="366.244" type="curve"/>
      <point x="277.515" y="366.244"/>
      <point x="338.099" y="292.167"/>
      <point x="434.083" y="292.167" type="curve"/>
      <point x="528.934" y="292.167"/>
      <point x="578.477" y="360.677"/>
    </contour>
    <contour>
      <point x="571.602" y="244.417" type="curve"/>
      <point x="482.477" y="244.417" type="line"/>
      <point x="482.477" y="219.417"/>
      <point x="467.008" y="192.417"/>
      <point x="427.163" y="192.417" type="curve"/>
      <point x="357.854" y="192.417"/>
      <point x="297.27" y="266.494"/>
      <point x="201.285" y="266.494" type="curve"/>
      <point x="96.39" y="266.494"/>
      <point x="43.721" y="197.087"/>
      <point x="50.596" y="115.369" type="curve"/>
      <point x="145.971" y="115.369" type="line"/>
      <point x="145.971" y="140.369"/>
      <point x="168.36" y="167.369"/>
      <point x="208.205" y="167.369" type="curve"/>
      <point x="277.515" y="167.369"/>
      <point x="338.099" y="93.292"/>
      <point x="434.083" y="93.292" type="curve"/>
      <point x="528.934" y="93.292"/>
      <point x="578.477" y="165.76"/>
    </contour>
  </outline>
</glyph>
<glyph name="notequal" format="1">
  <advance width="585.625"/>
  <unicode hex="2260"/>
  <outline>
    <contour>
      <point x="335.825" y="554.125" type="line"/>
      <point x="186" y="23.475" type="line"/>
      <point x="249.8" y="5.875" type="line"/>
      <point x="399.625" y="536.525" type="line"/>
    </contour>
    <component base="equal"/>
  </outline>
</glyph>
<glyph name="greaterequal" format="1">
  <advance width="542.77188"/>
  <unicode hex="2265"/>
  <outline>
    <contour>
      <point x="462.5" y="61.875" type="line"/>
      <point x="106.875" y="61.875" type="line"/>
      <point x="106.875" y="-10" type="line"/>
      <point x="462.5" y="-10" type="line"/>
    </contour>
    <contour>
      <point x="475.897" y="357.939" type="line"/>
      <point x="141.809" y="528.167" type="line"/>
      <point x="98.539" y="438.046" type="line"/>
      <point x="475.897" y="257.479" type="line"/>
    </contour>
    <contour>
      <point x="93.726" y="209.622" type="line"/>
      <point x="128.059" y="112.252" type="line"/>
      <point x="475.897" y="248.104" type="line"/>
      <point x="475.897" y="348.564" type="line"/>
    </contour>
  </outline>
</glyph>
<glyph name="lozenge" format="1">
  <advance width="691.625"/>
  <unicode hex="25CA"/>
  <outline>
    <contour>
      <point x="641.625" y="337" type="line"/>
      <point x="345.312" y="680" type="line"/>
      <point x="50" y="337" type="line"/>
      <point x="346.312" y="-6" type="line"/>
    </contour>
    <contour>
      <point x="180.875" y="337" type="line"/>
      <point x="345.312" y="528.875" type="line"/>
      <point x="510.75" y="337" type="line"/>
      <point x="346.312" y="145.125" type="line"/>
    </contour>
  </outline>
</glyph>
<glyph name="apple" format="1">
  <advance width="860"/>
  <unicode hex="F8FF"/>
  <outline>
    <contour>
      <point x="430" y="-10" type="curve"/>
      <point x="658" y="-10"/>
      <point x="830" y="121"/>
      <point x="830" y="325" type="curve"/>
      <point x="830" y="529"/>
      <point x="658" y="660"/>
      <point x="430" y="660" type="curve"/>
      <point x="202" y="660"/>
      <point x="30" y="529"/>
      <point x="30" y="325" type="curve"/>
      <point x="30" y="121"/>
      <point x="202" y="-10"/>
    </contour>
    <contour>
      <point x="430" y="41.2" type="curve"/>
      <point x="244.7" y="41.2"/>
      <point x="91" y="140.2"/>
      <point x="91" y="325" type="curve"/>
      <point x="91" y="508.7"/>
      <point x="244.7" y="608.8"/>
      <point x="430" y="608.8" type="curve"/>
      <point x="615.3" y="608.8"/>
      <point x="769" y="508.7"/>
      <point x="769" y="325" type="curve"/>
      <point x="769" y="140.2"/>
      <point x="615.3" y="41.2"/>
    </contour>
    <contour>
      <point x="452.5" y="628.605" type="line"/>
      <point x="407.5" y="628.605" type="line"/>
      <point x="407.5" y="26.582" type="line"/>
      <point x="452.5" y="26.582" type="line"/>
    </contour>
    <contour>
      <point x="48.989" y="345" type="line"/>
      <point x="48.988" y="305" type="line"/>
      <point x="811.012" y="305" type="line"/>
      <point x="811.012" y="345" type="line"/>
    </contour>
    <contour>
      <point x="430" y="629.545" type="curve"/>
      <point x="276.364" y="629.545"/>
      <point x="200.909" y="466.818"/>
      <point x="200.909" y="325" type="curve"/>
      <point x="200.909" y="193.182"/>
      <point x="276.364" y="20.455"/>
      <point x="430" y="20.455" type="curve"/>
      <point x="583.636" y="20.455"/>
      <point x="659.091" y="193.182"/>
      <point x="659.091" y="325" type="curve"/>
      <point x="659.091" y="466.818"/>
      <point x="583.636" y="629.545"/>
    </contour>
    <contour>
      <point x="430" y="44.5" type="curve"/>
      <point x="306.7" y="44.5"/>
      <point x="245" y="196.7"/>
      <point x="245" y="325" type="curve"/>
      <point x="245" y="463.3"/>
      <point x="306.7" y="605.5"/>
      <point x="430" y="605.5" type="curve"/>
      <point x="553.3" y="605.5"/>
      <point x="615" y="463.3"/>
      <point x="615" y="325" type="curve"/>
      <point x="615" y="196.7"/>
      <point x="553.3" y="44.5"/>
    </contour>
    <contour>
      <point x="739.12" y="515.505" type="curve"/>
      <point x="716.487" y="536.849" type="line"/>
      <point x="669.201" y="492.695"/>
      <point x="585.002" y="471.882"/>
      <point x="428.218" y="471.882" type="curve"/>
      <point x="280.63" y="471.882"/>
      <point x="201.903" y="489.265"/>
      <point x="152.976" y="525.961" type="curve"/>
      <point x="123" y="509.364" type="line"/>
      <point x="176.735" y="453.912"/>
      <point x="269.677" y="427.791"/>
      <point x="428.218" y="427.791" type="curve"/>
      <point x="590.691" y="427.791"/>
      <point x="686.414" y="455.839"/>
    </contour>
    <contour>
      <point x="716.487" y="119.73" type="curve"/>
      <point x="739.12" y="141.074" type="line"/>
      <point x="686.414" y="200.74"/>
      <point x="590.691" y="228.788"/>
      <point x="428.218" y="228.788" type="curve"/>
      <point x="269.677" y="228.788"/>
      <point x="176.735" y="202.667"/>
      <point x="123.001" y="147.215" type="curve"/>
      <point x="152.976" y="130.618" type="line"/>
      <point x="201.903" y="167.314"/>
      <point x="280.63" y="184.697"/>
      <point x="428.218" y="184.697" type="curve"/>
      <point x="585.002" y="184.697"/>
      <point x="669.201" y="163.884"/>
    </contour>
  </outline>
</glyph>
<glyph name="fi" format="1">
  <advance width="713.3725"/>
  <unicode hex="FB01"/>
  <outline>
    <contour>
      <point x="387.216" y="473.75" type="line"/>
      <point x="387.216" y="375.315" type="line"/>
      <point x="635.583" y="375.315" type="line"/>
      <point x="635.583" y="473.75" type="line"/>
    </contour>
    <contour>
      <point x="654.935" y="473.75" type="line"/>
      <point x="524.935" y="473.75" type="line"/>
      <point x="524.935" y="0" type="line"/>
      <point x="654.935" y="0" type="line"/>
    </contour>
    <contour>
      <point x="137.122" y="523.75" type="line"/>
      <point x="137.122" y="0" type="line"/>
      <point x="267.122" y="0" type="line"/>
      <point x="267.122" y="508.125" type="line"/>
    </contour>
    <contour>
      <point x="654.935" y="696.875" type="line"/>
      <point x="328.998" y="696.875" type="line"/>
      <point x="203.998" y="696.875"/>
      <point x="137.122" y="643.75"/>
      <point x="137.122" y="523.75" type="curve"/>
      <point x="267.122" y="508.125" type="line"/>
      <point x="267.122" y="576.403"/>
      <point x="300.872" y="593.247"/>
      <point x="360.248" y="591.875" type="curve"/>
      <point x="654.935" y="591.875" type="line"/>
    </contour>
    <contour>
      <point x="425.248" y="473.75" type="line"/>
      <point x="24.998" y="473.75" type="line"/>
      <point x="24.998" y="375.312" type="line"/>
      <point x="425.248" y="375.312" type="line"/>
    </contour>
    <contour>
      <point x="251.998" y="0" type="move" name="bottom"/>
    </contour>
    <contour>
      <point x="285.598" y="0" type="move" name="caret_1"/>
    </contour>
    <contour>
      <point x="251.998" y="500" type="move" name="top"/>
    </contour>
  </outline>
</glyph>
<glyph name="Eogonek.ss03" format="1">
  <advance width="769.4375"/>
  <outline>
    <component base="E"/>
    <component base="ogonekcomb.ss03" xOffset="414.189"/>
    <contour>
      <point x="300" y="680" type="move" name="top"/>
    </contour>
  </outline>
</glyph>
<glyph name="SPACING" format="1">
  <advance width="596"/>
  <outline>
    <contour>
      <point x="78" y="800" type="line"/>
      <point x="-2" y="800" type="line"/>
      <point x="-2" y="-200" type="line"/>
      <point x="78" y="-200" type="line"/>
    </contour>
    <contour>
      <point x="598" y="800" type="line"/>
      <point x="518" y="800" type="line"/>
      <point x="518" y="-200" type="line"/>
      <point x="598" y="-200" type="line"/>
    </contour>
  </outline>
</glyph>
<glyph name="T_h" format="1">
  <advance width="1320.9375"/>
  <outline>
    <contour>
      <point x="818.312" y="646.875" type="line"/>
      <point x="688.312" y="646.875" type="line"/>
      <point x="688.312" y="0" type="line"/>
      <point x="818.312" y="0" type="line"/>
    </contour>
    <contour>
      <point x="1263.562" y="322.625" type="line"/>
      <point x="1133.562" y="277.625" type="line"/>
      <point x="1133.562" y="0" type="line"/>
      <point x="1263.562" y="0" type="line"/>
    </contour>
    <contour>
      <point x="1133.562" y="277.625" type="curve"/>
      <point x="1263.562" y="322.625" type="line"/>
      <point x="1263.562" y="472"/>
      <point x="1150.062" y="514.688"/>
      <point x="1047.688" y="514.688" type="curve"/>
      <point x="866.438" y="514.688"/>
      <point x="817" y="367.125"/>
      <point x="810.438" y="328.125" type="curve"/>
      <point x="811.75" y="273.25" type="line"/>
      <point x="811.75" y="274.498"/>
      <point x="855.438" y="401.875"/>
      <point x="992.312" y="401.875" type="curve"/>
      <point x="1087.5" y="401.875"/>
      <point x="1133.562" y="367.625"/>
    </contour>
    <component base="T"/>
    <contour>
      <point x="745" y="0" type="move" name="bottom"/>
    </contour>
    <contour>
      <point x="745" y="250" type="move" name="center"/>
    </contour>
    <contour>
      <point x="780" y="510" type="move" name="top"/>
    </contour>
  </outline>
</glyph>
<glyph name="Uogonek.ss03" format="1">
  <advance width="880.625"/>
  <outline>
    <contour>
      <point x="642.917" y="-227.5" type="curve"/>
      <point x="642.917" y="-159.062" type="line"/>
      <point x="570.105" y="-159.062"/>
      <point x="521.699" y="-131.562"/>
      <point x="521.699" y="-83.438" type="curve"/>
      <point x="521.699" y="-38.75"/>
      <point x="560.886" y="-11.562"/>
      <point x="616.011" y="9.312" type="curve"/>
      <point x="616.011" y="28.188" type="line"/>
      <point x="506.074" y="7.312"/>
      <point x="420.761" y="-22.562"/>
      <point x="420.761" y="-102.812" type="curve"/>
      <point x="420.761" y="-179.938"/>
      <point x="506.73" y="-227.5"/>
    </contour>
    <component base="U"/>
    <contour>
      <point x="528.822" y="-4.688" type="move" name="_ogonek"/>
    </contour>
  </outline>
</glyph>
<glyph name="acute.ss03" format="1">
  <advance width="493.46875"/>
  <outline>
    <contour>
      <point x="231.28" y="759.329" type="line"/>
      <point x="95.439" y="601.337" type="line"/>
      <point x="219.31" y="601.337" type="line"/>
      <point x="403.468" y="759.329" type="line"/>
    </contour>
  </outline>
</glyph>
<glyph name="acutecomb.ss03" format="1">
  <advance width="484.09375"/>
  <outline>
    <component base="acute.ss03"/>
    <contour>
      <point x="165.396" y="510" type="move" name="_top"/>
    </contour>
  </outline>
</glyph>
<glyph name="ampersand.case" format="1">
  <advance width="788.2575"/>
  <outline>
    <contour>
      <point x="768.564" y="280.348" type="line"/>
      <point x="768.564" y="385.348" type="line"/>
      <point x="174.077" y="385.348" type="line"/>
      <point x="174.077" y="280.348" type="line"/>
    </contour>
    <contour>
      <point x="632.091" y="338.117" type="line"/>
      <point x="508.966" y="338.117" type="line"/>
      <point x="508.966" y="-146.349" type="line"/>
      <point x="632.091" y="-146.349" type="line"/>
    </contour>
    <contour>
      <point x="457.217" y="646.875" type="line"/>
      <point x="174.875" y="646.875" type="line"/>
      <point x="174.875" y="535.938" type="line"/>
      <point x="457.217" y="535.938" type="line"/>
    </contour>
    <contour>
      <point x="591.496" y="110.938" type="line"/>
      <point x="174.875" y="110.938" type="line"/>
      <point x="174.875" y="0" type="line"/>
      <point x="591.496" y="0" type="line"/>
    </contour>
    <contour>
      <point x="206.875" y="646.875" type="line"/>
      <point x="76.875" y="646.875" type="line"/>
      <point x="76.875" y="0" type="line"/>
      <point x="206.875" y="0" type="line"/>
    </contour>
  </outline>
</glyph>
<glyph name="ampersand.ss01" format="1">
  <advance width="802.10938"/>
  <outline>
    <contour>
      <point x="92.126" y="548.438" type="line"/>
      <point x="646.267" y="0" type="line"/>
      <point x="781.486" y="0" type="line"/>
      <point x="150.204" y="646.875" type="line"/>
    </contour>
    <contour>
      <point x="639.298" y="646.875" type="line"/>
      <point x="92.126" y="646.875" type="line"/>
      <point x="92.126" y="548.438" type="line"/>
      <point x="639.298" y="548.438" type="line"/>
    </contour>
    <contour>
      <point x="347.541" y="-12.916" type="curve"/>
      <point x="591.444" y="-12.916"/>
      <point x="718.044" y="112.38"/>
      <point x="734.225" y="287.689" type="curve"/>
      <point x="620.997" y="287.689" type="line"/>
      <point x="609.791" y="174.425"/>
      <point x="536.197" y="96.173"/>
      <point x="364.572" y="96.173" type="curve"/>
      <point x="249.207" y="96.173"/>
      <point x="176.885" y="133.661"/>
      <point x="176.885" y="206.834" type="curve"/>
      <point x="176.885" y="277.692"/>
      <point x="246.428" y="315.622"/>
      <point x="344.431" y="315.622" type="curve"/>
      <point x="316.619" y="372.21" type="line"/>
      <point x="187.932" y="372.21"/>
      <point x="53.135" y="319.929"/>
      <point x="53.135" y="189.209" type="curve"/>
      <point x="53.135" y="67.931"/>
      <point x="166.284" y="-12.916"/>
    </contour>
  </outline>
</glyph>
<glyph name="at.ss02" format="1">
  <advance width="1073.02125"/>
  <outline>
    <contour>
      <point x="534.573" y="-54.599" type="curve"/>
      <point x="646.723" y="-54.599"/>
      <point x="745.319" y="-36.407"/>
      <point x="805.156" y="-7.359" type="curve"/>
      <point x="769.482" y="66.424" type="line"/>
      <point x="719.038" y="41.28"/>
      <point x="633.585" y="26.067"/>
      <point x="535.374" y="26.067" type="curve"/>
      <point x="289.032" y="26.067"/>
      <point x="142.188" y="133.442"/>
      <point x="142.188" y="322.071" type="curve"/>
      <point x="142.188" y="515.919"/>
      <point x="299.113" y="605.455"/>
      <point x="543.864" y="605.455" type="curve"/>
      <point x="786.813" y="605.455"/>
      <point x="934.269" y="516.316"/>
      <point x="934.269" y="325.057" type="curve"/>
      <point x="934.269" y="267.691"/>
      <point x="923.755" y="229.438"/>
      <point x="875.613" y="229.438" type="curve"/>
      <point x="827.931" y="229.438"/>
      <point x="817.044" y="267.056"/>
      <point x="817.044" y="320.726" type="curve"/>
      <point x="817.044" y="495.074" type="line"/>
      <point x="687.044" y="495.074" type="line"/>
      <point x="687.044" y="279.342" type="line"/>
      <point x="687.044" y="216.342"/>
      <point x="735.11" y="143.111"/>
      <point x="855.484" y="143.111" type="curve"/>
      <point x="967.025" y="143.111"/>
      <point x="1024.271" y="213.486"/>
      <point x="1024.271" y="328.995" type="curve"/>
      <point x="1024.271" y="558.615"/>
      <point x="849.201" y="686.082"/>
      <point x="542.104" y="686.082" type="curve"/>
      <point x="235.621" y="686.082"/>
      <point x="52.186" y="559.423"/>
      <point x="52.186" y="322.168" type="curve"/>
      <point x="52.186" y="86.01"/>
      <point x="234.328" y="-54.599"/>
    </contour>
    <contour>
      <point x="470.369" y="110.699" type="curve"/>
      <point x="623.044" y="110.699"/>
      <point x="700.169" y="238.377"/>
      <point x="700.169" y="314.98" type="curve"/>
      <point x="700.169" y="426.741"/>
      <point x="625.557" y="526.637"/>
      <point x="476.689" y="526.637" type="curve"/>
      <point x="329.952" y="526.637"/>
      <point x="237.794" y="438.143"/>
      <point x="237.794" y="315.061" type="curve"/>
      <point x="237.794" y="197.422"/>
      <point x="331.481" y="110.699"/>
    </contour>
    <contour>
      <point x="511.634" y="210.199" type="curve"/>
      <point x="418.356" y="210.199"/>
      <point x="370.606" y="252.905"/>
      <point x="370.606" y="314.481" type="curve"/>
      <point x="370.606" y="382.93"/>
      <point x="412.169" y="426.136"/>
      <point x="511.585" y="426.136" type="curve"/>
      <point x="607.053" y="426.136"/>
      <point x="687.044" y="385.011"/>
      <point x="687.044" y="314.495" type="curve"/>
      <point x="687.044" y="257.824"/>
      <point x="608.743" y="210.199"/>
    </contour>
  </outline>
</glyph>
<glyph name="breve.ss03" format="1">
  <advance width="638.75"/>
  <outline>
    <contour>
      <point x="529.375" y="730" type="curve"/>
      <point x="434.375" y="730" type="line"/>
      <point x="425" y="683.5"/>
      <point x="389.25" y="658.5"/>
      <point x="319.375" y="658.5" type="curve"/>
      <point x="249.5" y="658.5"/>
      <point x="213.75" y="683.5"/>
      <point x="204.375" y="730" type="curve"/>
      <point x="109.375" y="730" type="line"/>
      <point x="121.875" y="643.125"/>
      <point x="185.5" y="579.125"/>
      <point x="319.375" y="579.125" type="curve"/>
      <point x="453.25" y="579.125"/>
      <point x="516.875" y="643.125"/>
    </contour>
  </outline>
</glyph>
<glyph name="brevecomb.ss03" format="1">
  <advance width="638.75"/>
  <outline>
    <component base="breve.ss03"/>
    <contour>
      <point x="319.374" y="510" type="move" name="_top"/>
    </contour>
  </outline>
</glyph>
<glyph name="caron.ss03" format="1">
  <advance width="667.54313"/>
  <outline>
    <contour>
      <point x="420.001" y="759.329" type="line"/>
      <point x="265.765" y="601.337" type="line"/>
      <point x="401.781" y="601.337" type="line"/>
      <point x="560.668" y="759.329" type="line"/>
    </contour>
    <contour>
      <point x="106.877" y="759.329" type="line"/>
      <point x="265.765" y="601.337" type="line"/>
      <point x="401.781" y="601.337" type="line"/>
      <point x="247.544" y="759.329" type="line"/>
    </contour>
  </outline>
</glyph>
<glyph name="caroncomb.alt" format="1">
  <advance width="300.80625"/>
  <outline>
    <component base="caroncomb" xOffset="-10.328"/>
    <contour>
      <point x="150.403" y="496.875" type="move" name="_topright"/>
    </contour>
  </outline>
</glyph>
<glyph name="caroncomb.ss03" format="1">
  <advance width="661.5"/>
  <outline>
    <component base="caron.ss03"/>
    <contour>
      <point x="330.751" y="510" type="move" name="_top"/>
    </contour>
  </outline>
</glyph>
<glyph name="cedilla.ss03" format="1">
  <advance width="511.125"/>
  <outline>
    <contour>
      <point x="201.122" y="-115.787" type="curve"/>
      <point x="106.872" y="-115.787" type="line"/>
      <point x="103.408" y="-179.204"/>
      <point x="160.622" y="-239.287"/>
      <point x="261.682" y="-239.287" type="curve"/>
      <point x="366.747" y="-239.287"/>
      <point x="420.497" y="-189.931"/>
      <point x="420.497" y="-134.18" type="curve"/>
      <point x="420.497" y="-74.742"/>
      <point x="374.455" y="-47.285"/>
      <point x="317.789" y="-35.609" type="curve"/>
      <point x="237.137" y="-64.135" type="line"/>
      <point x="303.654" y="-76.828"/>
      <point x="310.247" y="-102.674"/>
      <point x="310.247" y="-117.163" type="curve"/>
      <point x="310.247" y="-138.953"/>
      <point x="295.747" y="-157.1"/>
      <point x="258.507" y="-157.1" type="curve"/>
      <point x="211.81" y="-157.1"/>
      <point x="203.579" y="-127.254"/>
    </contour>
    <contour>
      <point x="345.549" y="17.121" type="line"/>
      <point x="237.142" y="17.121" type="line"/>
      <point x="237.142" y="-64.386" type="line"/>
      <point x="345.549" y="-70.636" type="line"/>
    </contour>
  </outline>
</glyph>
<glyph name="cedillacomb.ss03" format="1">
  <advance width="511.125"/>
  <outline>
    <component base="cedilla.ss03"/>
    <contour>
      <point x="295.819" y="0" type="move" name="_bottom"/>
    </contour>
  </outline>
</glyph>
<glyph name="circumflex.ss03" format="1">
  <advance width="667.54313"/>
  <outline>
    <contour>
      <point x="265.765" y="759.329" type="line"/>
      <point x="102.752" y="601.337" type="line"/>
      <point x="244.107" y="601.337" type="line"/>
      <point x="401.781" y="759.329" type="line"/>
    </contour>
    <contour>
      <point x="265.765" y="759.329" type="line"/>
      <point x="423.439" y="601.337" type="line"/>
      <point x="564.106" y="601.337" type="line"/>
      <point x="401.781" y="759.329" type="line"/>
    </contour>
  </outline>
</glyph>
<glyph name="circumflexcomb.ss03" format="1">
  <advance width="667.55"/>
  <outline>
    <component base="circumflex.ss03"/>
    <contour>
      <point x="333.779" y="510" type="move" name="_top"/>
    </contour>
  </outline>
</glyph>
<glyph name="commaaccentcomb.ss03" format="1">
  <advance width="306.2625"/>
  <outline>
    <contour>
      <point x="86.634" y="-215.275" type="curve"/>
      <point x="98.406" y="-249.368" type="line"/>
      <point x="183.966" y="-232.04"/>
      <point x="229.695" y="-185.308"/>
      <point x="229.695" y="-113.101" type="curve"/>
      <point x="229.695" y="-60.872" type="line"/>
      <point x="76.559" y="-60.872" type="line"/>
      <point x="76.559" y="-152.987" type="line"/>
      <point x="137.801" y="-163.947" type="line"/>
      <point x="134.947" y="-191.825"/>
      <point x="86.634" y="-215.275"/>
    </contour>
    <contour>
      <point x="153.126" y="0" type="move" name="_bottom"/>
    </contour>
  </outline>
</glyph>
<glyph name="commaturnedabovecomb.ss03" format="1">
  <advance width="300.80625"/>
  <outline>
    <component base="acute" xOffset="-10.299"/>
    <contour>
      <point x="150.403" y="510" type="move" name="_top"/>
    </contour>
  </outline>
</glyph>
<glyph name="eight.dnom" format="1">
  <advance width="441.68438"/>
  <outline>
    <contour>
      <point x="220.505" y="-12.648" type="curve"/>
      <point x="339.207" y="-12.648"/>
      <point x="399.818" y="36.112"/>
      <point x="399.818" y="108.257" type="curve"/>
      <point x="399.818" y="168.515"/>
      <point x="344.895" y="201.402"/>
      <point x="281.343" y="205.137" type="curve"/>
      <point x="278.933" y="198.912" type="line"/>
      <point x="339.503" y="204.418"/>
      <point x="388.458" y="233.617"/>
      <point x="388.458" y="290.078" type="curve"/>
      <point x="388.458" y="359.202"/>
      <point x="329.718" y="402.298"/>
      <point x="220.505" y="402.298" type="curve"/>
      <point x="111.98" y="402.298"/>
      <point x="52.553" y="359.202"/>
      <point x="52.553" y="290.078" type="curve"/>
      <point x="52.553" y="233.617"/>
      <point x="101.508" y="204.418"/>
      <point x="156.515" y="198.912" type="curve"/>
      <point x="154.105" y="205.136" type="line"/>
      <point x="96.115" y="201.402"/>
      <point x="41.88" y="168.515"/>
      <point x="41.88" y="108.257" type="curve"/>
      <point x="41.88" y="36.112"/>
      <point x="101.803" y="-12.648"/>
    </contour>
    <contour>
      <point x="220.505" y="71.808" type="curve"/>
      <point x="169.382" y="71.808"/>
      <point x="145.291" y="91.309"/>
      <point x="145.291" y="120.132" type="curve"/>
      <point x="145.291" y="149.642"/>
      <point x="169.382" y="168.964"/>
      <point x="220.505" y="168.964" type="curve"/>
      <point x="272.317" y="168.964"/>
      <point x="298.193" y="149.642"/>
      <point x="298.193" y="120.132" type="curve"/>
      <point x="298.193" y="91.309"/>
      <point x="271.629" y="71.808"/>
    </contour>
    <contour>
      <point x="220.505" y="231.59" type="curve"/>
      <point x="178.147" y="231.59"/>
      <point x="156.901" y="248.707"/>
      <point x="156.901" y="274.667" type="curve"/>
      <point x="156.901" y="299.564"/>
      <point x="177.459" y="316.298"/>
      <point x="220.505" y="316.298" type="curve"/>
      <point x="263.865" y="316.298"/>
      <point x="286.896" y="299.564"/>
      <point x="286.896" y="274.667" type="curve"/>
      <point x="286.896" y="248.707"/>
      <point x="263.865" y="231.59"/>
    </contour>
  </outline>
</glyph>
<glyph name="eight.lf" format="1">
  <advance width="663.9"/>
  <outline>
    <contour>
      <point x="331.952" y="332.261" type="curve"/>
      <point x="511.659" y="332.261"/>
      <point x="608.519" y="374.523"/>
      <point x="608.519" y="483.72" type="curve"/>
      <point x="608.519" y="586.042"/>
      <point x="518.534" y="660.304"/>
      <point x="331.952" y="660.304" type="curve"/>
      <point x="145.371" y="660.304"/>
      <point x="55.386" y="586.042"/>
      <point x="55.386" y="483.72" type="curve"/>
      <point x="55.386" y="374.523"/>
      <point x="152.246" y="332.261"/>
    </contour>
    <contour>
      <point x="331.952" y="379.136" type="curve"/>
      <point x="233.191" y="379.136"/>
      <point x="190.073" y="416.971"/>
      <point x="190.073" y="467.47" type="curve"/>
      <point x="190.073" y="517.969"/>
      <point x="233.191" y="551.866"/>
      <point x="331.952" y="551.866" type="curve"/>
      <point x="430.715" y="551.866"/>
      <point x="476.957" y="517.969"/>
      <point x="476.957" y="467.47" type="curve"/>
      <point x="476.957" y="416.971"/>
      <point x="430.715" y="379.136"/>
    </contour>
    <contour>
      <point x="331.952" y="-12.916" type="curve"/>
      <point x="531.817" y="-12.916"/>
      <point x="627.53" y="71.49"/>
      <point x="627.53" y="177.772" type="curve"/>
      <point x="627.53" y="302.179"/>
      <point x="518.379" y="352.21"/>
      <point x="331.952" y="352.21" type="curve"/>
      <point x="145.526" y="352.21"/>
      <point x="36.376" y="302.179"/>
      <point x="36.376" y="177.772" type="curve"/>
      <point x="36.376" y="71.49"/>
      <point x="132.088" y="-12.916"/>
    </contour>
    <contour>
      <point x="331.952" y="97.11" type="curve"/>
      <point x="219.587" y="97.11"/>
      <point x="171.063" y="135.915"/>
      <point x="171.063" y="190.897" type="curve"/>
      <point x="171.063" y="249.317"/>
      <point x="219.587" y="287.809"/>
      <point x="331.952" y="287.809" type="curve"/>
      <point x="444.319" y="287.809"/>
      <point x="495.967" y="249.317"/>
      <point x="495.967" y="190.897" type="curve"/>
      <point x="495.967" y="135.915"/>
      <point x="444.319" y="97.11"/>
    </contour>
  </outline>
</glyph>
<glyph name="eight.osf" format="1">
  <advance width="674.9"/>
  <outline>
    <contour>
      <point x="337.452" y="332.261" type="curve"/>
      <point x="517.159" y="332.261"/>
      <point x="614.019" y="374.523"/>
      <point x="614.019" y="483.72" type="curve"/>
      <point x="614.019" y="586.042"/>
      <point x="524.034" y="660.304"/>
      <point x="337.452" y="660.304" type="curve"/>
      <point x="150.871" y="660.304"/>
      <point x="60.886" y="586.042"/>
      <point x="60.886" y="483.72" type="curve"/>
      <point x="60.886" y="374.523"/>
      <point x="157.746" y="332.261"/>
    </contour>
    <contour>
      <point x="337.452" y="379.136" type="curve"/>
      <point x="238.691" y="379.136"/>
      <point x="195.573" y="416.971"/>
      <point x="195.573" y="467.47" type="curve"/>
      <point x="195.573" y="517.969"/>
      <point x="238.691" y="551.866"/>
      <point x="337.452" y="551.866" type="curve"/>
      <point x="436.215" y="551.866"/>
      <point x="482.457" y="517.969"/>
      <point x="482.457" y="467.47" type="curve"/>
      <point x="482.457" y="416.971"/>
      <point x="436.215" y="379.136"/>
    </contour>
    <contour>
      <point x="337.452" y="-12.916" type="curve"/>
      <point x="537.317" y="-12.916"/>
      <point x="633.03" y="71.49"/>
      <point x="633.03" y="177.772" type="curve"/>
      <point x="633.03" y="302.179"/>
      <point x="523.879" y="352.21"/>
      <point x="337.452" y="352.21" type="curve"/>
      <point x="151.026" y="352.21"/>
      <point x="41.876" y="302.179"/>
      <point x="41.876" y="177.772" type="curve"/>
      <point x="41.876" y="71.49"/>
      <point x="137.588" y="-12.916"/>
    </contour>
    <contour>
      <point x="337.452" y="97.11" type="curve"/>
      <point x="225.087" y="97.11"/>
      <point x="176.563" y="135.915"/>
      <point x="176.563" y="190.897" type="curve"/>
      <point x="176.563" y="249.317"/>
      <point x="225.087" y="287.809"/>
      <point x="337.452" y="287.809" type="curve"/>
      <point x="449.819" y="287.809"/>
      <point x="501.467" y="249.317"/>
      <point x="501.467" y="190.897" type="curve"/>
      <point x="501.467" y="135.915"/>
      <point x="449.819" y="97.11"/>
    </contour>
  </outline>
</glyph>
<glyph name="eogonek.ss03" format="1">
  <advance width="678.24312"/>
  <outline>
    <contour>
      <point x="554.611" y="-223.039" type="curve"/>
      <point x="554.611" y="-154.602" type="line"/>
      <point x="481.798" y="-154.602"/>
      <point x="433.392" y="-127.102"/>
      <point x="433.392" y="-78.977" type="curve"/>
      <point x="433.392" y="-34.289"/>
      <point x="472.579" y="-8.039"/>
      <point x="527.704" y="20.835" type="curve"/>
      <point x="527.704" y="42.836" type="line"/>
      <point x="417.767" y="11.773"/>
      <point x="332.454" y="-18.102"/>
      <point x="332.454" y="-98.352" type="curve"/>
      <point x="332.454" y="-175.477"/>
      <point x="418.423" y="-223.039"/>
    </contour>
    <component base="e"/>
    <contour>
      <point x="536.765" y="-0.227" type="move" name="_ogonek"/>
    </contour>
  </outline>
</glyph>
<glyph name="exclam.case" format="1">
  <advance width="304.55625"/>
  <outline>
    <contour>
      <point x="218.151" y="646.875" type="line"/>
      <point x="86.401" y="646.875" type="line"/>
      <point x="86.401" y="201.938" type="line"/>
      <point x="218.151" y="201.938" type="line"/>
    </contour>
    <component base="period" xOffset="16.547"/>
  </outline>
</glyph>
<glyph name="exclam_question" format="1">
  <advance width="852.87"/>
  <outline>
    <contour>
      <point x="599.268" y="257.644" type="curve"/>
      <point x="723.737" y="257.644"/>
      <point x="801.93" y="347.808"/>
      <point x="801.93" y="469.623" type="curve"/>
      <point x="801.93" y="608.792"/>
      <point x="643.19" y="707.762"/>
      <point x="500.293" y="707.762" type="curve"/>
      <point x="386.85" y="707.762"/>
      <point x="312.863" y="638.404"/>
      <point x="293.552" y="562.809" type="curve"/>
      <point x="415.687" y="523.456" type="line"/>
      <point x="428.877" y="566.09"/>
      <point x="463.758" y="592.414"/>
      <point x="510.383" y="592.414" type="curve"/>
      <point x="579.625" y="592.414"/>
      <point x="668.22" y="542.704"/>
      <point x="668.22" y="471.58" type="curve"/>
      <point x="668.22" y="410.515"/>
      <point x="631.34" y="358.657"/>
      <point x="563.117" y="358.657" type="curve"/>
      <point x="541.294" y="358.657"/>
      <point x="514.193" y="364.743"/>
      <point x="480.381" y="375.486" type="curve"/>
      <point x="424.254" y="394.371" type="line"/>
      <point x="375.428" y="228.754" type="line"/>
      <point x="491.107" y="191.752" type="line"/>
      <point x="512.763" y="271.748" type="line"/>
      <point x="542.971" y="262.777"/>
      <point x="572.353" y="257.644"/>
    </contour>
    <contour>
      <point x="30.629" y="656.395" type="line"/>
      <point x="202.033" y="181.427" type="line"/>
      <point x="325.089" y="226.507" type="line"/>
      <point x="153.684" y="701.474" type="line"/>
    </contour>
    <component base="period" xOffset="216.971"/>
  </outline>
</glyph>
<glyph name="f_f" format="1">
  <advance width="828.585"/>
  <outline>
    <contour>
      <point x="520.115" y="523.75" type="line"/>
      <point x="520.115" y="0" type="line"/>
      <point x="650.115" y="0" type="line"/>
      <point x="650.115" y="508.125" type="line"/>
    </contour>
    <contour>
      <point x="815.464" y="696.875" type="line"/>
      <point x="711.99" y="696.875" type="line"/>
      <point x="586.99" y="696.875"/>
      <point x="520.115" y="643.75"/>
      <point x="520.115" y="523.75" type="curve"/>
      <point x="650.115" y="508.125" type="line"/>
      <point x="650.115" y="576.403"/>
      <point x="683.865" y="593.247"/>
      <point x="743.24" y="591.875" type="curve"/>
      <point x="815.464" y="591.875" type="line"/>
    </contour>
    <contour>
      <point x="132.31" y="510" type="line"/>
      <point x="132.31" y="0" type="line"/>
      <point x="262.31" y="0" type="line"/>
      <point x="262.31" y="494.375" type="line"/>
    </contour>
    <contour>
      <point x="427.659" y="683.125" type="line"/>
      <point x="324.185" y="683.125" type="line"/>
      <point x="199.185" y="683.125"/>
      <point x="132.31" y="630"/>
      <point x="132.31" y="510" type="curve"/>
      <point x="262.31" y="494.375" type="line"/>
      <point x="262.31" y="562.653"/>
      <point x="296.06" y="579.497"/>
      <point x="355.435" y="578.125" type="curve"/>
      <point x="427.659" y="578.125" type="line"/>
    </contour>
    <contour>
      <point x="814.166" y="487.5" type="line"/>
      <point x="24.998" y="487.5" type="line"/>
      <point x="24.998" y="389.062" type="line"/>
      <point x="814.166" y="389.062" type="line"/>
    </contour>
    <contour>
      <point x="349.498" y="0" type="move" name="caret_1"/>
    </contour>
  </outline>
</glyph>
